<?xml version="1.0" encoding="utf-8"?>
<!-- Generator: Adobe Illustrator 26.2.1, SVG Export Plug-In . SVG Version: 6.00 Build 0)  -->
<svg version="1.1" id="Layer_1" xmlns="http://www.w3.org/2000/svg" xmlns:xlink="http://www.w3.org/1999/xlink" x="0px" y="0px"
	 viewBox="0 0 50 50" style="enable-background:new 0 0 50 50;" xml:space="preserve">
<style type="text/css">
	.st0{fill:#FFFFFF;}
</style>
<path class="st0" d="M48.9,13c-0.6-2.1-2.3-3.8-4.4-4.4C40.6,7.5,25,7.5,25,7.5S9.4,7.5,5.5,8.6C3.3,9.2,1.6,10.8,1,13
	c-1.2,6.9-1.6,17.4,0,24c0.6,2.2,2.3,3.8,4.4,4.4C9.4,42.5,25,42.5,25,42.5s15.6,0,19.5-1.1c2.2-0.6,3.8-2.3,4.4-4.4
	C50.2,30.1,50.5,19.6,48.9,13z M21,31.9v-15l13,7.5L21,31.9z"/>
</svg>
