<?xml version="1.0" encoding="utf-8"?>
<!-- Generator: Adobe Illustrator 26.2.1, SVG Export Plug-In . SVG Version: 6.00 Build 0)  -->
<svg version="1.1" id="Layer_1" xmlns="http://www.w3.org/2000/svg" xmlns:xlink="http://www.w3.org/1999/xlink" x="0px" y="0px"
	 viewBox="0 0 50 50" style="enable-background:new 0 0 50 50;" xml:space="preserve">
<style type="text/css">
	.st0{fill:#FFFFFF;}
</style>
<g id="Logo_1_">
	<path id="white_background" class="st0" d="M44.9,14.8c0,0.4,0,0.9,0,1.3c0,13.6-10.3,29.2-29.2,29.2v0c-5.6,0-11-1.6-15.7-4.6
		c0.8,0.1,1.6,0.1,2.4,0.1c4.6,0,9.1-1.5,12.7-4.4c-4.4-0.1-8.2-2.9-9.6-7.1c1.5,0.3,3.1,0.2,4.6-0.2C5.4,28.2,2,24,2,19.1
		c0,0,0-0.1,0-0.1c1.4,0.8,3,1.2,4.7,1.3c-4.5-3-5.9-9-3.2-13.7C8.7,13,16.4,16.9,24.6,17.3c-0.8-3.6,0.3-7.3,3-9.8
		c4.1-3.9,10.6-3.7,14.5,0.4c2.3-0.5,4.5-1.3,6.5-2.5c-0.8,2.4-2.4,4.4-4.5,5.7c2-0.2,4-0.8,5.9-1.6C48.6,11.6,46.9,13.3,44.9,14.8z
		"/>
</g>
</svg>
