<?xml version="1.0" encoding="utf-8"?>
<!-- Generator: Adobe Illustrator 26.2.1, SVG Export Plug-In . SVG Version: 6.00 Build 0)  -->
<svg version="1.1" id="Layer_1" xmlns="http://www.w3.org/2000/svg" xmlns:xlink="http://www.w3.org/1999/xlink" x="0px" y="0px"
	 viewBox="0 0 50 50" style="enable-background:new 0 0 50 50;" xml:space="preserve">
<style type="text/css">
	.st0{fill:#FFFFFF;}
</style>
<path class="st0" d="M13.1,11.6l0.8,3.5c-4.1,0-14,0-14,0s0.2,1,0.3,1.2C0.7,16.9,1,17.6,1.5,18c2.2,2.6,6,3.6,9.2,4.2
	c2.2,0.5,4.4,0.6,6.6,0.7l2.6,6.9h1.4l0.8,2.2h-1.2l-2,6.4h19.4l-2-6.4h-1.2l0.8-2.2h1.4c0,0,1.2-7.1,4.8-10.3
	c3.5-3.3,7.8-3.7,7.8-3.7v-4.1H13.1z M32.7,29.2c-0.9,0.6-2,0.6-2.7,1c-0.5,0.2-0.7,0.9-0.7,0.9c-0.5-1-1-1.4-1.7-1.6
	c-0.7-0.2-2-0.1-3.7-1.6c-1.2-1-1.3-2.4-1.2-3.1v-0.1c0-0.1,0-0.1,0-0.2c0-0.1,0-0.2,0.1-0.3l0,0l0,0c0.2-0.7,0.8-1.4,2-1.9
	c0,0-0.8,1.2,0,2.3c0.5,0.7,1.4,1,2.2,0.6c0.3-0.2,0.6-0.7,0.7-1c0.2-0.8,0.2-1.6-0.5-2.2c-1-0.9-1.3-2.2-0.6-3c0,0,0.2,1,1.3,0.9
	c0.7,0,0.7-0.2,0.5-0.5c-0.1-0.3-1.6-2.6,0.6-4.2c0,0,1.4-0.9,3-0.8c-0.9,0.1-2,0.7-2.3,1.6c0,0,0,0,0,0.1c-0.3,0.9-0.1,2,0.6,2.9
	c0.5,0.7,1,1.3,1.3,2.2c-0.3-0.1-0.6,0-0.8,0.2c-0.2,0.2-0.3,0.7-0.2,1c0.1,0.2,0.3,0.5,0.6,0.5c0.1,0,0.1,0,0.2,0h0.1
	c0.3-0.1,0.6-0.6,0.5-0.9c0.2,0.2,0.3,0.8,0.2,1.2c0,0.3-0.2,0.7-0.3,0.9c-0.1,0.2-0.3,0.5-0.5,0.7C31.2,25,31,25.2,31,25.5
	c0,0.2,0,0.6,0.1,0.8c0.5,0.7,1.4,0,1.6-0.6c0.3-0.7,0.2-1.5-0.2-2.2c0,0,0.8,0.5,1.4,2.1C34.4,27,33.6,28.6,32.7,29.2z"/>
</svg>
