<?xml version="1.0" encoding="utf-8"?>
<!-- Generator: Adobe Illustrator 26.2.1, SVG Export Plug-In . SVG Version: 6.00 Build 0)  -->
<svg version="1.1" id="Layer_1" xmlns="http://www.w3.org/2000/svg" xmlns:xlink="http://www.w3.org/1999/xlink" x="0px" y="0px"
	 viewBox="0 0 50 50" style="enable-background:new 0 0 50 50;" xml:space="preserve">
<style type="text/css">
	.st0{fill-rule:evenodd;clip-rule:evenodd;fill:#FFFFFF;}
</style>
<path class="st0" d="M3.5,3.5C0,7,0,12.7,0,24v2c0,11.3,0,17,3.5,20.5C7,50,12.7,50,24,50h2c11.3,0,17,0,20.5-3.5
	C50,43,50,37.3,50,26v-2c0-11.3,0-17-3.5-20.5C43,0,37.3,0,26,0h-2C12.7,0,7,0,3.5,3.5z M8.4,15.2C8.7,28.2,15.2,36,26.6,36h0.6
	v-7.4c4.2,0.4,7.4,3.5,8.6,7.4h5.9c-1.6-5.9-5.9-9.2-8.6-10.4c2.7-1.5,6.4-5.3,7.3-10.4h-5.4c-1.2,4.1-4.6,7.9-7.9,8.2v-8.2h-5.4
	v14.4c-3.3-0.8-7.5-4.9-7.7-14.4H8.4z"/>
</svg>
