<svg width="50" height="50" viewBox="0 0 50 50" fill="none" xmlns="http://www.w3.org/2000/svg">
<rect width="50" height="50" rx="13" fill="#fff6f5"/>
<g clip-path="url(#clip0_226_120)">
<mask id="mask0_226_120" style="mask-type:luminance" maskUnits="userSpaceOnUse" x="7" y="8" width="35" height="35">
<path d="M7 8H42V43H7V8Z" fill="white"/>
</mask>
<g mask="url(#mask0_226_120)">
<path d="M25.8624 43C15.4612 43 7 34.5247 7 24.1088C7 22.28 7.19687 19.4205 8.12875 16.1795L8.13575 16.1471L11.9831 17.2566L11.9753 17.2881C11.3386 19.5048 11.0118 21.799 11.004 24.1053C11.004 32.3119 17.6698 38.9855 25.8615 38.9855C30.3721 38.9855 34.4776 37.1419 36.5776 34.1747C37.6084 32.7152 38.6129 30.33 37.5314 27.25C37.3985 26.8834 37.2297 26.5308 37.0274 26.1974C35.2179 30.7229 30.8516 33.3531 27.0384 33.935C24.9445 34.2552 21.7455 33.8703 19.6481 31.7274C18.4931 30.5479 17.2498 28.3779 17.8771 24.73C18.4853 21.1976 21.9424 18.7319 26.9019 18.2926C29.1926 18.0914 31.7293 18.36 34.0576 19.1781C34.0121 16.8331 33.4793 15.0131 32.4774 13.8258C31.4711 12.6331 29.9381 12.0381 27.8005 12.0058C23.5874 11.9358 21.7481 15.1558 21.6729 15.2931L18.1545 13.3769C18.2726 13.1555 21.1243 7.99475 27.6745 7.99475H27.86C31.1798 8.04288 33.7619 9.13313 35.5355 11.2331C37.5043 13.5624 38.3303 16.9495 37.9969 21.3219C39.4476 22.4874 40.6193 24.0002 41.3026 25.9016C42.595 29.5845 42.0753 33.3374 39.8431 36.49C36.9626 40.5631 31.7345 42.9947 25.8598 42.9947L25.8624 43ZM28.3981 22.2424C28.0131 22.2424 27.6308 22.2581 27.2545 22.2931C24.7826 22.5119 22.1445 23.5619 21.8243 25.4169C21.5521 26.9998 21.7805 28.1819 22.5076 28.9221C23.5384 29.9747 25.4214 30.1279 26.4364 29.9721C29.4324 29.5145 32.9193 27.2605 33.7076 23.3676C32.1003 22.6116 30.2164 22.2424 28.3981 22.2424Z" fill="#212121"/>
</g>
</g>
<defs>
<clipPath id="clip0_226_120">
<rect width="35" height="35" fill="white" transform="translate(7 8)"/>
</clipPath>
</defs>
</svg>
