<svg width="40" height="40" viewBox="0 0 40 40" fill="none" xmlns="http://www.w3.org/2000/svg">
<rect width="40" height="40" rx="13" fill="#212121"/>
<g clip-path="url(#clip0_1_6)">
<path d="M20.6276 33.6C12.7822 33.6 6.40002 27.2072 6.40002 19.3506C6.40002 17.9712 6.54852 15.8143 7.25142 13.3697L7.2567 13.3452L10.1587 14.1821L10.1528 14.2059C9.67257 15.8779 9.42604 17.6083 9.42018 19.348C9.42018 25.5381 14.4481 30.5719 20.627 30.5719C24.0293 30.5719 27.126 29.1813 28.71 26.9432C29.4875 25.8424 30.2452 24.0432 29.4294 21.72C29.3292 21.4434 29.2018 21.1775 29.0492 20.926C27.6844 24.3395 24.391 26.3235 21.5147 26.7624C19.9353 27.004 17.5223 26.7136 15.9403 25.0972C15.0691 24.2075 14.1313 22.5707 14.6045 19.8192C15.0632 17.1548 17.6708 15.2949 21.4117 14.9636C23.1396 14.8118 25.0529 15.0144 26.8092 15.6315C26.7749 13.8627 26.3729 12.4899 25.6172 11.5943C24.8582 10.6947 23.7019 10.2459 22.0895 10.2215C18.9116 10.1687 17.5243 12.5975 17.4676 12.7011L14.8137 11.2557C14.9028 11.0887 17.0537 7.19603 21.9945 7.19603H22.1344C24.6385 7.23233 26.5861 8.05469 27.9239 9.63869C29.4089 11.3956 30.032 13.9505 29.7805 17.2485C30.8748 18.1276 31.7585 19.2688 32.274 20.7023C33.2488 23.4809 32.8568 26.3116 31.1731 28.6896C29.0004 31.7619 25.0569 33.596 20.6257 33.596L20.6276 33.6ZM22.5403 17.9428C22.2499 17.9428 21.9615 17.9547 21.6777 17.9811C19.8132 18.1461 17.8233 18.9381 17.5817 20.3373C17.3765 21.5312 17.5487 22.4229 18.0972 22.9812C18.8747 23.7752 20.295 23.8907 21.0606 23.7733C23.3204 23.4281 25.9505 21.7279 26.5452 18.7916C25.3328 18.2213 23.9118 17.9428 22.5403 17.9428Z" fill="#FFF6F5"/>
</g>
<defs>
<clipPath id="clip0_1_6">
<rect width="26.4" height="26.4" fill="white" transform="translate(6.40002 7.2)"/>
</clipPath>
</defs>
</svg>
