<svg width="40" height="40" viewBox="0 0 40 40" fill="none" xmlns="http://www.w3.org/2000/svg">
<g clip-path="url(#clip0_250_2)">
<rect width="40" height="40" rx="20" fill="black"/>
<mask id="mask0_250_2" style="mask-type:luminance" maskUnits="userSpaceOnUse" x="7" y="8" width="25" height="25">
<path d="M32 8H7V33H32V8Z" fill="white"/>
</mask>
<g mask="url(#mask0_250_2)">
<path d="M20.4731 33C13.0437 33 7 26.9462 7 19.5062C7 18.2 7.14062 16.1575 7.80625 13.8425L7.81125 13.8193L10.5594 14.6118L10.5538 14.6344C10.099 16.2177 9.86555 17.8563 9.86 19.5038C9.86 25.3656 14.6213 30.1325 20.4725 30.1325C23.6944 30.1325 26.6269 28.8156 28.1269 26.6962C28.8631 25.6538 29.5807 23.95 28.8081 21.75C28.7132 21.488 28.5926 21.2362 28.4481 20.9981C27.1557 24.2306 24.0369 26.1094 21.3131 26.525C19.8175 26.7538 17.5325 26.4788 16.0344 24.9481C15.2094 24.1056 14.3213 22.5556 14.7694 19.95C15.2038 17.4269 17.6731 15.6656 21.2156 15.3519C22.8519 15.2081 24.6637 15.4 26.3269 15.9844C26.2944 14.3094 25.9137 13.0094 25.1981 12.1612C24.4793 11.3094 23.3844 10.8844 21.8575 10.8612C18.8481 10.8112 17.5344 13.1112 17.4807 13.2094L14.9675 11.8406C15.0519 11.6825 17.0887 7.99622 21.7675 7.99622H21.9C24.2713 8.03059 26.1156 8.80934 27.3825 10.3093C28.7887 11.9731 29.3788 14.3925 29.1406 17.5156C30.1769 18.3481 31.0137 19.4288 31.5019 20.7862C32.425 23.4175 32.0538 26.0981 30.4594 28.35C28.4019 31.2594 24.6675 32.9962 20.4713 32.9962L20.4731 33ZM22.2844 18.1731C22.0094 18.1731 21.7363 18.1844 21.4675 18.2094C19.7019 18.3656 17.8175 19.1156 17.5887 20.4406C17.3944 21.5712 17.5575 22.4156 18.0769 22.9443C18.8131 23.6962 20.1581 23.8056 20.8831 23.6944C23.0231 23.3675 25.5137 21.7575 26.0769 18.9769C24.9288 18.4368 23.5831 18.1731 22.2844 18.1731Z" fill="white"/>
</g>
</g>
<defs>
<clipPath id="clip0_250_2">
<rect width="40" height="40" fill="white"/>
</clipPath>
</defs>
</svg>
