<svg xmlns="http://www.w3.org/2000/svg" width="40" height="40"><g><path fill="#212121" d="M21.557 40C9.67 40 0 30.314 0 18.41c0-2.09.225-5.358 1.29-9.062l.008-.037 4.397 1.268-.009.036a28.572 28.572 0 0 0-1.11 7.791c0 9.379 7.618 17.006 16.98 17.006 5.155 0 9.847-2.107 12.247-5.498 1.178-1.668 2.326-4.394 1.09-7.914a6.761 6.761 0 0 0-.576-1.203c-2.068 5.172-7.058 8.178-11.416 8.843-2.393.366-6.049-.074-8.446-2.523-1.32-1.348-2.741-3.828-2.024-7.997.695-4.037 4.646-6.855 10.314-7.357 2.618-.23 5.517.077 8.178 1.012-.052-2.68-.661-4.76-1.806-6.117-1.15-1.363-2.902-2.043-5.345-2.08-4.815-.08-6.917 3.6-7.003 3.757l-4.021-2.19c.135-.253 3.394-6.151 10.88-6.151h.212c3.794.055 6.745 1.301 8.772 3.701 2.25 2.662 3.194 6.533 2.813 11.53 1.658 1.332 2.997 3.061 3.778 5.233 1.477 4.21.883 8.499-1.668 12.102-3.292 4.655-9.267 7.434-15.981 7.434l.003.006Zm2.898-23.723c-.44 0-.877.018-1.307.058-2.825.25-5.84 1.45-6.206 3.57-.311 1.809-.05 3.16.781 4.006 1.178 1.203 3.33 1.378 4.49 1.2 3.424-.523 7.409-3.099 8.31-7.548-1.837-.864-3.99-1.286-6.068-1.286Z"/></g></svg>