<svg width="68" height="23" viewBox="0 0 68 23" fill="none" xmlns="http://www.w3.org/2000/svg">
<path d="M8.33 22.42C6.75 22.42 5.35 22.14 4.13 21.58C2.91 21.02 1.95 20.2 1.25 19.12C0.57 18.02 0.23 16.69 0.23 15.13V14.38H3.44V15.13C3.44 16.61 3.88 17.72 4.76 18.46C5.66 19.2 6.85 19.57 8.33 19.57C9.83 19.57 10.96 19.26 11.72 18.64C12.48 18 12.86 17.18 12.86 16.18C12.86 15.52 12.68 14.98 12.32 14.56C11.96 14.14 11.45 13.81 10.79 13.57C10.13 13.31 9.34 13.07 8.42 12.85L7.31 12.58C5.97 12.26 4.8 11.87 3.8 11.41C2.82 10.93 2.06 10.3 1.52 9.52C0.98 8.74 0.71 7.74 0.71 6.52C0.71 5.28 1.01 4.22 1.61 3.34C2.23 2.46 3.08 1.78 4.16 1.3C5.24 0.819999 6.51 0.579999 7.97 0.579999C9.43 0.579999 10.73 0.829999 11.87 1.33C13.03 1.83 13.94 2.57 14.6 3.55C15.26 4.53 15.59 5.76 15.59 7.24V8.32H12.38V7.24C12.38 6.34 12.19 5.61 11.81 5.05C11.45 4.49 10.94 4.08 10.28 3.82C9.62 3.56 8.85 3.43 7.97 3.43C6.69 3.43 5.69 3.7 4.97 4.24C4.27 4.76 3.92 5.49 3.92 6.43C3.92 7.07 4.07 7.6 4.37 8.02C4.69 8.42 5.15 8.75 5.75 9.01C6.35 9.27 7.1 9.5 8 9.7L9.11 9.97C10.47 10.27 11.67 10.66 12.71 11.14C13.75 11.6 14.57 12.23 15.17 13.03C15.77 13.83 16.07 14.86 16.07 16.12C16.07 17.38 15.75 18.48 15.11 19.42C14.49 20.36 13.6 21.1 12.44 21.64C11.28 22.16 9.91 22.42 8.33 22.42ZM26.4913 22.42C25.0113 22.42 23.6913 22.12 22.5313 21.52C21.3913 20.9 20.4913 20.02 19.8313 18.88C19.1713 17.74 18.8413 16.39 18.8413 14.83V14.38C18.8413 12.82 19.1713 11.48 19.8313 10.36C20.4913 9.22 21.3913 8.34 22.5313 7.72C23.6913 7.1 25.0113 6.79 26.4913 6.79C27.9713 6.79 29.2913 7.1 30.4513 7.72C31.6113 8.34 32.5213 9.22 33.1813 10.36C33.8413 11.48 34.1713 12.82 34.1713 14.38V14.83C34.1713 16.39 33.8413 17.74 33.1813 18.88C32.5213 20.02 31.6113 20.9 30.4513 21.52C29.2913 22.12 27.9713 22.42 26.4913 22.42ZM26.4913 19.66C27.8513 19.66 28.9513 19.23 29.7913 18.37C30.6513 17.49 31.0813 16.28 31.0813 14.74V14.47C31.0813 12.93 30.6613 11.73 29.8213 10.87C28.9813 9.99 27.8713 9.55 26.4913 9.55C25.1513 9.55 24.0513 9.99 23.1913 10.87C22.3513 11.73 21.9313 12.93 21.9313 14.47V14.74C21.9313 16.28 22.3513 17.49 23.1913 18.37C24.0513 19.23 25.1513 19.66 26.4913 19.66ZM38.0183 22V0.999999H41.1083V22H38.0183ZM45.6941 22V7.21H48.7841V22H45.6941ZM47.2541 5.2C46.6541 5.2 46.1441 5.01 45.7241 4.63C45.3241 4.23 45.1241 3.72 45.1241 3.1C45.1241 2.48 45.3241 1.98 45.7241 1.6C46.1441 1.2 46.6541 0.999999 47.2541 0.999999C47.8741 0.999999 48.3841 1.2 48.7841 1.6C49.1841 1.98 49.3841 2.48 49.3841 3.1C49.3841 3.72 49.1841 4.23 48.7841 4.63C48.3841 5.01 47.8741 5.2 47.2541 5.2ZM53.3698 22V7.21H56.3998V9.43H56.8798C57.1598 8.83 57.6598 8.27 58.3798 7.75C59.0998 7.23 60.1698 6.97 61.5898 6.97C62.7098 6.97 63.6998 7.22 64.5598 7.72C65.4398 8.22 66.1298 8.93 66.6298 9.85C67.1298 10.75 67.3798 11.84 67.3798 13.12V22H64.2898V13.36C64.2898 12.08 63.9698 11.14 63.3298 10.54C62.6898 9.92 61.8098 9.61 60.6898 9.61C59.4098 9.61 58.3798 10.03 57.5998 10.87C56.8398 11.71 56.4598 12.93 56.4598 14.53V22H53.3698Z" fill="#212121"/>
</svg>
