<?xml version="1.0" encoding="utf-8"?>
<!-- Generator: Adobe Illustrator 26.3.1, SVG Export Plug-In . SVG Version: 6.00 Build 0)  -->
<svg version="1.1" id="Layer_1" xmlns="http://www.w3.org/2000/svg" xmlns:xlink="http://www.w3.org/1999/xlink" x="0px" y="0px"
	 viewBox="0 0 48 48" style="enable-background:new 0 0 48 48;" xml:space="preserve">
<path d="M18.5,48l-1.2-7.6c-0.8-0.3-1.6-0.7-2.4-1.1c-0.8-0.5-1.6-1-2.2-1.5L5.6,41L0,31.2l6.5-4.7c-0.1-0.4-0.1-0.8-0.2-1.2
	c0-0.5,0-0.9,0-1.2s0-0.8,0-1.2c0-0.5,0.1-0.9,0.2-1.2L0,16.8L5.6,7l7.1,3.2c0.6-0.5,1.4-1,2.2-1.5c0.8-0.5,1.6-0.8,2.4-1.1L18.5,0
	h11l1.2,7.6c0.8,0.3,1.6,0.7,2.4,1.1c0.9,0.5,1.6,1,2.2,1.5L42.4,7l5.6,9.8l-6.5,4.6c0.1,0.4,0.1,0.8,0.2,1.3c0,0.5,0,0.9,0,1.3
	s0,0.8,0,1.3c0,0.4-0.1,0.9-0.2,1.3l6.5,4.7L42.4,41l-7.1-3.2c-0.6,0.5-1.4,1-2.2,1.5c-0.8,0.5-1.6,0.9-2.4,1.1L29.5,48H18.5z
	 M24,31.8c2.2,0,4-0.8,5.5-2.3s2.3-3.4,2.3-5.5s-0.8-4-2.3-5.5s-3.4-2.3-5.5-2.3s-4,0.8-5.5,2.3s-2.3,3.4-2.3,5.5s0.8,4,2.3,5.5
	S21.8,31.8,24,31.8z M24,28.2c-1.2,0-2.1-0.4-3-1.2c-0.8-0.8-1.2-1.8-1.2-3s0.4-2.1,1.2-3c0.8-0.8,1.8-1.2,3-1.2s2.1,0.4,3,1.2
	c0.8,0.8,1.2,1.8,1.2,3s-0.4,2.1-1.2,3C26.1,27.8,25.2,28.2,24,28.2z M24,24L24,24L24,24L24,24L24,24L24,24L24,24L24,24L24,24L24,24
	L24,24L24,24L24,24L24,24L24,24L24,24L24,24z M21.4,44.4h5.3l0.8-6.7c1.3-0.3,2.6-0.8,3.8-1.5s2.2-1.5,3.2-2.5l6.4,2.8l2.4-4.3
	L37.6,28c0.2-0.7,0.3-1.4,0.4-2c0.1-0.7,0.1-1.3,0.1-2s0-1.4-0.1-2c-0.1-0.7-0.2-1.3-0.4-2l5.6-4.1l-2.4-4.3l-6.4,2.8
	c-0.9-1-2-1.9-3.1-2.6c-1.2-0.7-2.4-1.1-3.8-1.3l-0.8-6.7h-5.3l-0.8,6.7c-1.4,0.3-2.6,0.8-3.8,1.4c-1.2,0.7-2.2,1.5-3.1,2.5
	l-6.4-2.8l-2.4,4.3l5.6,4.1c-0.2,0.7-0.3,1.4-0.4,2c-0.1,0.7-0.2,1.3-0.2,2s0.1,1.4,0.2,2c0.1,0.7,0.2,1.3,0.4,2l-5.6,4.1l2.4,4.3
	l6.4-2.8c1,1,2,1.8,3.2,2.5s2.4,1.2,3.8,1.5L21.4,44.4z"/>
</svg>
