<svg width="50" height="50" viewBox="0 0 50 50" fill="none" xmlns="http://www.w3.org/2000/svg">
<path d="M25 50C38.8071 50 50 38.8071 50 25C50 11.1929 38.8071 0 25 0C11.1929 0 0 11.1929 0 25C0 38.8071 11.1929 50 25 50Z" fill="#212121"/>
<path d="M14.0134 13.6242V10H28.6107C31.698 10 34.1141 10.8054 35.8591 12.4161C37.604 14.0268 38.4765 16.5101 38.4765 19.8658V35.3691C38.4765 36.5101 38.1074 37.4497 37.3691 38.1879C36.6644 38.9262 35.7416 39.2953 34.6007 39.2953H30.5738C29.3322 39.2953 28.4262 38.9765 27.8557 38.3389C27.2852 37.6678 27 36.8792 27 35.9732H26.396C25.9933 37.2483 25.3054 38.2383 24.3322 38.943C23.3926 39.6477 22.1342 40 20.557 40C19.3154 40 18.1745 39.7483 17.1342 39.245C16.094 38.7416 15.1879 38.0201 14.4161 37.0805C13.6779 36.1409 13.0906 35 12.6544 33.6577C12.2181 32.2819 12 30.755 12 29.0772V28.1711C12 26.4933 12.2181 24.9832 12.6544 23.6409C13.0906 22.2987 13.6779 21.1577 14.4161 20.2181C15.1879 19.245 16.094 18.5067 17.1342 18.0034C18.1745 17.5 19.2819 17.2483 20.4564 17.2483C22 17.2483 23.1745 17.5503 23.9799 18.1544C24.8188 18.7248 25.5235 19.5638 26.094 20.6711H26.698V17.953H30.6242V34.1611C30.6242 35.1678 31.0772 35.6711 31.9832 35.6711H33.1913C34.0973 35.6711 34.5503 35.1678 34.5503 34.1611V20.2685C34.5503 18.0872 34.0302 16.443 32.9899 15.3356C31.9832 14.1946 30.3893 13.6242 28.2081 13.6242H14.0134ZM21.3121 36.2752C22.3188 36.2752 23.1577 36.0906 23.8289 35.7215C24.5336 35.3523 25.0872 34.849 25.4899 34.2114C25.9262 33.5403 26.2282 32.7685 26.396 31.896C26.5973 31.0235 26.698 30.0839 26.698 29.0772V28.1711C26.698 27.2315 26.5973 26.3255 26.396 25.453C26.2282 24.5805 25.9262 23.8087 25.4899 23.1376C25.0872 22.4664 24.5336 21.9463 23.8289 21.5772C23.1577 21.1745 22.3188 20.9732 21.3121 20.9732C20.4732 20.9732 19.7181 21.1577 19.047 21.5268C18.3758 21.896 17.8054 22.4161 17.3356 23.0872C16.8993 23.7248 16.547 24.4799 16.2785 25.3523C16.0436 26.2248 15.9262 27.1644 15.9262 28.1711V29.0772C15.9262 31.1913 16.396 32.9195 17.3356 34.2617C18.2752 35.604 19.6007 36.2752 21.3121 36.2752Z" fill="white"/>
</svg>
