<svg width="45" height="50" viewBox="0 0 45 50" fill="none" xmlns="http://www.w3.org/2000/svg">
<path d="M3.3557 6.04027V0H27.6846C32.83 0 36.8568 1.34228 39.7651 4.02684C42.6734 6.71141 44.1275 10.8501 44.1275 16.443V42.2819C44.1275 44.1834 43.5123 45.7494 42.2819 46.9799C41.1074 48.2103 39.5694 48.8255 37.6678 48.8255H30.9564C28.887 48.8255 27.377 48.2942 26.4262 47.2315C25.4754 46.113 25 44.7987 25 43.2886H23.9933C23.3221 45.4139 22.1756 47.0638 20.5537 48.2383C18.9877 49.4128 16.8904 50 14.2617 50C12.1924 50 10.2908 49.5805 8.55705 48.7416C6.82327 47.9027 5.3132 46.7002 4.02685 45.1342C2.79642 43.5682 1.81767 41.6667 1.0906 39.4295C0.363535 37.1365 0 34.5917 0 31.7953V30.2852C0 27.4888 0.363535 24.972 1.0906 22.7349C1.81767 20.4978 2.79642 18.5962 4.02685 17.0302C5.3132 15.4083 6.82327 14.1779 8.55705 13.3389C10.2908 12.5 12.1365 12.0805 14.094 12.0805C16.6667 12.0805 18.6242 12.5839 19.9664 13.5906C21.3647 14.5414 22.5392 15.9396 23.4899 17.7852H24.4966V13.255H31.0403V40.2685C31.0403 41.9463 31.7953 42.7852 33.3054 42.7852H35.3188C36.8289 42.7852 37.5839 41.9463 37.5839 40.2685V17.1141C37.5839 13.4787 36.717 10.7383 34.9832 8.89262C33.3054 6.99105 30.6488 6.04027 27.0134 6.04027H3.3557ZM15.5201 43.7919C17.198 43.7919 18.5962 43.4843 19.7148 42.8691C20.8893 42.2539 21.8121 41.415 22.4832 40.3523C23.2103 39.2338 23.7136 37.9474 23.9933 36.4933C24.3289 35.0392 24.4966 33.4732 24.4966 31.7953V30.2852C24.4966 28.7192 24.3289 27.2092 23.9933 25.755C23.7136 24.3009 23.2103 23.0145 22.4832 21.896C21.8121 20.7774 20.8893 19.9105 19.7148 19.2953C18.5962 18.6242 17.198 18.2886 15.5201 18.2886C14.1219 18.2886 12.8635 18.5962 11.745 19.2114C10.6264 19.8266 9.67562 20.6935 8.89262 21.8121C8.16555 22.8747 7.5783 24.1331 7.13087 25.5872C6.73937 27.0414 6.54362 28.6074 6.54362 30.2852V31.7953C6.54362 35.3188 7.32662 38.1991 8.89262 40.4362C10.4586 42.6734 12.6678 43.7919 15.5201 43.7919Z" fill="#212121"/>
</svg>
