<svg width="30" height="30" viewBox="0 0 30 30" fill="none" xmlns="http://www.w3.org/2000/svg">
<path d="M15 30C12.7909 30 10.7692 29.6351 8.93491 28.9053C7.12032 28.1755 5.54241 27.14 4.20118 25.7988C2.85996 24.4576 1.82446 22.8797 1.09467 21.0651C0.364892 19.2308 0 17.2091 0 15C0 12.8107 0.364892 10.7988 1.09467 8.9645C1.82446 7.13018 2.85996 5.54241 4.20118 4.20118C5.54241 2.85996 7.12032 1.82446 8.93491 1.09467C10.7692 0.364892 12.7909 0 15 0C17.1894 0 19.2012 0.364892 21.0355 1.09467C22.8698 1.82446 24.4576 2.85996 25.7988 4.20118C27.14 5.54241 28.1755 7.13018 28.9053 8.9645C29.6351 10.7988 30 12.8107 30 15C30 16.8343 29.7436 18.4517 29.2308 19.8521C28.7377 21.2327 28.0572 22.3176 27.1894 23.1065C26.3215 23.9152 25.3057 24.3195 24.142 24.3195C23.1164 24.3195 22.2682 24.0138 21.5976 23.4024C20.9467 22.8107 20.6213 22.0316 20.6213 21.0651V19.8521C20.2466 20.503 19.7436 21.0848 19.1124 21.5976C18.4813 22.0907 17.7909 22.4753 17.0414 22.7515C16.3116 23.0276 15.572 23.1657 14.8225 23.1657C13.2643 23.1657 11.8836 22.8205 10.6805 22.1302C9.47732 21.4398 8.54043 20.4832 7.86982 19.2604C7.19921 18.0178 6.86391 16.5976 6.86391 15C6.86391 13.4221 7.20907 12.0217 7.89941 10.7988C8.58974 9.57594 9.54635 8.60947 10.7692 7.89941C11.9921 7.18935 13.4024 6.83432 15 6.83432C16.5779 6.83432 17.9783 7.18935 19.2012 7.89941C20.4241 8.60947 21.3807 9.57594 22.071 10.7988C22.7811 12.0217 23.1361 13.4221 23.1361 15V20C23.1361 20.572 23.2347 21.0158 23.432 21.3314C23.6489 21.6272 23.9546 21.7751 24.3491 21.7751C24.9211 21.7751 25.4438 21.4892 25.9172 20.9172C26.3905 20.3254 26.7653 19.5266 27.0414 18.5207C27.3176 17.4951 27.4556 16.3215 27.4556 15C27.4556 13.1854 27.1499 11.5187 26.5385 10C25.927 8.48126 25.0592 7.16962 23.9349 6.06509C22.8304 4.94083 21.5187 4.07298 20 3.46154C18.4813 2.8501 16.8146 2.54438 15 2.54438C13.1657 2.54438 11.4892 2.8501 9.97041 3.46154C8.45168 4.07298 7.13018 4.94083 6.00592 6.06509C4.90138 7.16962 4.04339 8.48126 3.43195 10C2.84024 11.5187 2.54438 13.1854 2.54438 15C2.54438 16.8343 2.84024 18.5108 3.43195 20.0296C4.04339 21.5483 4.90138 22.86 6.00592 23.9645C7.13018 25.0888 8.45168 25.9467 9.97041 26.5385C11.4892 27.1499 13.1657 27.4556 15 27.4556C15.8284 27.4556 16.7258 27.357 17.6923 27.1598C18.6588 26.9822 19.4675 26.7357 20.1183 26.4201C20.6706 26.144 21.1243 26.1045 21.4793 26.3018C21.8343 26.499 22.0118 26.8935 22.0118 27.4852C22.0118 27.9191 21.716 28.3235 21.1243 28.6982C20.5325 29.0927 19.7041 29.4083 18.6391 29.645C17.574 29.8817 16.3609 30 15 30ZM15 20.5917C16.0848 20.5917 17.0414 20.355 17.8698 19.8817C18.7179 19.4083 19.3787 18.7574 19.8521 17.929C20.3452 17.0809 20.5917 16.1045 20.5917 15C20.5917 13.9152 20.3452 12.9586 19.8521 12.1302C19.3787 11.2821 18.7179 10.6213 17.8698 10.1479C17.0414 9.65483 16.0848 9.40828 15 9.40828C13.8955 9.40828 12.9191 9.65483 12.071 10.1479C11.2426 10.6213 10.5917 11.2821 10.1183 12.1302C9.64497 12.9586 9.40828 13.9152 9.40828 15C9.40828 16.1045 9.64497 17.0809 10.1183 17.929C10.5917 18.7574 11.2426 19.4083 12.071 19.8817C12.9191 20.355 13.8955 20.5917 15 20.5917Z" fill="#212121"/>
</svg>
