<svg width="50" height="50" viewBox="0 0 50 50" fill="none" xmlns="http://www.w3.org/2000/svg">
<rect width="50" height="50" rx="13" fill="#E3DBD7"/>
<g clip-path="url(#clip0_211_69)">
<path d="M34.5252 14.7449C33.4997 12.9869 32.087 11.5742 30.329 10.5487C28.571 9.52322 26.6142 9 24.5318 9C22.4494 9 20.503 9.52322 18.7345 10.5487C16.9765 11.5742 15.5638 12.9869 14.5383 14.7449C13.5124 16.5 12.9774 18.4988 12.9896 20.5317V29.416C12.9896 31.4984 13.5128 33.4447 14.5383 35.2027C15.5638 36.9608 16.9765 38.3734 18.7345 39.4199C20.4925 40.4663 22.4494 40.9895 24.5318 40.9895C26.0491 40.9895 27.535 40.6861 28.9477 40.1001C30.3499 39.5036 31.6057 38.6664 32.673 37.5991L33.1335 37.1387L31.1662 35.1714L30.7057 35.6318C29.8932 36.4449 28.93 37.0918 27.8699 37.5363C26.813 37.9758 25.6828 38.206 24.5213 38.206C22.9412 38.206 21.4657 37.8084 20.1367 37.0131C18.8149 36.2337 17.7158 35.1274 16.9451 33.8005C16.1687 32.4666 15.764 30.9489 15.7731 29.4055V20.5213C15.7731 18.9411 16.1707 17.4657 16.9451 16.1472C17.7195 14.8286 18.8182 13.7299 20.1367 12.9555C21.4657 12.1707 22.9412 11.7626 24.5213 11.7626C26.1014 11.7626 27.5769 12.1602 28.9059 12.9555C30.2453 13.7508 31.3127 14.8182 32.0975 16.1472C32.5893 16.9948 32.9346 17.8947 33.1125 18.8574C32.694 18.5226 32.244 18.24 31.7522 17.9889C29.4082 16.8378 26.5723 16.932 24.3539 18.2296C23.181 18.9159 22.2044 19.8925 21.518 21.0654C20.8169 22.2583 20.4716 23.5664 20.4716 24.9581C20.4716 26.3499 20.8274 27.6998 21.518 28.8927C22.2014 30.068 23.1787 31.0452 24.3539 31.7286C26.6037 33.0471 29.4395 33.1308 31.7417 31.9483C32.2963 31.6658 32.8091 31.3205 33.2695 30.9333V32.4192H36.0635V20.5213C36.0635 18.4388 35.5403 16.4925 34.5148 14.724L34.5252 14.7449ZM33.2904 24.9791C33.2904 25.8999 33.0602 26.7475 32.6207 27.5114C32.1707 28.2753 31.5533 28.8927 30.7894 29.3427C29.2721 30.2322 27.2944 30.2322 25.7456 29.3427C24.9836 28.9066 24.3487 28.2789 23.9039 27.5219C23.4539 26.758 23.2342 25.9104 23.2342 24.9895C23.2342 24.0687 23.4644 23.2525 23.9039 22.4781C24.3539 21.7037 24.9713 21.0863 25.7456 20.6364C26.52 20.1864 27.3676 19.9666 28.2571 19.9666C29.1465 19.9666 30.0256 20.1969 30.7894 20.6364C31.5488 21.0782 32.1771 21.7138 32.6102 22.4781C33.0602 23.2525 33.28 24.1001 33.28 24.9895L33.2904 24.9791Z" fill="#212121"/>
</g>
<defs>
<clipPath id="clip0_211_69">
<rect width="23.0739" height="32" fill="white" transform="translate(13 9)"/>
</clipPath>
</defs>
</svg>
