<svg xmlns="http://www.w3.org/2000/svg" viewBox="0 0 50 50" fill="#fff"><path d="M25 .6C11.2.6 0 11.8 0 25.6c0 11 7.2 20.4 17.1 23.7 1.3.2 1.7-.5 1.7-1.2v-4.3c-7 1.5-8.4-3.4-8.4-3.4-1.1-2.9-2.8-3.7-2.8-3.7-2.3-1.6.2-1.5.2-1.5 2.5.2 3.8 2.6 3.8 2.6 2.2 3.8 5.9 2.7 7.3 2.1.2-1.6.9-2.7 1.6-3.3C14.9 36 9 33.9 9 24.3c0-2.7 1-5 2.6-6.7-.3-.6-1.1-3.2.2-6.6 0 0 2.1-.7 6.9 2.6 2-.6 4.1-.8 6.3-.8 2.1 0 4.3.3 6.3.8 4.8-3.2 6.9-2.6 6.9-2.6 1.4 3.4.5 6 .2 6.6 1.6 1.7 2.6 4 2.6 6.7 0 9.6-5.8 11.7-11.4 12.3.9.8 1.7 2.3 1.7 4.6v6.9c0 .7.5 1.4 1.7 1.2 9.8-3.3 17-12.6 17-23.7 0-13.8-11.2-25-25-25z"/></svg>