<svg width="50" height="50" viewBox="0 0 50 50" fill="none" xmlns="http://www.w3.org/2000/svg">
<path d="M25 50C38.8071 50 50 38.8071 50 25C50 11.1929 38.8071 0 25 0C11.1929 0 0 11.1929 0 25C0 38.8071 11.1929 50 25 50Z" fill="#212121"/>
<path d="M16.52 16.736V14H27.54C29.8707 14 31.6947 14.608 33.012 15.824C34.3293 17.04 34.988 18.9147 34.988 21.448V33.152C34.988 34.0133 34.7093 34.7227 34.152 35.28C33.62 35.8373 32.9233 36.116 32.062 36.116H29.022C28.0847 36.116 27.4007 35.8753 26.97 35.394C26.5393 34.8873 26.324 34.292 26.324 33.608H25.868C25.564 34.5707 25.0447 35.318 24.31 35.85C23.6007 36.382 22.6507 36.648 21.46 36.648C20.5227 36.648 19.6613 36.458 18.876 36.078C18.0907 35.698 17.4067 35.1533 16.824 34.444C16.2667 33.7347 15.8233 32.8733 15.494 31.86C15.1647 30.8213 15 29.6687 15 28.402V27.718C15 26.4513 15.1647 25.3113 15.494 24.298C15.8233 23.2847 16.2667 22.4233 16.824 21.714C17.4067 20.9793 18.0907 20.422 18.876 20.042C19.6613 19.662 20.4973 19.472 21.384 19.472C22.5493 19.472 23.436 19.7 24.044 20.156C24.6773 20.5867 25.2093 21.22 25.64 22.056H26.096V20.004H29.06V32.24C29.06 33 29.402 33.38 30.086 33.38H30.998C31.682 33.38 32.024 33 32.024 32.24V21.752C32.024 20.1053 31.6313 18.864 30.846 18.028C30.086 17.1667 28.8827 16.736 27.236 16.736H16.52ZM22.03 33.836C22.79 33.836 23.4233 33.6967 23.93 33.418C24.462 33.1393 24.88 32.7593 25.184 32.278C25.5133 31.7713 25.7413 31.1887 25.868 30.53C26.02 29.8713 26.096 29.162 26.096 28.402V27.718C26.096 27.0087 26.02 26.3247 25.868 25.666C25.7413 25.0073 25.5133 24.4247 25.184 23.918C24.88 23.4113 24.462 23.0187 23.93 22.74C23.4233 22.436 22.79 22.284 22.03 22.284C21.3967 22.284 20.8267 22.4233 20.32 22.702C19.8133 22.9807 19.3827 23.3733 19.028 23.88C18.6987 24.3613 18.4327 24.9313 18.23 25.59C18.0527 26.2487 17.964 26.958 17.964 27.718V28.402C17.964 29.998 18.3187 31.3027 19.028 32.316C19.7373 33.3293 20.738 33.836 22.03 33.836Z" fill="#E3DBD7"/>
</svg>
