<svg xmlns="http://www.w3.org/2000/svg" viewBox="0 0 58.1 71.45" fill="#FFEFD1"><path d="M56.5 11.27a16.8 16.8 0 0 0-4.65-5.95 21.8 21.8 0 0 0-7.45-3.9A32.25 32.25 0 0 0 34.4 0a37.12 37.12 0 0 0-11.65 1.67 24.49 24.49 0 0 0-8.5 4.6 19 19 0 0 0-5.2 7A22 22 0 0 0 7.3 22a18.53 18.53 0 0 0 1.6 8 18.16 18.16 0 0 0 4.2 5.6 20 20 0 0 0 6 3.6A31.73 31.73 0 0 0 26 41q7.41 1.1 10.55 3.2a6.62 6.62 0 0 1 3.15 5.9 8.92 8.92 0 0 1-3.7 7.57q-3.8 2.74-10.4 2.75-6.09 0-9.15-2.7a9.59 9.59 0 0 1-3-7.5 21.31 21.31 0 0 1 .4-4.3l.4-1.7H1l-.5 2.3a22.24 22.24 0 0 0-.4 2.7 25 25 0 0 0-.1 2.6A22.3 22.3 0 0 0 1.5 60a18.54 18.54 0 0 0 4.55 6.65 22.27 22.27 0 0 0 7.75 4.5l.9.29 29.06-3.72c.69-.48 1.36-1 2-1.52a22.05 22.05 0 0 0 5.8-7.7 23.89 23.89 0 0 0 2-10.2q0-8.52-5.35-13T33.6 29.42q-6.6-1.11-9.55-3.1a6.3 6.3 0 0 1-2.95-5.5 6.86 6.86 0 0 1 1-3.7 8.14 8.14 0 0 1 2.7-2.65 12.54 12.54 0 0 1 3.9-1.55 19.52 19.52 0 0 1 4.5-.5c3.87 0 6.73.82 8.6 2.45a8 8 0 0 1 2.8 6.35 13.7 13.7 0 0 1-.3 2.7l-.3 1.3h13.2l.4-1.8a19.41 19.41 0 0 0 .4-2.5c.07-.73.1-1.47.1-2.2a17.08 17.08 0 0 0-1.6-7.45Z"/></svg>