<svg xmlns="http://www.w3.org/2000/svg" viewBox="0 0 100 100"><defs><style>.cls-1{fill:#fff;}.cls-2{fill:#f7931a;}</style></defs><g id="Layer_2" data-name="Layer 2"><g id="Ebene_1" data-name="Ebene 1"><rect class="cls-1" width="100" height="100"/><path d="M40.8,9.75A1.15,1.15,0,1,0,39.65,8.6,1.14,1.14,0,0,0,40.8,9.75Z"/><path d="M27,12.05a1.14,1.14,0,0,0,1.15-1.15V8.6a1.15,1.15,0,0,0-2.3,0v2.3A1.14,1.14,0,0,0,27,12.05Z"/><path d="M38.5,12.05a1.15,1.15,0,1,0-1.15-1.15A1.14,1.14,0,0,0,38.5,12.05Z"/><path d="M42,12.05V13.2a1.15,1.15,0,1,0,2.3,0,1.15,1.15,0,1,1,2.3,0,1.14,1.14,0,0,0,1.15,1.15,1.14,1.14,0,0,1,1.15,1.15v2.3A1.14,1.14,0,0,1,47.7,19a1.15,1.15,0,0,0,0,2.3,1.14,1.14,0,0,1,1.15,1.15v2.3a1.14,1.14,0,0,1-1.15,1.15,1.15,1.15,0,0,0,0,2.3,1.14,1.14,0,0,1,1.15,1.15A1.14,1.14,0,0,0,50,30.45h2.3a1.14,1.14,0,0,0,1.15-1.15,1.14,1.14,0,0,1,1.15-1.15A1.14,1.14,0,0,0,55.75,27a1.14,1.14,0,0,1,1.15-1.15,1.15,1.15,0,1,0,0-2.3,1.14,1.14,0,0,1-1.15-1.15V20.1A1.14,1.14,0,0,0,54.6,19a1.15,1.15,0,1,1,1.15-1.15,1.15,1.15,0,1,0,2.3,0,1.14,1.14,0,0,1,1.15-1.15h2.3a1.14,1.14,0,0,1,1.15,1.15A1.14,1.14,0,0,0,63.8,19,1.14,1.14,0,0,1,65,20.1a1.14,1.14,0,0,0,1.15,1.15,1.14,1.14,0,0,1,1.15,1.15v2.3a1.14,1.14,0,0,0,1.15,1.15h2.3a1.15,1.15,0,0,0,0-2.3,1.15,1.15,0,0,1,0-2.3,1.15,1.15,0,1,0,0-2.3H68.4a1.15,1.15,0,0,1,0-2.3h2.3a1.14,1.14,0,0,0,1.15-1.15A1.14,1.14,0,0,1,73,14.35a1.15,1.15,0,1,0,0-2.3,1.15,1.15,0,0,1,0-2.3,1.15,1.15,0,1,0,0-2.3H70.7A1.14,1.14,0,0,0,69.55,8.6,1.14,1.14,0,0,1,68.4,9.75a1.15,1.15,0,0,0,0,2.3,1.15,1.15,0,0,1,0,2.3H61.5a1.15,1.15,0,1,1,0-2.3,1.15,1.15,0,0,0,0-2.3H59.2A1.14,1.14,0,0,1,58.05,8.6a1.15,1.15,0,1,0-2.3,0,1.15,1.15,0,1,1-2.3,0,1.15,1.15,0,1,0-2.3,0,1.15,1.15,0,1,1-2.3,0A1.14,1.14,0,0,0,47.7,7.45H45.4A1.14,1.14,0,0,0,44.25,8.6,1.14,1.14,0,0,1,43.1,9.75,1.14,1.14,0,0,0,42,10.9Zm16.1,1.15a1.15,1.15,0,1,1-1.15-1.15A1.14,1.14,0,0,1,58.05,13.2Zm-4.6,0a1.15,1.15,0,1,1-1.15-1.15A1.14,1.14,0,0,1,53.45,13.2Zm-2.3,9.2a1.15,1.15,0,0,1,2.3,0v2.3a1.15,1.15,0,0,1-2.3,0V22.4Z"/><path d="M31.6,14.35a1.14,1.14,0,0,1,1.15,1.15,1.15,1.15,0,1,0,2.3,0V8.6A1.14,1.14,0,0,0,33.9,7.45H31.6A1.14,1.14,0,0,0,30.45,8.6v4.6A1.14,1.14,0,0,0,31.6,14.35Z"/><path d="M31.6,19a1.15,1.15,0,1,0-1.15-1.15A1.14,1.14,0,0,0,31.6,19Z"/><path d="M38.5,19a1.14,1.14,0,0,0,1.15-1.15V15.5a1.15,1.15,0,0,0-2.3,0v2.3A1.14,1.14,0,0,0,38.5,19Z"/><path d="M46.55,17.8V15.5a1.15,1.15,0,1,0-2.3,0,1.14,1.14,0,0,1-1.15,1.15,1.15,1.15,0,0,0,0,2.3h2.3A1.14,1.14,0,0,0,46.55,17.8Z"/><path d="M73,19a1.15,1.15,0,1,0-1.15-1.15A1.14,1.14,0,0,0,73,19Z"/><path d="M27,23.55a1.14,1.14,0,0,0,1.15-1.15,1.14,1.14,0,0,1,1.15-1.15,1.15,1.15,0,0,0,0-2.3,1.14,1.14,0,0,1-1.15-1.15V15.5a1.15,1.15,0,1,0-2.3,0v6.9A1.14,1.14,0,0,0,27,23.55Z"/><path d="M31.6,21.25a1.15,1.15,0,1,0,1.15,1.15A1.14,1.14,0,0,0,31.6,21.25Z"/><path d="M36.2,23.55a1.15,1.15,0,1,0-1.15-1.15A1.14,1.14,0,0,0,36.2,23.55Z"/><path d="M40.8,21.25A1.15,1.15,0,1,0,42,22.4,1.14,1.14,0,0,0,40.8,21.25Z"/><path d="M45.4,23.55a1.15,1.15,0,1,0-1.15-1.15A1.14,1.14,0,0,0,45.4,23.55Z"/><path d="M59.2,23.55a1.14,1.14,0,0,0,1.15-1.15V20.1a1.15,1.15,0,1,0-2.3,0v2.3A1.14,1.14,0,0,0,59.2,23.55Z"/><path d="M63.8,21.25A1.15,1.15,0,1,0,65,22.4,1.14,1.14,0,0,0,63.8,21.25Z"/><path d="M73,23.55a1.15,1.15,0,1,0-1.15-1.15A1.14,1.14,0,0,0,73,23.55Z"/><circle cx="15.5" cy="27" r="1.15"/><path d="M22.4,28.15A1.15,1.15,0,1,0,21.25,27,1.14,1.14,0,0,0,22.4,28.15Z"/><path d="M61.5,28.15A1.14,1.14,0,0,0,62.65,27V24.7a1.15,1.15,0,0,0-2.3,0,1.14,1.14,0,0,1-1.15,1.15,1.15,1.15,0,0,0,0,2.3h2.3Z"/><path d="M70.7,28.15H66.1a1.15,1.15,0,1,0,0,2.3h2.3a1.14,1.14,0,0,1,1.15,1.15,1.15,1.15,0,1,0,2.3,0A1.14,1.14,0,0,1,73,30.45a1.14,1.14,0,0,0,1.15-1.15V27a1.15,1.15,0,0,0-2.3,0A1.14,1.14,0,0,1,70.7,28.15Z"/><path d="M91.4,25.85H89.1a1.15,1.15,0,1,0,0,2.3,1.14,1.14,0,0,1,1.15,1.15v4.6a1.15,1.15,0,0,1-2.3,0V31.6a1.14,1.14,0,0,0-1.15-1.15,1.14,1.14,0,0,1-1.15-1.15V27a1.14,1.14,0,0,0-1.15-1.15H79.9A1.14,1.14,0,0,0,78.75,27v2.3a1.15,1.15,0,1,0,2.3,0,1.15,1.15,0,1,1,1.15,1.15,1.14,1.14,0,0,0-1.15,1.15,1.14,1.14,0,0,1-1.15,1.15,1.15,1.15,0,0,0,0,2.3h2.3a1.14,1.14,0,0,1,1.15,1.15v2.3a1.14,1.14,0,0,0,1.15,1.15h2.3A1.14,1.14,0,0,0,88,38.5a1.14,1.14,0,0,1,1.15-1.15h2.3a1.14,1.14,0,0,0,1.15-1.15V27A1.14,1.14,0,0,0,91.4,25.85Z"/><path d="M20.1,28.15H17.8a1.15,1.15,0,0,0,0,2.3h2.3a1.15,1.15,0,0,0,0-2.3Z"/><path d="M24.7,30.45a1.14,1.14,0,0,1,1.15,1.15v4.6a1.14,1.14,0,0,1-1.15,1.15,1.15,1.15,0,0,0,0,2.3H27A1.15,1.15,0,1,1,27,42a1.15,1.15,0,1,0,0,2.3h2.3a1.14,1.14,0,0,0,1.15-1.15A1.14,1.14,0,0,1,31.6,42a1.14,1.14,0,0,0,1.15-1.15V38.5a1.14,1.14,0,0,0-1.15-1.15H29.3a1.15,1.15,0,0,1,0-2.3h2.3a1.14,1.14,0,0,0,1.15-1.15,1.14,1.14,0,0,1,1.15-1.15h2.3a1.14,1.14,0,0,0,1.15-1.15V29.3a1.15,1.15,0,1,1,2.3,0,1.14,1.14,0,0,0,1.15,1.15A1.14,1.14,0,0,1,42,31.6a1.14,1.14,0,0,0,1.15,1.15h4.6a1.15,1.15,0,0,0,0-2.3,1.14,1.14,0,0,1-1.15-1.15,1.14,1.14,0,0,0-1.15-1.15A1.14,1.14,0,0,1,44.25,27a1.14,1.14,0,0,0-1.15-1.15H40.8a1.14,1.14,0,0,1-1.15-1.15,1.15,1.15,0,0,0-2.3,0,1.15,1.15,0,1,1-2.3,0,1.15,1.15,0,1,0-2.3,0,1.14,1.14,0,0,1-1.15,1.15,1.15,1.15,0,0,0,0,2.3,1.15,1.15,0,0,1,0,2.3,1.14,1.14,0,0,0-1.15,1.15,1.15,1.15,0,1,1-1.15-1.15,1.15,1.15,0,0,0,0-2.3H24.7a1.15,1.15,0,0,0,0,2.3Z"/><path d="M13.2,30.45H10.9A1.14,1.14,0,0,1,9.75,29.3a1.15,1.15,0,1,0-2.3,0V45.4a1.15,1.15,0,0,0,2.3,0V43.1A1.14,1.14,0,0,1,10.9,42h2.3a1.14,1.14,0,0,0,1.15-1.15V38.5a1.15,1.15,0,0,0-2.3,0,1.15,1.15,0,0,1-2.3,0V36.2a1.14,1.14,0,0,1,1.15-1.15,1.14,1.14,0,0,0,1.15-1.15,1.14,1.14,0,0,1,1.15-1.15,1.15,1.15,0,0,0,0-2.3Z"/><path d="M22.4,32.75a1.15,1.15,0,1,0-1.15-1.15A1.14,1.14,0,0,0,22.4,32.75Z"/><path d="M59.2,30.45H56.9a1.15,1.15,0,0,0,0,2.3h2.3a1.15,1.15,0,0,0,0-2.3Z"/><path d="M75.3,32.75h2.3a1.15,1.15,0,1,0,0-2.3H75.3a1.15,1.15,0,1,0,0,2.3Z"/><path d="M73,32.75a1.15,1.15,0,1,0,1.15,1.15A1.14,1.14,0,0,0,73,32.75Z"/><path d="M15.5,37.35a1.14,1.14,0,0,1,1.15,1.15,1.14,1.14,0,0,0,1.15,1.15A1.14,1.14,0,0,1,19,40.8v2.3a1.14,1.14,0,0,1-1.15,1.15H15.5a1.14,1.14,0,0,0-1.15,1.15v2.3a1.15,1.15,0,1,0,2.3,0,1.14,1.14,0,0,1,1.15-1.15h4.6a1.14,1.14,0,0,1,1.15,1.15,1.14,1.14,0,0,0,1.15,1.15H27a1.15,1.15,0,0,0,0-2.3,1.14,1.14,0,0,1-1.15-1.15,1.14,1.14,0,0,0-1.15-1.15H22.4a1.15,1.15,0,0,1,0-2.3,1.15,1.15,0,1,0,0-2.3,1.14,1.14,0,0,1-1.15-1.15,1.14,1.14,0,0,0-1.15-1.15A1.14,1.14,0,0,1,19,36.2a1.14,1.14,0,0,0-1.15-1.15H15.5a1.15,1.15,0,0,0,0,2.3Z"/><path d="M22.4,35.05a1.15,1.15,0,1,0,1.15,1.15A1.14,1.14,0,0,0,22.4,35.05Z"/><path d="M77.6,35.05H75.3a1.14,1.14,0,0,0-1.15,1.15,1.15,1.15,0,1,1-2.3,0,1.14,1.14,0,0,0-1.15-1.15,1.14,1.14,0,0,1-1.15-1.15,1.15,1.15,0,1,0-2.3,0v2.3a1.14,1.14,0,0,0,1.15,1.15,1.15,1.15,0,0,1,0,2.3,1.15,1.15,0,1,0,0,2.3,1.14,1.14,0,0,1,1.15,1.15,1.14,1.14,0,0,0,1.15,1.15H73a1.14,1.14,0,0,1,1.15,1.15,1.14,1.14,0,0,0,1.15,1.15h2.3a1.14,1.14,0,0,1,1.15,1.15,1.15,1.15,0,1,0,2.3,0V45.4a1.14,1.14,0,0,0-1.15-1.15H77.6a1.14,1.14,0,0,1-1.15-1.15A1.14,1.14,0,0,0,75.3,42H73a1.15,1.15,0,1,1,0-2.3h2.3a1.14,1.14,0,0,0,1.15-1.15,1.14,1.14,0,0,1,1.15-1.15,1.15,1.15,0,0,0,0-2.3Z"/><path d="M77.6,39.65a1.15,1.15,0,1,0,1.15,1.15A1.14,1.14,0,0,0,77.6,39.65Z"/><path d="M82.2,42a1.15,1.15,0,1,0-1.15-1.15A1.14,1.14,0,0,0,82.2,42Z"/><path d="M89.1,42A1.15,1.15,0,1,0,88,40.8,1.14,1.14,0,0,0,89.1,42Z"/><path d="M91.4,42a1.14,1.14,0,0,0-1.15,1.15v2.3a1.15,1.15,0,1,0,2.3,0V43.1A1.14,1.14,0,0,0,91.4,42Z"/><path d="M31.6,46.55a1.15,1.15,0,1,0-1.15-1.15A1.14,1.14,0,0,0,31.6,46.55Z"/><path d="M68.4,44.25a1.15,1.15,0,1,0,1.15,1.15A1.14,1.14,0,0,0,68.4,44.25Z"/><path d="M22.4,48.85H17.8a1.15,1.15,0,0,0,0,2.3h4.6a1.15,1.15,0,1,0,0-2.3Z"/><path d="M31.6,51.15A1.15,1.15,0,1,0,30.45,50,1.14,1.14,0,0,0,31.6,51.15Z"/><path d="M91.4,48.85H89.1A1.14,1.14,0,0,0,88,50v2.3a1.15,1.15,0,0,1-2.3,0V43.1a1.15,1.15,0,0,0-2.3,0v9.2a1.14,1.14,0,0,1-1.15,1.15,1.15,1.15,0,0,0,0,2.3h6.9a1.14,1.14,0,0,0,1.15-1.15,1.14,1.14,0,0,1,1.15-1.15,1.14,1.14,0,0,0,1.15-1.15V50A1.14,1.14,0,0,0,91.4,48.85Z"/><path d="M68.4,51.15a1.15,1.15,0,1,0,1.15,1.15A1.14,1.14,0,0,0,68.4,51.15Z"/><path d="M75.3,53.45a1.14,1.14,0,0,0,1.15-1.15,1.14,1.14,0,0,1,1.15-1.15,1.15,1.15,0,1,0,0-2.3H75.3A1.14,1.14,0,0,0,74.15,50,1.14,1.14,0,0,1,73,51.15a1.15,1.15,0,1,0,0,2.3h2.3Z"/><path d="M79.9,53.45a1.15,1.15,0,1,0-1.15-1.15A1.14,1.14,0,0,0,79.9,53.45Z"/><path d="M22.4,53.45a1.15,1.15,0,1,0,1.15,1.15A1.14,1.14,0,0,0,22.4,53.45Z"/><path d="M7.45,58.05V59.2a1.15,1.15,0,0,0,2.3,0,1.14,1.14,0,0,1,1.15-1.15h2.3a1.14,1.14,0,0,0,1.15-1.15V50a1.14,1.14,0,0,0-1.15-1.15H10.9A1.14,1.14,0,0,0,9.75,50v4.6A1.14,1.14,0,0,1,8.6,55.75,1.14,1.14,0,0,0,7.45,56.9Z"/><path d="M68.4,55.75a1.15,1.15,0,1,0,1.15,1.15A1.14,1.14,0,0,0,68.4,55.75Z"/><path d="M91.4,55.75a1.15,1.15,0,1,0,1.15,1.15A1.14,1.14,0,0,0,91.4,55.75Z"/><path d="M15.5,58.05a1.15,1.15,0,1,0,1.15,1.15A1.14,1.14,0,0,0,15.5,58.05Z"/><path d="M22.4,58.05a1.14,1.14,0,0,1-1.15-1.15,1.14,1.14,0,0,0-1.15-1.15H17.8a1.15,1.15,0,0,0,0,2.3A1.14,1.14,0,0,1,19,59.2a1.14,1.14,0,0,0,1.15,1.15h2.3a1.15,1.15,0,1,0,0-2.3Z"/><path d="M10.9,62.65A1.15,1.15,0,1,0,9.75,61.5,1.14,1.14,0,0,0,10.9,62.65Z"/><path d="M24.7,62.65H27a1.14,1.14,0,0,0,1.15-1.15,1.14,1.14,0,0,1,1.15-1.15h2.3a1.15,1.15,0,0,0,0-2.3H29.3a1.15,1.15,0,0,1,0-2.3h2.3a1.15,1.15,0,0,0,0-2.3,1.14,1.14,0,0,1-1.15-1.15,1.14,1.14,0,0,0-1.15-1.15H24.7a1.15,1.15,0,1,0,0,2.3,1.14,1.14,0,0,1,1.15,1.15v4.6a1.14,1.14,0,0,1-1.15,1.15,1.15,1.15,0,0,0,0,2.3Z"/><path d="M73,60.35a1.14,1.14,0,0,1-1.15-1.15,1.15,1.15,0,1,0-2.3,0,1.14,1.14,0,0,1-1.15,1.15,1.15,1.15,0,0,0,0,2.3H73a1.15,1.15,0,1,0,0-2.3Z"/><path d="M77.6,62.65a1.15,1.15,0,1,0-1.15-1.15A1.14,1.14,0,0,0,77.6,62.65Z"/><path d="M22.4,62.65a1.15,1.15,0,1,0,1.15,1.15A1.14,1.14,0,0,0,22.4,62.65Z"/><path d="M91.4,62.65H89.1A1.14,1.14,0,0,0,88,63.8a1.15,1.15,0,1,1-1.15-1.15,1.15,1.15,0,1,0,0-2.3H84.5a1.14,1.14,0,0,1-1.15-1.15,1.14,1.14,0,0,0-1.15-1.15,1.14,1.14,0,0,1-1.15-1.15,1.14,1.14,0,0,0-1.15-1.15H75.3a1.14,1.14,0,0,0-1.15,1.15v2.3a1.15,1.15,0,0,0,2.3,0,1.15,1.15,0,0,1,2.3,0,1.14,1.14,0,0,0,1.15,1.15,1.14,1.14,0,0,1,1.15,1.15v2.3A1.14,1.14,0,0,1,79.9,65a1.15,1.15,0,1,0,0,2.3,1.14,1.14,0,0,1,1.15,1.15v2.3a1.15,1.15,0,1,1-2.3,0V68.4a1.15,1.15,0,1,0-2.3,0,1.14,1.14,0,0,1-1.15,1.15,1.14,1.14,0,0,0-1.15,1.15A1.14,1.14,0,0,1,73,71.85,1.14,1.14,0,0,0,71.85,73a1.14,1.14,0,0,1-1.15,1.15H63.8A1.14,1.14,0,0,1,62.65,73a1.15,1.15,0,1,0-2.3,0,1.14,1.14,0,0,1-1.15,1.15H56.9A1.14,1.14,0,0,1,55.75,73a1.15,1.15,0,1,0-2.3,0v4.6a1.14,1.14,0,0,1-1.15,1.15,1.14,1.14,0,0,0-1.15,1.15A1.14,1.14,0,0,1,50,81.05a1.14,1.14,0,0,0-1.15,1.15,1.14,1.14,0,0,1-1.15,1.15H45.4a1.14,1.14,0,0,0-1.15,1.15,1.14,1.14,0,0,1-1.15,1.15A1.14,1.14,0,0,0,42,86.8v2.3a1.15,1.15,0,0,1-2.3,0A1.14,1.14,0,0,0,38.5,88H36.2a1.15,1.15,0,1,0,0,2.3,1.14,1.14,0,0,1,1.15,1.15,1.14,1.14,0,0,0,1.15,1.15h4.6a1.14,1.14,0,0,0,1.15-1.15V89.1A1.14,1.14,0,0,1,45.4,88a1.14,1.14,0,0,0,1.15-1.15,1.15,1.15,0,0,1,2.3,0A1.14,1.14,0,0,0,50,88a1.14,1.14,0,0,1,1.15,1.15v2.3a1.15,1.15,0,1,0,2.3,0V86.8a1.14,1.14,0,0,1,1.15-1.15,1.14,1.14,0,0,0,1.15-1.15,1.14,1.14,0,0,1,1.15-1.15,1.15,1.15,0,0,0,0-2.3,1.15,1.15,0,0,1,0-2.3,1.14,1.14,0,0,0,1.15-1.15,1.14,1.14,0,0,1,1.15-1.15h2.3a1.14,1.14,0,0,1,1.15,1.15v2.3a1.14,1.14,0,0,0,1.15,1.15h2.3a1.14,1.14,0,0,0,1.15-1.15V77.6a1.15,1.15,0,0,1,2.3,0,1.14,1.14,0,0,0,1.15,1.15,1.15,1.15,0,0,1,0,2.3,1.14,1.14,0,0,0-1.15,1.15v6.9a1.14,1.14,0,0,1-1.15,1.15H63.8a1.15,1.15,0,0,0,0,2.3H75.3a1.14,1.14,0,0,0,1.15-1.15V89.1A1.14,1.14,0,0,0,75.3,88H73a1.14,1.14,0,0,1-1.15-1.15V84.5a1.15,1.15,0,0,1,2.3,0,1.15,1.15,0,0,0,2.3,0,1.15,1.15,0,1,1,2.3,0v2.3a1.15,1.15,0,0,0,2.3,0,1.14,1.14,0,0,1,1.15-1.15,1.14,1.14,0,0,0,1.15-1.15,1.14,1.14,0,0,1,1.15-1.15h6.9a1.14,1.14,0,0,0,1.15-1.15V77.6a1.15,1.15,0,0,0-2.3,0v2.3a1.15,1.15,0,0,1-2.3,0,1.14,1.14,0,0,0-1.15-1.15,1.14,1.14,0,0,1-1.15-1.15V75.3a1.14,1.14,0,0,0-1.15-1.15,1.15,1.15,0,0,1,0-2.3,1.15,1.15,0,0,0,0-2.3,1.15,1.15,0,1,1,1.15-1.15,1.15,1.15,0,1,0,2.3,0,1.14,1.14,0,0,1,1.15-1.15,1.14,1.14,0,0,0,1.15-1.15A1.14,1.14,0,0,1,91.4,65a1.15,1.15,0,0,0,0-2.3Zm-15,18.4H75.3a1.14,1.14,0,0,1-1.15-1.15V75.3a1.14,1.14,0,0,1,1.15-1.15h4.6a1.14,1.14,0,0,1,1.15,1.15v4.6a1.14,1.14,0,0,1-1.15,1.15H76.45Z"/><path d="M10.9,67.25h2.3a1.15,1.15,0,0,0,0-2.3H10.9a1.15,1.15,0,1,0,0,2.3Z"/><path d="M16.65,66.1a1.15,1.15,0,0,0,2.3,0V63.8a1.15,1.15,0,1,0-2.3,0v2.3Z"/><path d="M29.3,67.25a1.14,1.14,0,0,0,1.15-1.15A1.14,1.14,0,0,1,31.6,65a1.15,1.15,0,1,0,0-2.3H29.3a1.14,1.14,0,0,0-1.15,1.15v2.3A1.14,1.14,0,0,0,29.3,67.25Z"/><path d="M74.15,67.25H75.3a1.14,1.14,0,0,0,1.15-1.15V63.8a1.15,1.15,0,0,0-2.3,0A1.14,1.14,0,0,1,73,65H70.7a1.15,1.15,0,0,0,0,2.3h3.45Z"/><path d="M8.6,69.55A1.15,1.15,0,1,0,7.45,68.4,1.14,1.14,0,0,0,8.6,69.55Z"/><path d="M22.4,67.25a1.15,1.15,0,1,0,1.15,1.15A1.14,1.14,0,0,0,22.4,67.25Z"/><path d="M36.2,69.55a1.15,1.15,0,1,0-1.15-1.15A1.14,1.14,0,0,0,36.2,69.55Z"/><path d="M91.4,67.25a1.14,1.14,0,0,0-1.15,1.15,1.14,1.14,0,0,1-1.15,1.15A1.14,1.14,0,0,0,88,70.7v4.6a1.15,1.15,0,0,0,2.3,0,1.14,1.14,0,0,1,1.15-1.15A1.14,1.14,0,0,0,92.55,73V68.4A1.14,1.14,0,0,0,91.4,67.25Z"/><path d="M31.6,71.85a1.15,1.15,0,1,0-1.15-1.15A1.14,1.14,0,0,0,31.6,71.85Z"/><path d="M59.2,69.55a1.14,1.14,0,0,1-1.15-1.15,1.14,1.14,0,0,0-1.15-1.15H54.6a1.15,1.15,0,0,0,0,2.3,1.14,1.14,0,0,1,1.15,1.15,1.14,1.14,0,0,0,1.15,1.15h2.3a1.15,1.15,0,0,0,0-2.3Z"/><path d="M63.8,71.85h2.3a1.14,1.14,0,0,0,1.15-1.15,1.14,1.14,0,0,1,1.15-1.15,1.15,1.15,0,0,0,0-2.3H63.8a1.14,1.14,0,0,0-1.15,1.15v2.3A1.14,1.14,0,0,0,63.8,71.85Z"/><path d="M70.7,71.85a1.15,1.15,0,1,0-1.15-1.15A1.14,1.14,0,0,0,70.7,71.85Z"/><path d="M8.6,74.15h2.3A1.14,1.14,0,0,0,12.05,73a1.15,1.15,0,1,1,2.3,0,1.14,1.14,0,0,0,1.15,1.15h6.9a1.15,1.15,0,0,0,0-2.3,1.14,1.14,0,0,1-1.15-1.15,1.15,1.15,0,1,0-2.3,0,1.15,1.15,0,0,1-2.3,0V68.4a1.15,1.15,0,1,0-2.3,0,1.14,1.14,0,0,1-1.15,1.15H10.9A1.14,1.14,0,0,0,9.75,70.7,1.14,1.14,0,0,1,8.6,71.85a1.15,1.15,0,1,0,0,2.3Z"/><path d="M25.85,74.15V75.3a1.15,1.15,0,0,0,2.3,0,1.14,1.14,0,0,1,1.15-1.15,1.15,1.15,0,0,0,0-2.3,1.14,1.14,0,0,1-1.15-1.15A1.14,1.14,0,0,0,27,69.55H24.7a1.15,1.15,0,0,0,0,2.3A1.14,1.14,0,0,1,25.85,73Z"/><path d="M33.9,74.15A1.15,1.15,0,1,0,32.75,73,1.14,1.14,0,0,0,33.9,74.15Z"/><path d="M43.1,74.15A1.14,1.14,0,0,0,44.25,73V68.4a1.14,1.14,0,0,0-1.15-1.15H40.8a1.14,1.14,0,0,0-1.15,1.15v2.3a1.14,1.14,0,0,0,1.15,1.15A1.14,1.14,0,0,1,42,73,1.14,1.14,0,0,0,43.1,74.15Z"/><path d="M31.6,76.45a1.15,1.15,0,1,0-1.15-1.15A1.14,1.14,0,0,0,31.6,76.45Z"/><path d="M38.5,74.15H36.2a1.14,1.14,0,0,0-1.15,1.15,1.14,1.14,0,0,1-1.15,1.15,1.15,1.15,0,1,0,0,2.3,1.14,1.14,0,0,1,1.15,1.15,1.15,1.15,0,0,0,2.3,0V77.6a1.14,1.14,0,0,1,1.15-1.15,1.15,1.15,0,1,0,0-2.3Z"/><path d="M29.3,76.45a1.14,1.14,0,0,0-1.15,1.15v2.3a1.15,1.15,0,0,0,2.3,0V77.6A1.14,1.14,0,0,0,29.3,76.45Z"/><path d="M77.6,76.45a1.15,1.15,0,1,0,1.15,1.15A1.14,1.14,0,0,0,77.6,76.45Z"/><path d="M59.2,81.05a1.15,1.15,0,1,0-1.15-1.15A1.14,1.14,0,0,0,59.2,81.05Z"/><path d="M33.9,81.05a1.15,1.15,0,1,0,1.15,1.15A1.14,1.14,0,0,0,33.9,81.05Z"/><path d="M43.1,83.35a1.14,1.14,0,0,0,1.15-1.15,1.14,1.14,0,0,1,1.15-1.15h2.3a1.14,1.14,0,0,0,1.15-1.15A1.14,1.14,0,0,1,50,78.75a1.14,1.14,0,0,0,1.15-1.15V68.4A1.14,1.14,0,0,0,50,67.25H47.7a1.14,1.14,0,0,0-1.15,1.15v2.3a1.14,1.14,0,0,0,1.15,1.15,1.15,1.15,0,0,1,0,2.3H45.4a1.15,1.15,0,1,0,0,2.3,1.15,1.15,0,1,1-1.15,1.15,1.15,1.15,0,0,0-2.3,0v4.6A1.14,1.14,0,0,0,43.1,83.35Z"/><path d="M36.2,85.65h2.3a1.14,1.14,0,0,0,1.15-1.15V82.2a1.15,1.15,0,1,0-2.3,0,1.14,1.14,0,0,1-1.15,1.15,1.15,1.15,0,0,0,0,2.3Z"/><path d="M62.65,83.35V82.2a1.15,1.15,0,1,0-2.3,0,1.14,1.14,0,0,1-1.15,1.15,1.14,1.14,0,0,0-1.15,1.15v2.3a1.15,1.15,0,0,0,2.3,0,1.14,1.14,0,0,1,1.15-1.15,1.14,1.14,0,0,0,1.15-1.15Z"/><path d="M67.25,84.5a1.15,1.15,0,1,0-1.15,1.15A1.14,1.14,0,0,0,67.25,84.5Z"/><path d="M32.75,85.65V84.5a1.14,1.14,0,0,0-1.15-1.15H27a1.15,1.15,0,1,0,0,2.3,1.14,1.14,0,0,1,1.15,1.15A1.14,1.14,0,0,0,29.3,88h2.3a1.14,1.14,0,0,0,1.15-1.15Z"/><path d="M91.4,85.65a1.14,1.14,0,0,0-1.15,1.15A1.14,1.14,0,0,1,89.1,88H86.8a1.15,1.15,0,1,0,0,2.3A1.14,1.14,0,0,1,88,91.4a1.14,1.14,0,0,0,1.15,1.15h2.3a1.14,1.14,0,0,0,1.15-1.15V86.8A1.14,1.14,0,0,0,91.4,85.65Z"/><path d="M47.7,88a1.14,1.14,0,0,0-1.15,1.15v2.3a1.15,1.15,0,1,0,2.3,0V89.1A1.14,1.14,0,0,0,47.7,88Z"/><path d="M29.3,90.25a1.15,1.15,0,1,0,1.15,1.15A1.14,1.14,0,0,0,29.3,90.25Z"/><path d="M33.9,90.25a1.15,1.15,0,1,0,1.15,1.15A1.14,1.14,0,0,0,33.9,90.25Z"/><path d="M59.2,90.25a1.15,1.15,0,1,0,1.15,1.15A1.14,1.14,0,0,0,59.2,90.25Z"/><path d="M82.2,90.25H79.9a1.15,1.15,0,0,0,0,2.3h2.3a1.15,1.15,0,0,0,0-2.3Z"/><path d="M7.94,23.55H23.06a.49.49,0,0,0,.49-.49V7.94a.49.49,0,0,0-.49-.49H7.94a.49.49,0,0,0-.49.49V23.06A.49.49,0,0,0,7.94,23.55ZM9.75,19V10A.28.28,0,0,1,10,9.75H21a.28.28,0,0,1,.28.28V21a.28.28,0,0,1-.28.28H10A.28.28,0,0,1,9.75,21Z"/><path d="M12.54,19h5.92a.49.49,0,0,0,.49-.49V12.54a.49.49,0,0,0-.49-.49H12.54a.49.49,0,0,0-.49.49v5.92A.49.49,0,0,0,12.54,19Z"/><path d="M92.06,7.45H76.94a.49.49,0,0,0-.49.49V23.06a.49.49,0,0,0,.49.49H92.06a.49.49,0,0,0,.49-.49V7.94A.49.49,0,0,0,92.06,7.45Zm-1.81,4.6V21a.28.28,0,0,1-.28.28H79a.28.28,0,0,1-.28-.28V10A.28.28,0,0,1,79,9.75H90a.28.28,0,0,1,.28.28Z"/><path d="M87.46,12.05H81.54a.49.49,0,0,0-.49.49v5.92a.49.49,0,0,0,.49.49h5.92a.49.49,0,0,0,.49-.49V12.54A.49.49,0,0,0,87.46,12.05Z"/><path d="M23.06,76.45H7.94a.49.49,0,0,0-.49.49V92.06a.49.49,0,0,0,.49.49H23.06a.49.49,0,0,0,.49-.49V76.94A.49.49,0,0,0,23.06,76.45Zm-1.81,4.6V90a.28.28,0,0,1-.28.28H10A.28.28,0,0,1,9.75,90V79a.28.28,0,0,1,.28-.28H21a.28.28,0,0,1,.28.28Z"/><path d="M18.46,81.05H12.54a.49.49,0,0,0-.49.49v5.92a.49.49,0,0,0,.49.49h5.92a.49.49,0,0,0,.49-.49V81.54A.49.49,0,0,0,18.46,81.05Z"/><path class="cls-2" d="M61.71,52.92a12.07,12.07,0,1,1-8.79-14.63A12.06,12.06,0,0,1,61.71,52.92Z"/><path class="cls-1" d="M55.33,48.28c.23-1.61-1-2.47-2.66-3.05l.55-2.17-1.32-.32-.54,2.11L50.3,44.6l.53-2.13-1.33-.33L49,44.32l-.84-.2h0l-1.83-.46-.35,1.42s1,.22,1,.24a.7.7,0,0,1,.62.77l-.62,2.48.14,0-.14,0L46,52a.48.48,0,0,1-.6.32h0s-1-.24-1-.24l-.65,1.52,1.72.42.95.25-.55,2.2,1.33.32.54-2.18,1.05.28-.55,2.15,1.33.33.55-2.2c2.25.43,4,.25,4.67-1.79a2.33,2.33,0,0,0-1.22-3.22,2.12,2.12,0,0,0,1.7-1.93Zm-3,4.24c-.41,1.65-3.18.76-4.08.54L49,50.14C49.85,50.36,52.72,50.81,52.3,52.52Zm.41-4.27c-.38,1.5-2.68.74-3.43.56l.66-2.65C50.69,46.35,53.09,46.7,52.71,48.25Z"/></g></g></svg>