<svg xmlns="http://www.w3.org/2000/svg" viewBox="0 0 100 100"><defs><style>.cls-1{fill:#fff;}.cls-2{fill:#f26822;}.cls-3{fill:#4d4d4d;}</style></defs><g id="Layer_2" data-name="Layer 2"><g id="Ebene_1" data-name="Ebene 1"><rect class="cls-1" width="100" height="100"/><path d="M21.2,7.7a.9.9,0,1,0-.9-.9A.9.9,0,0,0,21.2,7.7Z"/><path d="M46.4,7.7H50a.9.9,0,0,0,0-1.8H46.4a.9.9,0,1,0,0,1.8Z"/><path d="M71.6,7.7a.9.9,0,1,0-.9-.9A.9.9,0,0,0,71.6,7.7Z"/><path d="M23,9.5h1.8a.9.9,0,0,0,.9-.9.9.9,0,0,1,.9-.9.9.9,0,1,0,0-1.8H24.8a.9.9,0,0,0-.9.9.9.9,0,0,1-.9.9.9.9,0,0,0,0,1.8Z"/><path d="M73.4,9.5h1.8a.9.9,0,0,1,.9.9v1.8a.9.9,0,1,0,1.8,0,.9.9,0,0,1,.9-.9.9.9,0,0,0,.9-.9V6.8a.9.9,0,0,0-1.8,0,.9.9,0,0,1-.9.9H73.4a.9.9,0,0,0,0,1.8Z"/><path d="M26.6,11.3a.9.9,0,0,0,0,1.8h1.8a.9.9,0,0,0,.9-.9.9.9,0,1,1,.9.9.9.9,0,1,0,0,1.8.9.9,0,0,1,.9.9v1.8a.9.9,0,0,0,1.8,0,.9.9,0,0,1,.9-.9.9.9,0,0,0,0-1.8.9.9,0,1,1,0-1.8.9.9,0,0,0,.9-.9.9.9,0,0,1,.9-.9.9.9,0,0,0,.9-.9V6.8a.9.9,0,1,0-1.8,0,.9.9,0,0,1-1.8,0,.9.9,0,0,0-1.8,0,.9.9,0,0,1-.9.9.9.9,0,0,0-.9.9.9.9,0,0,1-.9.9.9.9,0,0,0-.9.9A.9.9,0,0,1,26.6,11.3Z"/><path d="M55.4,11.3a.9.9,0,0,1,.9.9.9.9,0,1,0,1.8,0V8.6a.9.9,0,0,1,.9-.9h3.6a.9.9,0,0,0,0-1.8H55.4a.9.9,0,0,0-.9.9v3.6A.9.9,0,0,0,55.4,11.3Z"/><path d="M60.8,9.5a.9.9,0,1,0,.9.9A.9.9,0,0,0,60.8,9.5Z"/><path d="M21.2,13.1a.9.9,0,0,1,.9.9.9.9,0,0,0,.9.9.9.9,0,0,1,.9.9v3.6a.9.9,0,1,0,1.8,0V14a.9.9,0,0,0-.9-.9.9.9,0,0,1-.9-.9.9.9,0,0,0-.9-.9.9.9,0,0,1-.9-.9.9.9,0,1,0-1.8,0v1.8A.9.9,0,0,0,21.2,13.1Z"/><path d="M39.2,13.1a.9.9,0,0,0,.9-.9.9.9,0,0,1,.9-.9h1.8a.9.9,0,0,1,.9.9.9.9,0,0,0,.9.9.9.9,0,1,1-.9.9.9.9,0,1,0-1.8,0v5.4a.9.9,0,1,0,1.8,0V17.6a.9.9,0,0,1,1.8,0v1.8a.9.9,0,0,1-.9.9.9.9,0,1,0,0,1.8.9.9,0,0,1,.9.9.9.9,0,1,0,1.8,0,.9.9,0,1,1,.9.9.9.9,0,1,0,0,1.8.9.9,0,0,1,.9.9v1.8a.9.9,0,0,0,.9.9.9.9,0,0,1,.9.9.9.9,0,0,0,1.8,0V26.6a.9.9,0,0,0-.9-.9.9.9,0,0,1-.9-.9V23a.9.9,0,1,1,1.8,0,.9.9,0,1,0,1.8,0V21.2a.9.9,0,0,1,.9-.9H59a.9.9,0,1,0,0-1.8.9.9,0,0,1-.9-.9.9.9,0,1,0-1.8,0,.9.9,0,1,1-.9-.9.9.9,0,0,0,0-1.8.9.9,0,0,1-.9-.9.9.9,0,0,0-.9-.9.9.9,0,0,1-.9-.9V8.6a.9.9,0,0,0-1.8,0,.9.9,0,0,1-.9.9H46.4a.9.9,0,0,1-.9-.9.9.9,0,0,0-.9-.9H42.8a.9.9,0,0,0-.9.9.9.9,0,0,1-1.8,0V6.8a.9.9,0,1,0-1.8,0v5.4A.9.9,0,0,0,39.2,13.1Zm11.7,7.2H48.2a.9.9,0,0,1-.9-.9V15.8a.9.9,0,0,1,.9-.9h3.6a.9.9,0,0,1,.9.9v3.6a.9.9,0,0,1-.9.9Z"/><path d="M62.6,11.3a.9.9,0,1,0,.9.9A.9.9,0,0,0,62.6,11.3Z"/><path d="M37.4,14.9a.9.9,0,1,0-.9-.9A.9.9,0,0,0,37.4,14.9Z"/><path d="M71.6,14.9a.9.9,0,0,1,.9.9.9.9,0,0,0,.9.9.9.9,0,0,1,.9.9.9.9,0,0,0,1.8,0V15.8a.9.9,0,0,0-.9-.9.9.9,0,0,1-.9-.9V12.2a.9.9,0,0,0-.9-.9.9.9,0,0,1-.9-.9.9.9,0,0,0-1.8,0V14A.9.9,0,0,0,71.6,14.9Z"/><path d="M29.3,15.8a.9.9,0,0,0-1.8,0v3.6a.9.9,0,0,0,.9.9h1.8a.9.9,0,0,0,0-1.8.9.9,0,0,1-.9-.9V15.8Z"/><path d="M59.9,16.7v.9a.9.9,0,0,0,1.8,0V15.8a.9.9,0,0,0-1.8,0Z"/><path d="M63.5,16.7v.9a.9.9,0,0,0,1.8,0,.9.9,0,0,1,.9-.9.9.9,0,0,0,.9-.9V12.2a.9.9,0,0,1,.9-.9.9.9,0,1,0,0-1.8H66.2a.9.9,0,0,0-.9.9V14a.9.9,0,0,1-.9.9.9.9,0,0,0-.9.9Z"/><path d="M69.8,16.7a.9.9,0,1,0-.9-.9A.9.9,0,0,0,69.8,16.7Z"/><path d="M40.1,17.6V15.8a.9.9,0,1,0-1.8,0v1.8a.9.9,0,1,0,1.8,0Z"/><path d="M50,16.7a.9.9,0,1,0,.9.9A.9.9,0,0,0,50,16.7Z"/><path d="M72.5,17.6a.9.9,0,1,0-.9.9A.9.9,0,0,0,72.5,17.6Z"/><path d="M68.9,20.3h.9a.9.9,0,0,0,0-1.8.9.9,0,0,1-.9-.9.9.9,0,0,0-1.8,0v1.8a.9.9,0,0,0,.9.9Z"/><path d="M79.7,19.4V17.6a.9.9,0,0,0-1.8,0v1.8a.9.9,0,1,0,1.8,0Z"/><path d="M13.1,21.2a.9.9,0,0,0-1.8,0,.9.9,0,1,1-1.8,0,.9.9,0,1,0-1.8,0V23a.9.9,0,0,0,.9.9h1.8a.9.9,0,0,1,.9.9v1.8a.9.9,0,0,0,.9.9.9.9,0,0,1,.9.9.9.9,0,0,0,1.8,0,.9.9,0,0,1,.9-.9.9.9,0,1,0,0-1.8.9.9,0,0,1-.9-.9.9.9,0,0,0-.9-.9.9.9,0,0,1-.9-.9V21.2Z"/><path d="M16.7,20.3h-.9a.9.9,0,0,0-.9.9V23a.9.9,0,1,0,1.8,0,.9.9,0,1,1,.9.9.9.9,0,1,0,0,1.8H23a.9.9,0,0,0,.9-.9V23a.9.9,0,0,0-.9-.9.9.9,0,0,1-.9-.9V15.8a.9.9,0,0,0-1.8,0v3.6a.9.9,0,0,1-.9.9H16.7Z"/><path d="M64.4,20.3H62.6a.9.9,0,0,0-.9.9V23a.9.9,0,0,0,.9.9h1.8a.9.9,0,0,0,.9-.9V21.2A.9.9,0,0,0,64.4,20.3Z"/><path d="M78.8,22.1H77a.9.9,0,1,0,0,1.8h1.8a.9.9,0,0,1,.9.9v3.6a.9.9,0,1,1-1.8,0,.9.9,0,1,0-1.8,0v1.8a.9.9,0,0,0,.9.9h1.8a.9.9,0,0,1,.9.9v1.8a.9.9,0,0,1-.9.9.9.9,0,0,0,0,1.8.9.9,0,0,1,.9.9v1.8a.9.9,0,0,0,.9.9h1.8a.9.9,0,0,0,0-1.8.9.9,0,0,1-.9-.9V33.8a.9.9,0,0,1,1.8,0v1.8a.9.9,0,0,0,.9.9H86a.9.9,0,0,0,.9-.9V33.8a.9.9,0,0,0-.9-.9.9.9,0,0,1-.9-.9.9.9,0,0,0-.9-.9H82.4a.9.9,0,0,1-.9-.9V26.6a.9.9,0,0,1,.9-.9.9.9,0,0,0,.9-.9.9.9,0,0,1,1.8,0,.9.9,0,0,0,1.8,0V23a.9.9,0,0,0-.9-.9.9.9,0,0,1-.9-.9.9.9,0,0,0-.9-.9H80.6a.9.9,0,0,0-.9.9A.9.9,0,0,1,78.8,22.1Z"/><path d="M87.8,22.1h1.8a.9.9,0,0,0,0-1.8H87.8a.9.9,0,0,0,0,1.8Z"/><path d="M93.2,20.3a.9.9,0,0,0-.9.9.9.9,0,0,1-.9.9.9.9,0,1,0,0,1.8h1.8a.9.9,0,0,0,.9-.9V21.2A.9.9,0,0,0,93.2,20.3Z"/><path d="M30.2,22.1a.9.9,0,1,0,.9.9A.9.9,0,0,0,30.2,22.1Z"/><path d="M33.8,23.9a.9.9,0,1,0-.9-.9A.9.9,0,0,0,33.8,23.9Z"/><path d="M66.2,23.9a.9.9,0,1,0,0,1.8h3.6a.9.9,0,0,0,.9-.9.9.9,0,0,1,1.8,0,.9.9,0,0,0,1.8,0V19.4a.9.9,0,0,0-1.8,0v1.8a.9.9,0,0,1-.9.9H69.8a.9.9,0,0,0-.9.9.9.9,0,0,1-.9.9H66.2Z"/><path d="M6.8,25.7a.9.9,0,0,0-.9.9v9a.9.9,0,0,0,1.8,0,.9.9,0,0,1,.9-.9.9.9,0,0,0,.9-.9V32a.9.9,0,0,1,1.8,0,.9.9,0,0,0,.9.9.9.9,0,0,1,.9.9v1.8a.9.9,0,0,0,.9.9.9.9,0,0,1,.9.9.9.9,0,1,0,1.8,0,.9.9,0,0,1,.9-.9.9.9,0,0,0,0-1.8H15.8a.9.9,0,0,1,0-1.8h1.8a.9.9,0,0,0,0-1.8.9.9,0,0,1-.9-.9.9.9,0,0,0-1.8,0,.9.9,0,0,1-1.8,0,.9.9,0,0,0-.9-.9H10.4a.9.9,0,0,1-.9-.9.9.9,0,0,0-.9-.9.9.9,0,0,1-.9-.9A.9.9,0,0,0,6.8,25.7Z"/><path d="M46.4,25.7a.9.9,0,1,0,.9.9A.9.9,0,0,0,46.4,25.7Z"/><path d="M58.1,26.6a.9.9,0,0,1-1.8,0,.9.9,0,1,0-1.8,0v1.8a.9.9,0,0,0,.9.9h1.8a.9.9,0,0,1,.9.9.9.9,0,0,0,1.8,0,.9.9,0,0,1,.9-.9.9.9,0,0,0,0-1.8.9.9,0,0,1,0-1.8.9.9,0,1,0,0-1.8.9.9,0,0,1-.9-.9.9.9,0,0,0-.9-.9H57.2a.9.9,0,1,0,0,1.8.9.9,0,0,1,.9.9v1.8Z"/><path d="M61.7,26.6a.9.9,0,1,0,.9-.9A.9.9,0,0,0,61.7,26.6Z"/><path d="M75.2,27.5a.9.9,0,1,0-.9-.9A.9.9,0,0,0,75.2,27.5Z"/><path d="M17.6,29.3a.9.9,0,1,0-.9-.9A.9.9,0,0,0,17.6,29.3Z"/><path d="M21.2,29.3a.9.9,0,1,0-.9-.9A.9.9,0,0,0,21.2,29.3Z"/><path d="M44.6,27.5a.9.9,0,1,0,.9.9A.9.9,0,0,0,44.6,27.5Z"/><path d="M73.4,27.5a.9.9,0,1,0,.9.9A.9.9,0,0,0,73.4,27.5Z"/><path d="M86,27.5a.9.9,0,0,1-.9-.9.9.9,0,0,0-1.8,0v1.8a.9.9,0,0,0,.9.9H86a.9.9,0,0,0,0-1.8Z"/><path d="M93.2,27.5a.9.9,0,0,1-.9-.9.9.9,0,0,0-.9-.9H89.6a.9.9,0,0,0,0,1.8.9.9,0,0,1,0,1.8.9.9,0,0,0-.9.9.9.9,0,0,1-.9.9.9.9,0,0,0,0,1.8h5.4a.9.9,0,0,0,.9-.9V28.4A.9.9,0,0,0,93.2,27.5Z"/><path d="M41.9,29.3v-.9a.9.9,0,0,0-.9-.9H39.2a.9.9,0,0,1-.9-.9V24.8a.9.9,0,0,1,.9-.9.9.9,0,0,0,.9-.9V21.2a.9.9,0,0,0-.9-.9H37.4a.9.9,0,0,1-.9-.9V17.6a.9.9,0,0,0-1.8,0,.9.9,0,0,1-.9.9.9.9,0,0,0,0,1.8.9.9,0,0,1,.9.9.9.9,0,0,0,.9.9.9.9,0,0,1,0,1.8.9.9,0,0,0,0,1.8.9.9,0,1,1,0,1.8H33.8a.9.9,0,0,0,0,1.8.9.9,0,0,1,.9.9.9.9,0,0,0,1.8,0,.9.9,0,0,1,.9-.9h1.8a.9.9,0,0,1,.9.9.9.9,0,0,0,1.8,0Z"/><path d="M66.2,31.1a.9.9,0,0,0,.9-.9V28.4a.9.9,0,0,0-1.8,0,.9.9,0,0,1-.9.9.9.9,0,0,0,0,1.8h1.8Z"/><path d="M20.3,32.9v2.7a.9.9,0,0,0,1.8,0V33.8a.9.9,0,0,1,.9-.9.9.9,0,0,0,0-1.8H21.2a.9.9,0,0,0-.9.9Z"/><path d="M93.2,34.7H89.6a.9.9,0,0,0,0,1.8h3.6a.9.9,0,1,0,0-1.8Z"/><path d="M19.4,36.5a.9.9,0,1,0,.9.9A.9.9,0,0,0,19.4,36.5Z"/><path d="M8.6,38.3a.9.9,0,1,0,.9.9A.9.9,0,0,0,8.6,38.3Z"/><path d="M12.2,38.3a.9.9,0,1,0,.9.9A.9.9,0,0,0,12.2,38.3Z"/><path d="M17.6,40.1a.9.9,0,1,0-.9-.9A.9.9,0,0,0,17.6,40.1Z"/><path d="M23,38.3a.9.9,0,1,0,.9.9A.9.9,0,0,0,23,38.3Z"/><path d="M89.6,40.1a.9.9,0,1,0,0-1.8H86a.9.9,0,1,0,0,1.8h3.6Z"/><path d="M93.2,38.3a.9.9,0,0,0-.9.9v3.6a.9.9,0,1,0,1.8,0V39.2A.9.9,0,0,0,93.2,38.3Z"/><path d="M10.4,41.9a.9.9,0,1,0-.9-.9A.9.9,0,0,0,10.4,41.9Z"/><path d="M19.4,40.1a.9.9,0,0,0-.9.9.9.9,0,0,1-.9.9.9.9,0,0,0,0,1.8h1.8a.9.9,0,0,0,.9-.9.9.9,0,0,1,.9-.9.9.9,0,0,0,0-1.8H19.4Z"/><path d="M84.2,41.9a.9.9,0,1,0-.9-.9A.9.9,0,0,0,84.2,41.9Z"/><path d="M87.8,41.9a.9.9,0,1,0,.9.9A.9.9,0,0,0,87.8,41.9Z"/><path d="M93.2,45.5a.9.9,0,0,1-.9-.9.9.9,0,1,0-1.8,0,.9.9,0,0,1-.9.9.9.9,0,1,0,0,1.8h1.8a.9.9,0,0,1,.9.9.9.9,0,1,0,1.8,0V46.4A.9.9,0,0,0,93.2,45.5Z"/><path d="M17.6,50.9a.9.9,0,1,0-.9-.9A.9.9,0,0,0,17.6,50.9Z"/><path d="M82.4,50.9a.9.9,0,1,0-.9-.9A.9.9,0,0,0,82.4,50.9Z"/><path d="M93.2,52.7H91.4a.9.9,0,0,1-.9-.9.9.9,0,0,0-1.8,0v3.6a.9.9,0,0,0,1.8,0,.9.9,0,1,1,1.8,0v1.8a.9.9,0,1,0,1.8,0V53.6A.9.9,0,0,0,93.2,52.7Z"/><path d="M23,54.5a.9.9,0,0,0-.9.9v1.8a.9.9,0,0,0,1.8,0V55.4A.9.9,0,0,0,23,54.5Z"/><path d="M82.4,54.5H86a.9.9,0,0,0,.9-.9V51.8a.9.9,0,0,1,.9-.9.9.9,0,0,0,.9-.9V48.2a.9.9,0,0,0-.9-.9.9.9,0,0,1-.9-.9.9.9,0,0,0-.9-.9.9.9,0,0,1-.9-.9.9.9,0,0,0-1.8,0,.9.9,0,0,1-.9.9H80.6a.9.9,0,0,1,0-1.8.9.9,0,0,0,0-1.8.9.9,0,0,1-.9-.9.9.9,0,0,0-.9-.9.9.9,0,0,1-.9-.9V37.4a.9.9,0,0,0-.9-.9.9.9,0,0,1-.9-.9.9.9,0,0,0-.9-.9.9.9,0,0,1-.9-.9V32a.9.9,0,0,0-.9-.9.9.9,0,0,1-.9-.9.9.9,0,0,0-.9-.9H69.8a.9.9,0,0,0,0,1.8.9.9,0,0,1,.9.9.9.9,0,0,0,.9.9.9.9,0,0,1,0,1.8H69.8a.9.9,0,0,0-.9.9v1.8a.9.9,0,0,0,.9.9.9.9,0,1,1,0,1.8.9.9,0,0,0-.9.9v1.8a.9.9,0,0,0,.9.9.9.9,0,0,1,0,1.8.9.9,0,0,0,0,1.8.9.9,0,0,1,.9.9V50a.9.9,0,0,1-.9.9.9.9,0,1,0,0,1.8.9.9,0,0,1,.9.9v1.8a.9.9,0,1,0,1.8,0V48.2a.9.9,0,0,1,.9-.9.9.9,0,0,0,.9-.9.9.9,0,0,1,.9-.9.9.9,0,1,0,0-1.8H73.4a.9.9,0,0,1,0-1.8.9.9,0,1,0,0-1.8.9.9,0,1,1,.9-.9.9.9,0,0,0,.9.9.9.9,0,0,1,.9.9v1.8a.9.9,0,0,0,.9.9.9.9,0,0,1,.9.9v1.8a.9.9,0,0,1-.9.9H75.2a.9.9,0,0,0-.9.9v5.4a.9.9,0,0,0,1.8,0,.9.9,0,0,1,1.8,0,.9.9,0,0,0,.9.9.9.9,0,0,1,.9.9v1.8a.9.9,0,0,0,.9.9h3.6a.9.9,0,0,1,0,1.8H82.4a.9.9,0,0,0,0,1.8.9.9,0,0,1,.9.9.9.9,0,1,0,1.8,0,.9.9,0,0,1,1.8,0,.9.9,0,0,0,.9.9h1.8a.9.9,0,1,0,0-1.8.9.9,0,0,1-.9-.9.9.9,0,0,0-.9-.9.9.9,0,1,1,0-1.8.9.9,0,1,0,0-1.8H82.4a.9.9,0,0,1,0-1.8Zm-.9-7.2h2.7a.9.9,0,0,1,.9.9v3.6a.9.9,0,0,1-.9.9H80.6a.9.9,0,0,1-.9-.9V48.2a.9.9,0,0,1,.9-.9Z"/><path d="M17.6,56.3a.9.9,0,1,0,.9.9A.9.9,0,0,0,17.6,56.3Z"/><path d="M69.8,56.3a.9.9,0,1,0,.9.9A.9.9,0,0,0,69.8,56.3Z"/><path d="M73.4,56.3a.9.9,0,0,0-.9.9.9.9,0,0,1-.9.9.9.9,0,0,0-.9.9.9.9,0,0,1-.9.9.9.9,0,0,0,0,1.8h1.8a.9.9,0,0,0,.9-.9.9.9,0,0,1,.9-.9.9.9,0,0,0,.9-.9V57.2A.9.9,0,0,0,73.4,56.3Z"/><path d="M21.2,58.1H19.4a.9.9,0,0,0,0,1.8h1.8a.9.9,0,1,0,0-1.8Z"/><path d="M30.2,58.1a.9.9,0,1,0,.9.9A.9.9,0,0,0,30.2,58.1Z"/><path d="M91.4,59.9a.9.9,0,1,0-.9-.9A.9.9,0,0,0,91.4,59.9Z"/><path d="M75.2,61.7a.9.9,0,1,0-.9-.9A.9.9,0,0,0,75.2,61.7Z"/><path d="M93.2,59.9a.9.9,0,1,0,.9.9A.9.9,0,0,0,93.2,59.9Z"/><path d="M12.2,61.7a.9.9,0,1,0,.9.9A.9.9,0,0,0,12.2,61.7Z"/><path d="M24.8,63.5a.9.9,0,0,1,.9.9.9.9,0,0,0,.9.9h1.8a.9.9,0,0,0,.9-.9.9.9,0,0,1,.9-.9.9.9,0,1,0,0-1.8.9.9,0,0,1-.9-.9.9.9,0,0,0-.9-.9.9.9,0,0,1,0-1.8.9.9,0,0,0,.9-.9V55.4a.9.9,0,0,1,.9-.9.9.9,0,1,0,0-1.8H28.4a.9.9,0,0,0-.9.9.9.9,0,0,1-.9.9.9.9,0,0,0-.9.9V59a.9.9,0,0,1-.9.9.9.9,0,0,0-.9.9.9.9,0,0,1-.9.9.9.9,0,1,0,0,1.8h1.8Z"/><path d="M73.4,61.7a.9.9,0,0,0-.9.9.9.9,0,0,1-.9.9H69.8a.9.9,0,0,0,0,1.8h3.6a.9.9,0,0,0,.9-.9V62.6A.9.9,0,0,0,73.4,61.7Z"/><path d="M78.8,63.5a.9.9,0,0,0,.9-.9V59a.9.9,0,0,0-.9-.9.9.9,0,0,1-.9-.9.9.9,0,1,0-1.8,0V59a.9.9,0,0,0,.9.9.9.9,0,1,1,0,1.8.9.9,0,0,0-.9.9v1.8a.9.9,0,0,0,1.8,0A.9.9,0,0,1,78.8,63.5Z"/><path d="M93.2,63.5a.9.9,0,0,0-.9.9.9.9,0,0,1-.9.9.9.9,0,1,0,0,1.8h1.8a.9.9,0,0,0,.9-.9V64.4A.9.9,0,0,0,93.2,63.5Z"/><path d="M21.2,65.3H19.4a.9.9,0,1,0,0,1.8h1.8a.9.9,0,0,0,0-1.8Z"/><path d="M25.7,66.2a.9.9,0,0,0-1.8,0V68a.9.9,0,0,0,1.8,0V66.2Z"/><path d="M17.6,67.1a.9.9,0,0,1,0-1.8.9.9,0,1,0,0-1.8.9.9,0,1,1,0-1.8.9.9,0,0,0,0-1.8.9.9,0,0,1-.9-.9.9.9,0,1,0-1.8,0v7.2a.9.9,0,0,1-.9.9.9.9,0,1,0,0,1.8h3.6a.9.9,0,1,0,0-1.8Z"/><path d="M78.8,68.9h3.6a.9.9,0,0,0,.9-.9.9.9,0,0,1,.9-.9.9.9,0,1,0,0-1.8.9.9,0,0,1-.9-.9.9.9,0,0,0-1.8,0v1.8a.9.9,0,0,1-.9.9H78.8a.9.9,0,0,0,0,1.8Z"/><path d="M89.6,67.1H87.8a.9.9,0,0,0,0,1.8h1.8a.9.9,0,0,0,0-1.8Z"/><path d="M6.8,70.7a.9.9,0,1,0-.9-.9A.9.9,0,0,0,6.8,70.7Z"/><path d="M12.2,68.9a.9.9,0,0,1,0-1.8.9.9,0,0,0,0-1.8H10.4a.9.9,0,0,1-.9-.9V60.8a.9.9,0,0,1,.9-.9h1.8a.9.9,0,0,0,.9-.9V57.2a.9.9,0,0,0-.9-.9.9.9,0,1,1,.9-.9.9.9,0,0,0,1.8,0,.9.9,0,0,1,.9-.9h5.4a.9.9,0,0,0,.9-.9.9.9,0,0,1,1.8,0,.9.9,0,1,0,1.8,0V48.2a.9.9,0,0,1,1.8,0V50a.9.9,0,0,0,.9.9h1.8a.9.9,0,1,0,0-1.8.9.9,0,1,1,0-1.8.9.9,0,0,0,.9-.9V42.8a.9.9,0,0,0-.9-.9.9.9,0,0,1,0-1.8.9.9,0,0,0,.9-.9V32a.9.9,0,0,1,.9-.9.9.9,0,1,0,0-1.8.9.9,0,0,1-.9-.9V26.6a.9.9,0,0,0-.9-.9H28.4a.9.9,0,0,1-.9-.9V21.2a.9.9,0,1,0-1.8,0V32a.9.9,0,0,0,1.8,0V28.4a.9.9,0,1,1,1.8,0V32a.9.9,0,0,1-.9.9.9.9,0,1,0,0,1.8.9.9,0,0,1,.9.9v1.8a.9.9,0,0,1-1.8,0,.9.9,0,0,0-.9-.9.9.9,0,0,1-.9-.9.9.9,0,0,0-1.8,0v1.8a.9.9,0,0,0,.9.9.9.9,0,0,1,.9.9V41a.9.9,0,0,0,.9.9.9.9,0,0,1,.9.9.9.9,0,0,0,.9.9.9.9,0,1,1,0,1.8H26.6a.9.9,0,0,1-.9-.9.9.9,0,0,0-.9-.9.9.9,0,0,1-.9-.9.9.9,0,0,0-1.8,0,.9.9,0,0,1-.9.9.9.9,0,0,0-.9.9.9.9,0,0,1-.9.9H15.8a.9.9,0,0,1-.9-.9V41a.9.9,0,0,0-1.8,0v1.8a.9.9,0,0,1-.9.9H8.6a.9.9,0,0,1-.9-.9.9.9,0,0,0-1.8,0v1.8a.9.9,0,0,0,.9.9.9.9,0,0,1,.9.9V50a.9.9,0,0,0,.9.9h1.8a.9.9,0,1,1,0,1.8H6.8a.9.9,0,0,0-.9.9V59a.9.9,0,0,0,.9.9.9.9,0,1,1,0,1.8.9.9,0,0,0,0,1.8.9.9,0,0,1,.9.9v1.8a.9.9,0,0,0,.9.9.9.9,0,0,1,.9.9v1.8a.9.9,0,0,0,.9.9h1.8a.9.9,0,0,0,0-1.8ZM7.7,57.2a.9.9,0,1,1,.9.9A.9.9,0,0,1,7.7,57.2Zm9-9.9h2.7a.9.9,0,0,1,.9.9v3.6a.9.9,0,0,1-.9.9H15.8a.9.9,0,0,1-.9-.9V48.2a.9.9,0,0,1,.9-.9Zm-5.4-1.8h.9a.9.9,0,0,1,.9.9v1.8a.9.9,0,0,1-1.8,0,.9.9,0,0,0-.9-.9.9.9,0,0,1,0-1.8Z"/><path d="M19.4,70.7a.9.9,0,1,0-.9-.9A.9.9,0,0,0,19.4,70.7Z"/><path d="M26.6,70.7a.9.9,0,1,0-.9-.9A.9.9,0,0,0,26.6,70.7Z"/><path d="M30.2,68.9a.9.9,0,1,0,.9.9A.9.9,0,0,0,30.2,68.9Z"/><path d="M33.8,70.7a.9.9,0,1,0-.9-.9A.9.9,0,0,0,33.8,70.7Z"/><path d="M59,68.9a.9.9,0,1,0,.9.9A.9.9,0,0,0,59,68.9Z"/><path d="M75.2,68.9a.9.9,0,0,1-.9-.9.9.9,0,0,0-.9-.9H71.6a.9.9,0,0,0,0,1.8.9.9,0,1,1-.9.9.9.9,0,1,0-1.8,0v1.8a.9.9,0,0,0,.9.9h1.8a.9.9,0,0,1,.9.9.9.9,0,0,0,1.8,0V71.6a.9.9,0,0,1,.9-.9.9.9,0,0,0,0-1.8Z"/><path d="M14,72.5a.9.9,0,1,0-.9-.9A.9.9,0,0,0,14,72.5Z"/><path d="M17.6,70.7a.9.9,0,1,0,.9.9A.9.9,0,0,0,17.6,70.7Z"/><path d="M35.6,70.7a.9.9,0,1,0,.9.9A.9.9,0,0,0,35.6,70.7Z"/><path d="M41,70.7a.9.9,0,0,0-.9.9v1.8a.9.9,0,0,0,1.8,0V71.6A.9.9,0,0,0,41,70.7Z"/><path d="M60.8,72.5a.9.9,0,1,0-.9-.9A.9.9,0,0,0,60.8,72.5Z"/><path d="M93.2,70.7a.9.9,0,0,1-.9-.9.9.9,0,1,0-1.8,0v1.8a.9.9,0,0,0,.9.9h1.8a.9.9,0,0,0,0-1.8Z"/><path d="M21.2,74.3a.9.9,0,1,0-.9-.9A.9.9,0,0,0,21.2,74.3Z"/><path d="M32,74.3a.9.9,0,0,0,.9-.9V71.6a.9.9,0,1,0-1.8,0,.9.9,0,1,1-1.8,0,.9.9,0,1,0-1.8,0v1.8a.9.9,0,0,1-1.8,0V71.6a.9.9,0,1,0-1.8,0v3.6a.9.9,0,0,0,.9.9.9.9,0,0,1,.9.9.9.9,0,0,0,1.8,0,.9.9,0,0,1,.9-.9.9.9,0,0,0,.9-.9.9.9,0,0,1,.9-.9H32Z"/><path d="M66.2,74.3a.9.9,0,0,0,.9-.9V69.8a.9.9,0,0,0-1.8,0v3.6A.9.9,0,0,0,66.2,74.3Z"/><path d="M77,74.3a.9.9,0,1,0-.9-.9A.9.9,0,0,0,77,74.3Z"/><path d="M89.6,72.5a.9.9,0,0,0-.9.9v1.8a.9.9,0,1,0,1.8,0V73.4A.9.9,0,0,0,89.6,72.5Z"/><path d="M15.8,76.1h1.8a.9.9,0,1,0,0-1.8.9.9,0,0,1-.9-.9.9.9,0,0,0-1.8,0v1.8A.9.9,0,0,0,15.8,76.1Z"/><path d="M52.7,75.2a.9.9,0,0,0,.9.9.9.9,0,0,1,.9.9.9.9,0,0,0,.9.9h1.8a.9.9,0,0,0,.9-.9.9.9,0,0,1,.9-.9.9.9,0,0,0,0-1.8.9.9,0,0,1-.9-.9V71.6a.9.9,0,0,0-.9-.9H55.4a.9.9,0,0,1-.9-.9.9.9,0,1,0-1.8,0,.9.9,0,0,1-.9.9H50a.9.9,0,0,0,0,1.8h1.8a.9.9,0,0,1,.9.9v1.8Z"/><path d="M72.5,75.2a.9.9,0,1,0-.9.9A.9.9,0,0,0,72.5,75.2Z"/><path d="M75.2,74.3a.9.9,0,0,0-.9.9V77a.9.9,0,0,0,1.8,0V75.2A.9.9,0,0,0,75.2,74.3Z"/><circle cx="23" cy="77" r="0.9"/><path d="M29.3,77a.9.9,0,1,0,.9-.9A.9.9,0,0,0,29.3,77Z"/><path d="M87.8,76.1a.9.9,0,1,0,.9.9A.9.9,0,0,0,87.8,76.1Z"/><path d="M6.8,79.7h3.6a.9.9,0,0,0,.9-.9.9.9,0,0,1,.9-.9.9.9,0,0,0,0-1.8H10.4a.9.9,0,1,1,0-1.8.9.9,0,0,0,0-1.8H8.6a.9.9,0,0,0-.9.9V77a.9.9,0,0,1-.9.9.9.9,0,1,0,0,1.8Z"/><path d="M20.3,77.9V77a.9.9,0,1,0-1.8,0,.9.9,0,0,1-.9.9.9.9,0,1,0,0,1.8h1.8a.9.9,0,0,0,.9-.9Z"/><path d="M24.8,77.9a.9.9,0,1,0,.9.9A.9.9,0,0,0,24.8,77.9Z"/><path d="M73.4,77.9a.9.9,0,1,0,.9.9A.9.9,0,0,0,73.4,77.9Z"/><path d="M93.2,77.9a.9.9,0,0,1-.9-.9.9.9,0,0,0-1.8,0,.9.9,0,0,1-.9.9.9.9,0,0,0,0,1.8.9.9,0,0,1,.9.9.9.9,0,0,0,1.8,0,.9.9,0,0,1,.9-.9.9.9,0,0,0,0-1.8Z"/><path d="M33.8,81.5a.9.9,0,0,0,.9-.9V77a.9.9,0,0,0-1.8,0v3.6A.9.9,0,0,0,33.8,81.5Z"/><path d="M64.4,79.7a.9.9,0,0,0,.9-.9V77a.9.9,0,0,0-.9-.9.9.9,0,0,1-.9-.9.9.9,0,1,0-1.8,0,.9.9,0,0,1-.9.9.9.9,0,1,0,0,1.8.9.9,0,0,1,0,1.8H59a.9.9,0,1,0,0,1.8.9.9,0,0,1,.9.9.9.9,0,0,0,.9.9h3.6a.9.9,0,1,0,0-1.8.9.9,0,0,1,0-1.8Z"/><path d="M23,81.5a.9.9,0,0,1-.9-.9.9.9,0,1,0-1.8,0v3.6a.9.9,0,0,0,1.8,0,.9.9,0,0,1,.9-.9.9.9,0,1,0,0-1.8Z"/><path d="M35.6,83.3a.9.9,0,1,0-.9-.9A.9.9,0,0,0,35.6,83.3Z"/><path d="M50,81.5a.9.9,0,1,0,.9.9A.9.9,0,0,0,50,81.5Z"/><path d="M72.5,81.5v-.9a.9.9,0,0,0-.9-.9H69.8a.9.9,0,0,1-.9-.9V75.2a.9.9,0,1,0-1.8,0v9a.9.9,0,0,0,.9.9.9.9,0,0,1,.9.9.9.9,0,1,0,1.8,0V84.2a.9.9,0,0,0-.9-.9.9.9,0,1,1,.9-.9.9.9,0,0,0,1.8,0Z"/><path d="M82.4,81.5a.9.9,0,1,0,.9.9A.9.9,0,0,0,82.4,81.5Z"/><path d="M93.2,81.5a.9.9,0,0,0-.9.9.9.9,0,0,1-.9.9.9.9,0,1,0,0,1.8.9.9,0,0,1,.9.9.9.9,0,0,0,1.8,0V82.4A.9.9,0,0,0,93.2,81.5Z"/><path d="M73.4,83.3a.9.9,0,1,0,.9.9A.9.9,0,0,0,73.4,83.3Z"/><path d="M88.7,83.3V80.6a.9.9,0,0,0-.9-.9.9.9,0,0,1-.9-.9.9.9,0,0,0-.9-.9.9.9,0,0,1,0-1.8.9.9,0,0,0,.9-.9V73.4a.9.9,0,0,1,.9-.9.9.9,0,0,0,0-1.8.9.9,0,0,1-.9-.9.9.9,0,1,0-1.8,0,.9.9,0,0,1-.9.9H78.8a.9.9,0,0,0,0,1.8h5.4a.9.9,0,1,1,0,1.8.9.9,0,0,0-.9.9V77a.9.9,0,0,1-1.8,0V75.2a.9.9,0,0,0-.9-.9H78.8a.9.9,0,0,0,0,1.8.9.9,0,1,1,0,1.8.9.9,0,0,0-.9.9v1.8a.9.9,0,0,1-.9.9H75.2a.9.9,0,1,0,0,1.8H77a.9.9,0,0,1,.9.9V86a.9.9,0,0,1-.9.9.9.9,0,0,0-.9.9v1.8a.9.9,0,0,1-.9.9H73.4a.9.9,0,0,0-.9.9.9.9,0,0,1-1.8,0,.9.9,0,0,0-1.8,0v1.8a.9.9,0,0,0,.9.9h3.6a.9.9,0,0,0,.9-.9.9.9,0,0,1,1.8,0,.9.9,0,0,0,.9.9h3.6a.9.9,0,1,0,0-1.8H78.8a.9.9,0,0,1-.9-.9V89.6a.9.9,0,0,1,.9-.9.9.9,0,0,0,.9-.9.9.9,0,0,1,.9-.9H86a.9.9,0,0,0,.9-.9.9.9,0,0,1,.9-.9.9.9,0,0,0,.9-.9Zm-5.4,1.8H80.6a.9.9,0,0,1-.9-.9V80.6a.9.9,0,0,1,.9-.9h3.6a.9.9,0,0,1,.9.9v3.6a.9.9,0,0,1-.9.9Z"/><path d="M75.2,86.9a.9.9,0,1,0-.9-.9A.9.9,0,0,0,75.2,86.9Z"/><path d="M89.6,85.1a.9.9,0,1,0,.9.9A.9.9,0,0,0,89.6,85.1Z"/><path d="M23,86.9H21.2a.9.9,0,0,0,0,1.8.9.9,0,0,1,0,1.8.9.9,0,0,0,0,1.8H23a.9.9,0,0,0,.9-.9V87.8A.9.9,0,0,0,23,86.9Z"/><path d="M68,86.9a.9.9,0,0,1-.9-.9.9.9,0,0,0-1.8,0,.9.9,0,0,1-.9.9.9.9,0,0,0-.9.9.9.9,0,1,1-.9-.9.9.9,0,0,0,0-1.8H59a.9.9,0,1,0,0,1.8.9.9,0,1,1,0,1.8.9.9,0,0,0-.9.9.9.9,0,1,1-1.8,0V86a.9.9,0,0,0-.9-.9.9.9,0,1,1,.9-.9.9.9,0,0,0,1.8,0V82.4a.9.9,0,0,0-.9-.9.9.9,0,0,1-.9-.9.9.9,0,0,0-.9-.9.9.9,0,0,1-.9-.9.9.9,0,0,0-.9-.9.9.9,0,0,1-.9-.9.9.9,0,0,0-1.8,0,.9.9,0,1,1-1.8,0V75.2a.9.9,0,0,0-.9-.9.9.9,0,0,1-.9-.9V71.6a.9.9,0,0,1,.9-.9.9.9,0,0,0,0-1.8H44.6a.9.9,0,0,0-.9.9v3.6a.9.9,0,0,0,.9.9.9.9,0,0,1,.9.9.9.9,0,0,0,.9.9.9.9,0,1,1-.9.9.9.9,0,0,0-1.8,0,.9.9,0,0,1-.9.9.9.9,0,0,0-.9.9v1.8a.9.9,0,1,1-1.8,0V78.8a.9.9,0,0,1,.9-.9.9.9,0,1,0,0-1.8.9.9,0,0,1-.9-.9.9.9,0,0,0-.9-.9.9.9,0,0,1-.9-.9.9.9,0,0,0-1.8,0v5.4a.9.9,0,0,0,.9.9.9.9,0,0,1,.9.9v1.8a.9.9,0,0,0,.9.9h5.4a.9.9,0,0,1,.9.9V86a.9.9,0,0,1-.9.9.9.9,0,1,0,0,1.8.9.9,0,0,1,.9.9v1.8a.9.9,0,0,1-.9.9.9.9,0,0,0,0,1.8h1.8a.9.9,0,0,0,.9-.9.9.9,0,0,1,.9-.9.9.9,0,0,0,.9-.9V89.6a.9.9,0,0,0-.9-.9.9.9,0,0,1,0-1.8h5.4a.9.9,0,1,1,0,1.8H51.8a.9.9,0,1,0,0,1.8.9.9,0,0,1,.9.9.9.9,0,0,0,.9.9h1.8a.9.9,0,0,1,.9.9.9.9,0,0,0,.9.9H59a.9.9,0,0,0,.9-.9V91.4a.9.9,0,0,1,1.8,0v1.8a.9.9,0,0,0,.9.9h1.8a.9.9,0,0,0,.9-.9V89.6a.9.9,0,0,1,.9-.9H68a.9.9,0,0,0,0-1.8ZM43.7,80.6a.9.9,0,1,1,.9.9A.9.9,0,0,1,43.7,80.6Zm7.2,4.5H48.2a.9.9,0,0,1-.9-.9V80.6a.9.9,0,0,1,.9-.9h3.6a.9.9,0,0,1,.9.9v3.6a.9.9,0,0,1-.9.9Z"/><path d="M71.6,86.9a.9.9,0,0,0-.9.9v1.8a.9.9,0,1,0,1.8,0V87.8A.9.9,0,0,0,71.6,86.9Z"/><path d="M89.6,88.7a.9.9,0,1,0,.9.9A.9.9,0,0,0,89.6,88.7Z"/><path d="M93.2,88.7a.9.9,0,0,0-.9.9.9.9,0,0,1-.9.9.9.9,0,0,0-.9.9.9.9,0,0,1-.9.9.9.9,0,0,0,0,1.8h3.6a.9.9,0,0,0,.9-.9V89.6A.9.9,0,0,0,93.2,88.7Z"/><path d="M30.2,90.5a.9.9,0,0,1-.9-.9.9.9,0,0,0-.9-.9.9.9,0,0,1-.9-.9V86a.9.9,0,0,0-1.8,0v3.6a.9.9,0,0,0,.9.9.9.9,0,0,1,.9.9v1.8a.9.9,0,0,0,1.8,0,.9.9,0,0,1,.9-.9.9.9,0,0,0,0-1.8Z"/><path d="M33.8,90.5a.9.9,0,1,0,.9.9A.9.9,0,0,0,33.8,90.5Z"/><path d="M43.7,90.5v-.9a.9.9,0,0,0-.9-.9.9.9,0,0,1-.9-.9V86a.9.9,0,0,0-1.8,0v1.8a.9.9,0,1,1-1.8,0V84.2a.9.9,0,0,0-1.8,0V86a.9.9,0,1,1-1.8,0,.9.9,0,0,0-.9-.9.9.9,0,0,1-.9-.9V82.4a.9.9,0,0,0-.9-.9H30.2a.9.9,0,0,1-.9-.9.9.9,0,0,0-.9-.9H26.6a.9.9,0,0,0-.9.9v1.8a.9.9,0,0,0,.9.9.9.9,0,0,1,.9.9.9.9,0,0,0,1.8,0,.9.9,0,1,1,.9.9.9.9,0,0,0,0,1.8H32a.9.9,0,0,1,.9.9.9.9,0,0,0,.9.9h1.8a.9.9,0,0,1,.9.9v1.8a.9.9,0,0,0,1.8,0,.9.9,0,0,1,.9-.9H41a.9.9,0,0,1,.9.9.9.9,0,1,0,1.8,0Z"/><path d="M32,92.3a.9.9,0,1,0,.9.9A.9.9,0,0,0,32,92.3Z"/><path d="M35.6,92.3a.9.9,0,1,0,.9.9A.9.9,0,0,0,35.6,92.3Z"/><path d="M41,92.3a.9.9,0,1,0,.9.9A.9.9,0,0,0,41,92.3Z"/><path d="M51.8,92.3a.9.9,0,1,0,.9.9A.9.9,0,0,0,51.8,92.3Z"/><path d="M86,92.3a.9.9,0,0,1-.9-.9V89.6a.9.9,0,0,0-1.8,0,.9.9,0,0,1-.9.9.9.9,0,1,0,0,1.8.9.9,0,0,1,.9.9.9.9,0,0,0,.9.9H86a.9.9,0,0,0,0-1.8Z"/><path d="M6.28,18.5H18.12a.38.38,0,0,0,.38-.38V6.28a.38.38,0,0,0-.38-.38H6.28a.38.38,0,0,0-.38.38V18.12A.38.38,0,0,0,6.28,18.5ZM7.7,14.9v-7a.22.22,0,0,1,.22-.22h8.56a.22.22,0,0,1,.22.22v8.56a.22.22,0,0,1-.22.22H7.92a.22.22,0,0,1-.22-.22Z"/><path d="M9.88,14.9h4.64a.38.38,0,0,0,.38-.38V9.88a.38.38,0,0,0-.38-.38H9.88a.38.38,0,0,0-.38.38v4.64A.38.38,0,0,0,9.88,14.9Z"/><path d="M93.72,5.9H81.88a.38.38,0,0,0-.38.38V18.12a.38.38,0,0,0,.38.38H93.72a.38.38,0,0,0,.38-.38V6.28A.38.38,0,0,0,93.72,5.9ZM92.3,9.5v7a.22.22,0,0,1-.22.22H83.52a.22.22,0,0,1-.22-.22V7.92a.22.22,0,0,1,.22-.22h8.56a.22.22,0,0,1,.22.22Z"/><path d="M90.12,9.5H85.48a.38.38,0,0,0-.38.38v4.64a.38.38,0,0,0,.38.38h4.64a.38.38,0,0,0,.38-.38V9.88A.38.38,0,0,0,90.12,9.5Z"/><path d="M18.12,81.5H6.28a.38.38,0,0,0-.38.38V93.72a.38.38,0,0,0,.38.38H18.12a.38.38,0,0,0,.38-.38V81.88A.38.38,0,0,0,18.12,81.5ZM16.7,85.1v7a.22.22,0,0,1-.22.22H7.92a.22.22,0,0,1-.22-.22V83.52a.22.22,0,0,1,.22-.22h8.56a.22.22,0,0,1,.22.22Z"/><path d="M14.52,85.1H9.88a.38.38,0,0,0-.38.38v4.64a.38.38,0,0,0,.38.38h4.64a.38.38,0,0,0,.38-.38V85.48A.38.38,0,0,0,14.52,85.1Z"/><path class="cls-1" d="M63.5,50A13.5,13.5,0,1,1,50,36.5,13.49,13.49,0,0,1,63.5,50Z"/><path id="_149931032" data-name=" 149931032" class="cls-2" d="M50,36.5A13.52,13.52,0,0,0,36.5,50a13.76,13.76,0,0,0,.69,4.22h4V42.9L50,51.68l8.77-8.78V54.26h4A13.51,13.51,0,0,0,50,36.5Z"/><path id="_149931160" data-name=" 149931160" class="cls-3" d="M48,53.7l-3.83-3.83V57H38.48a13.5,13.5,0,0,0,23.07,0h-5.7V49.87L52,53.7l-2,2Z"/></g></g></svg>