<svg xmlns="http://www.w3.org/2000/svg" viewBox="0 0 60 60" style="enable-background:new 0 0 60 60" xml:space="preserve"><path d="M45 60H15C6.72 60 0 53.28 0 45V15C0 6.72 6.72 0 15 0h30c8.28 0 15 6.72 15 15v30c0 8.28-6.72 15-15 15z" style="fill:#fff"/><path d="M44.22 17.34a8.635 8.635 0 0 0-2.41-3.08c-1.14-.92-2.45-1.6-3.86-2.02-1.68-.52-3.42-.76-5.18-.74-2.04-.03-4.08.26-6.03.86-1.61.49-3.11 1.3-4.4 2.38a9.664 9.664 0 0 0-2.69 3.63 11.34 11.34 0 0 0-.91 4.52 9.5 9.5 0 0 0 .83 4.14c.53 1.1 1.27 2.08 2.18 2.9.92.8 1.97 1.43 3.11 1.86 1.15.44 2.35.76 3.57.93 2.56.38 4.38.93 5.46 1.66 1.06.65 1.68 1.82 1.63 3.06.06 1.55-.66 3.02-1.92 3.92-1.31.95-3.11 1.42-5.39 1.42-2.1 0-3.68-.47-4.74-1.4-1.06-1-1.63-2.42-1.55-3.88-.01-.75.06-1.49.21-2.23l.21-.88h-6.86l-.26 1.19c-.1.46-.17.93-.21 1.4-.04.45-.06.9-.05 1.35-.01 1.45.25 2.89.78 4.24a9.495 9.495 0 0 0 2.36 3.44c1.17 1.04 2.53 1.83 4.01 2.33l.47.15 15.05-1.93c.36-.25.7-.52 1.04-.79 1.28-1.09 2.31-2.45 3-3.99.73-1.66 1.08-3.47 1.04-5.28 0-2.94-.92-5.19-2.77-6.73-1.85-1.55-4.37-2.56-7.57-3.05-2.28-.38-3.93-.92-4.95-1.61a3.26 3.26 0 0 1-1.53-2.85c-.01-.67.17-1.34.52-1.92.35-.56.83-1.03 1.4-1.37.62-.38 1.31-.65 2.02-.8.76-.18 1.55-.26 2.33-.26 2 0 3.49.42 4.45 1.27.96.82 1.49 2.03 1.45 3.29-.01.47-.06.94-.16 1.4l-.16.67h6.84l.21-.93c.1-.43.17-.86.21-1.29.04-.38.05-.76.05-1.14.01-1.31-.27-2.63-.83-3.84z"/></svg>