<svg xmlns="http://www.w3.org/2000/svg" viewBox="0 0 100 100"><defs><style>.cls-1{fill:#fff;}.cls-2{fill:#ff8c00;}</style></defs><g id="Layer_2" data-name="Layer 2"><g id="Ebene_1" data-name="Ebene 1"><rect class="cls-1" width="100" height="100"/><path d="M32.13,10.45h2.54a1.28,1.28,0,1,0,0-2.55H32.13a1.28,1.28,0,1,0,0,2.55Z"/><path d="M57.63,10.45a1.27,1.27,0,0,1,1.27,1.27A1.27,1.27,0,0,0,60.17,13a1.28,1.28,0,0,1,1.28,1.28v2.55a1.27,1.27,0,0,1-1.28,1.27H57.63a1.28,1.28,0,1,0,0,2.55,1.27,1.27,0,0,1,1.27,1.27V27a1.27,1.27,0,0,0,1.27,1.27,1.28,1.28,0,0,1,1.28,1.28v2.55a1.28,1.28,0,0,0,2.55,0,1.28,1.28,0,0,1,1.28-1.28,1.28,1.28,0,0,0,0-2.55A1.27,1.27,0,0,1,64,27a1.28,1.28,0,0,0-1.28-1.28,1.27,1.27,0,0,1-1.27-1.28V21.92a1.27,1.27,0,0,1,1.27-1.27h2.56a1.27,1.27,0,0,1,1.27,1.27,1.28,1.28,0,1,0,2.55,0,1.27,1.27,0,0,1,1.28-1.27,1.28,1.28,0,0,0,0-2.55H67.83a1.28,1.28,0,1,1,0-2.55,1.28,1.28,0,0,0,0-2.55,1.28,1.28,0,0,1-1.28-1.28,1.27,1.27,0,0,0-1.27-1.27A1.28,1.28,0,0,1,64,9.17,1.27,1.27,0,0,0,62.72,7.9H57.63a1.28,1.28,0,1,0,0,2.55Z"/><path d="M70.38,10.45A1.28,1.28,0,1,0,69.1,9.17,1.27,1.27,0,0,0,70.38,10.45Z"/><path d="M37.22,13a1.28,1.28,0,0,1,1.28,1.28v2.55a1.28,1.28,0,0,0,2.55,0V11.72a1.27,1.27,0,0,1,1.28-1.27h2.55a1.28,1.28,0,0,0,0-2.55h-5.1A1.27,1.27,0,0,0,38.5,9.17a1.28,1.28,0,0,1-1.28,1.28,1.28,1.28,0,0,0,0,2.55Z"/><path d="M53.8,13v1.28a1.27,1.27,0,0,1-1.27,1.27,1.28,1.28,0,1,0,0,2.55h2.55a1.27,1.27,0,0,0,1.27-1.27,1.28,1.28,0,0,1,1.28-1.28,1.28,1.28,0,0,0,0-2.55,1.28,1.28,0,0,1-1.28-1.28,1.28,1.28,0,0,0-2.55,0Z"/><path d="M34.67,13A1.28,1.28,0,1,0,36,14.28,1.27,1.27,0,0,0,34.67,13Z"/><path d="M44.88,13a1.28,1.28,0,1,0,0,2.55,1.27,1.27,0,0,1,1.27,1.28,1.28,1.28,0,0,0,2.55,0A1.27,1.27,0,0,1,50,15.55a1.27,1.27,0,0,0,1.28-1.27V11.72a1.27,1.27,0,0,1,1.28-1.27,1.28,1.28,0,0,0,0-2.55H50A1.27,1.27,0,0,0,48.7,9.17v2.55A1.28,1.28,0,0,1,47.42,13H44.88Z"/><path d="M29.58,18.1a1.27,1.27,0,0,1,1.27,1.28v2.54a1.28,1.28,0,0,0,1.28,1.28,1.28,1.28,0,0,1,0,2.55,1.28,1.28,0,1,0,0,2.55h2.54A1.27,1.27,0,0,0,36,27V24.47a1.28,1.28,0,0,1,2.55,0,1.28,1.28,0,1,0,2.55,0,1.27,1.27,0,0,1,1.28-1.27,1.28,1.28,0,0,0,0-2.55H34.67a1.27,1.27,0,0,1-1.27-1.27V16.83a1.27,1.27,0,0,0-1.27-1.28,1.27,1.27,0,0,1-1.28-1.27,1.28,1.28,0,1,0-2.55,0v2.55A1.27,1.27,0,0,0,29.58,18.1Z"/><circle cx="44.88" cy="19.38" r="1.28"/><path d="M29.58,25.75a1.28,1.28,0,1,0-1.28-1.28A1.27,1.27,0,0,0,29.58,25.75Z"/><path d="M50,25.75a1.28,1.28,0,0,0,1.28-1.28V19.38a1.28,1.28,0,1,0-2.55,0v5.09A1.27,1.27,0,0,0,50,25.75Z"/><path d="M55.08,23.2a1.28,1.28,0,1,0,1.27,1.27A1.27,1.27,0,0,0,55.08,23.2Z"/><path d="M65.28,23.2a1.28,1.28,0,1,0,1.27,1.27A1.27,1.27,0,0,0,65.28,23.2Z"/><path d="M52.53,25.75A1.28,1.28,0,1,0,53.8,27,1.28,1.28,0,0,0,52.53,25.75Z"/><path d="M19.38,28.3H16.83a1.28,1.28,0,0,0-1.28,1.28,1.27,1.27,0,0,1-1.27,1.27H9.17A1.27,1.27,0,0,0,7.9,32.13v2.54a1.28,1.28,0,1,0,2.55,0,1.28,1.28,0,0,1,2.55,0,1.28,1.28,0,1,0,2.55,0,1.27,1.27,0,0,1,1.28-1.27,1.27,1.27,0,0,0,1.27-1.27,1.28,1.28,0,0,1,1.28-1.28,1.28,1.28,0,0,0,0-2.55Z"/><path d="M24.47,28.3a1.28,1.28,0,0,0,0,2.55H27a1.28,1.28,0,0,0,0-2.55H24.47Z"/><path d="M37.22,28.3a1.28,1.28,0,1,0,1.28,1.28A1.27,1.27,0,0,0,37.22,28.3Z"/><path d="M70.38,30.85a1.27,1.27,0,0,0,1.27-1.27V24.47a1.28,1.28,0,0,0-2.55,0v5.11A1.27,1.27,0,0,0,70.38,30.85Z"/><path d="M83.13,30.85a1.27,1.27,0,0,1,1.27,1.28,1.27,1.27,0,0,0,1.27,1.27A1.27,1.27,0,0,1,87,34.67a1.28,1.28,0,1,0,2.55,0V32.13a1.28,1.28,0,0,0-1.28-1.28A1.27,1.27,0,0,1,87,29.58a1.28,1.28,0,0,0-1.28-1.28H83.13a1.28,1.28,0,1,0,0,2.55Z"/><path d="M21.92,30.85a1.28,1.28,0,1,0,1.28,1.28A1.27,1.27,0,0,0,21.92,30.85Z"/><path d="M34.67,33.4a1.28,1.28,0,1,0-1.27-1.27A1.27,1.27,0,0,0,34.67,33.4Z"/><path d="M39.78,33.4a1.28,1.28,0,1,0-1.28-1.27A1.27,1.27,0,0,0,39.78,33.4Z"/><path d="M51.25,33.4h1.28a1.28,1.28,0,0,0,0-2.55H50a1.27,1.27,0,0,1-1.27-1.27V27a1.28,1.28,0,0,0-1.28-1.28,1.27,1.27,0,0,1-1.27-1.28,1.28,1.28,0,0,0-2.55,0,1.27,1.27,0,0,1-1.27,1.28A1.28,1.28,0,0,0,41.05,27v2.55a1.27,1.27,0,0,0,1.28,1.27h2.55a1.27,1.27,0,0,1,1.27,1.28,1.27,1.27,0,0,0,1.27,1.27h3.83Z"/><path d="M24.47,36a1.28,1.28,0,1,0-1.27-1.28A1.28,1.28,0,0,0,24.47,36Z"/><path d="M70.38,33.4a1.28,1.28,0,1,0,0,2.55,1.27,1.27,0,0,1,1.27,1.27,1.27,1.27,0,0,0,1.27,1.28,1.28,1.28,0,0,1,1.28,1.28,1.28,1.28,0,0,0,2.55,0,1.28,1.28,0,1,1,2.55,0,1.28,1.28,0,0,0,2.55,0V37.22A1.27,1.27,0,0,1,83.13,36a1.28,1.28,0,0,0,0-2.55,1.27,1.27,0,0,1-1.28-1.27,1.27,1.27,0,0,0-1.27-1.28H75.47a1.27,1.27,0,0,0-1.27,1.28,1.27,1.27,0,0,1-1.28,1.27H70.38Zm8.92,1.27A1.28,1.28,0,1,1,78,33.4,1.27,1.27,0,0,1,79.3,34.67Z"/><path d="M90.78,36a1.27,1.27,0,0,0-1.28,1.27,1.28,1.28,0,0,1-1.28,1.28A1.27,1.27,0,0,0,87,39.78a1.27,1.27,0,0,1-1.28,1.27,1.28,1.28,0,0,0,0,2.55h5.11a1.27,1.27,0,0,0,1.27-1.27V37.22A1.27,1.27,0,0,0,90.78,36Z"/><path d="M78,43.6a1.28,1.28,0,1,0-1.28-1.27A1.27,1.27,0,0,0,78,43.6Z"/><circle cx="83.13" cy="44.88" r="1.28"/><path d="M24.47,53.8a1.28,1.28,0,1,0,1.28,1.28A1.27,1.27,0,0,0,24.47,53.8Z"/><path d="M29.58,53.8a1.28,1.28,0,1,0,1.27,1.28A1.28,1.28,0,0,0,29.58,53.8Z"/><path d="M85.67,56.35A1.27,1.27,0,0,0,87,55.08V47.42a1.28,1.28,0,0,0-2.55,0,1.28,1.28,0,1,1-2.55,0,1.28,1.28,0,0,0-2.55,0V50a1.28,1.28,0,0,0,1.28,1.28,1.27,1.27,0,0,1,1.27,1.28,1.27,1.27,0,0,0,1.28,1.27,1.27,1.27,0,0,1,1.27,1.28A1.27,1.27,0,0,0,85.67,56.35Z"/><path d="M90.78,53.8a1.28,1.28,0,1,0,1.27,1.28A1.28,1.28,0,0,0,90.78,53.8Z"/><path d="M27,56.35a1.28,1.28,0,1,0,1.27,1.28A1.28,1.28,0,0,0,27,56.35Z"/><path d="M71.65,57.63a1.27,1.27,0,0,1-1.27,1.27,1.28,1.28,0,1,0,0,2.55h2.54a1.28,1.28,0,0,0,1.28-1.28,1.27,1.27,0,0,1,1.27-1.27,1.27,1.27,0,0,0,1.28-1.27A1.28,1.28,0,0,1,78,56.35a1.27,1.27,0,0,0,1.27-1.27V52.53A1.27,1.27,0,0,0,78,51.25,1.28,1.28,0,0,1,76.75,50V47.42a1.27,1.27,0,0,0-1.28-1.27H72.92a1.27,1.27,0,0,1-1.27-1.27,1.27,1.27,0,0,0-1.27-1.28,1.28,1.28,0,1,1,0-2.55,1.28,1.28,0,0,0,0-2.55,1.28,1.28,0,0,1-1.28-1.28,1.28,1.28,0,0,0-2.55,0V57.63a1.28,1.28,0,0,0,2.55,0V55.08a1.28,1.28,0,1,1,2.55,0v2.55ZM74.2,50a1.28,1.28,0,1,1-1.28-1.27A1.28,1.28,0,0,1,74.2,50Z"/><circle cx="83.13" cy="57.63" r="1.28"/><path d="M24.47,58.9a1.27,1.27,0,0,1-1.27-1.27,1.28,1.28,0,0,0-1.28-1.28H14.28a1.28,1.28,0,1,1,0-2.55h5.1a1.27,1.27,0,0,0,1.27-1.27,1.27,1.27,0,0,1,1.27-1.28h2.55a1.28,1.28,0,0,1,1.28,1.28,1.28,1.28,0,0,0,2.55,0V50a1.27,1.27,0,0,1,1.28-1.27,1.27,1.27,0,0,0,1.27-1.28,1.27,1.27,0,0,1,1.28-1.27,1.28,1.28,0,0,0,0-2.55H29.58a1.28,1.28,0,1,1,0-2.55h2.55a1.28,1.28,0,0,0,0-2.55,1.28,1.28,0,1,1,0-2.55,1.28,1.28,0,0,0,0-2.55H29.58a1.27,1.27,0,0,0-1.28,1.27A1.27,1.27,0,0,1,27,36a1.27,1.27,0,0,0-1.28,1.27,1.28,1.28,0,1,1-2.55,0A1.27,1.27,0,0,0,21.92,36H19.38a1.27,1.27,0,0,0-1.28,1.27,1.27,1.27,0,0,1-1.27,1.28,1.28,1.28,0,1,0,0,2.55h2.55a1.27,1.27,0,0,1,1.27,1.28,1.28,1.28,0,0,0,2.55,0,1.28,1.28,0,1,1,1.27,1.27,1.28,1.28,0,0,0,0,2.55,1.28,1.28,0,1,1,0,2.55H19.38A1.27,1.27,0,0,0,18.1,50a1.28,1.28,0,1,1-1.27-1.27,1.28,1.28,0,0,0,0-2.55,1.27,1.27,0,0,1-1.28-1.27,1.27,1.27,0,0,0-1.27-1.28A1.27,1.27,0,0,1,13,42.33a1.28,1.28,0,0,0-1.28-1.28H9.17a1.28,1.28,0,0,0,0,2.55,1.28,1.28,0,0,1,1.28,1.28,1.27,1.27,0,0,0,1.27,1.27,1.28,1.28,0,1,1,0,2.55A1.27,1.27,0,0,0,10.45,50v2.56A1.27,1.27,0,0,1,9.17,53.8,1.27,1.27,0,0,0,7.9,55.08v2.55A1.27,1.27,0,0,0,9.17,58.9h2.55A1.27,1.27,0,0,1,13,60.17v2.55A1.28,1.28,0,0,0,14.28,64h2.55a1.27,1.27,0,0,1,1.27,1.28v5.1a1.28,1.28,0,0,0,2.55,0V62.72a1.27,1.27,0,0,1,1.27-1.27h2.55a1.28,1.28,0,1,0,0-2.55Z"/><path d="M29.58,61.45a1.27,1.27,0,0,1,1.27,1.27,1.28,1.28,0,1,0,2.55,0V60.17a1.27,1.27,0,0,0-1.27-1.27H29.58a1.28,1.28,0,1,0,0,2.55Z"/><path d="M80.58,61.45a1.28,1.28,0,1,0-1.28-1.28A1.27,1.27,0,0,0,80.58,61.45Z"/><path d="M27,64a1.28,1.28,0,1,0-1.28-1.28A1.27,1.27,0,0,0,27,64Z"/><path d="M90.78,61.45a1.28,1.28,0,0,1-1.28-1.28,1.27,1.27,0,0,0-1.28-1.27H85.67a1.27,1.27,0,0,0-1.27,1.27,1.27,1.27,0,0,1-1.27,1.28,1.28,1.28,0,1,0,0,2.55h2.54A1.28,1.28,0,0,1,87,65.28a1.28,1.28,0,0,0,2.55,0A1.28,1.28,0,0,1,90.78,64a1.28,1.28,0,0,0,0-2.55Z"/><path d="M10.45,64V62.72a1.28,1.28,0,0,0-2.55,0v7.66a1.27,1.27,0,0,0,1.27,1.27h2.55a1.28,1.28,0,1,0,0-2.55,1.27,1.27,0,0,1-1.27-1.27V64Z"/><path d="M24.47,64a1.28,1.28,0,1,0,1.28,1.28A1.27,1.27,0,0,0,24.47,64Z"/><path d="M13,67.83a1.28,1.28,0,1,0,1.28-1.28A1.27,1.27,0,0,0,13,67.83Z"/><path d="M90.78,66.55a1.28,1.28,0,0,0-1.28,1.28v2.55a1.28,1.28,0,0,0,2.55,0V67.83A1.27,1.27,0,0,0,90.78,66.55Z"/><path d="M29.58,69.1a1.27,1.27,0,0,0,1.27-1.27V65.28a1.28,1.28,0,1,0-2.55,0A1.27,1.27,0,0,1,27,66.55a1.28,1.28,0,0,0-1.28,1.28,1.27,1.27,0,0,1-1.28,1.27,1.28,1.28,0,0,0,0,2.55H27a1.27,1.27,0,0,0,1.27-1.27A1.28,1.28,0,0,1,29.58,69.1Z"/><path d="M42.33,71.65a1.27,1.27,0,0,1,1.27,1.27,1.28,1.28,0,1,0,2.55,0,1.27,1.27,0,0,1,1.27-1.27,1.28,1.28,0,1,0,0-2.55,1.27,1.27,0,0,1-1.27-1.27,1.28,1.28,0,1,0-2.55,0,1.27,1.27,0,0,1-1.27,1.27,1.28,1.28,0,1,0,0,2.55Z"/><path d="M38.5,71.65V70.38a1.28,1.28,0,0,1,1.28-1.28,1.28,1.28,0,0,0,0-2.55H34.67a1.27,1.27,0,0,0-1.27,1.28v2.55a1.27,1.27,0,0,0,1.27,1.27,1.28,1.28,0,1,1,0,2.55H32.13a1.28,1.28,0,0,1-1.28-1.28,1.28,1.28,0,0,0-2.55,0v2.55a1.28,1.28,0,0,0,1.28,1.28h2.55A1.27,1.27,0,0,1,33.4,78a1.27,1.27,0,0,0,1.27,1.27A1.28,1.28,0,0,1,36,80.58a1.27,1.27,0,0,0,1.27,1.27h2.56a1.27,1.27,0,0,0,1.27-1.27V78a1.27,1.27,0,0,0-1.27-1.28,1.28,1.28,0,0,1-1.28-1.28V71.65Z"/><path d="M75.47,74.2a1.28,1.28,0,1,0,1.28,1.27A1.27,1.27,0,0,0,75.47,74.2Z"/><path d="M90.78,74.2a1.28,1.28,0,1,0,1.27,1.27A1.27,1.27,0,0,0,90.78,74.2Z"/><path d="M90.78,79.3a1.28,1.28,0,1,0,1.27,1.28A1.28,1.28,0,0,0,90.78,79.3Z"/><path d="M32.13,87a1.27,1.27,0,0,0,1.27-1.28,1.27,1.27,0,0,1,1.27-1.27,1.28,1.28,0,1,0,0-2.55H32.13a1.27,1.27,0,0,1-1.28-1.27,1.28,1.28,0,1,0-2.55,0v2.55a1.27,1.27,0,0,0,1.28,1.27,1.27,1.27,0,0,1,1.27,1.27A1.28,1.28,0,0,0,32.13,87Z"/><path d="M56.35,84.4V80.58a1.27,1.27,0,0,0-1.27-1.28A1.27,1.27,0,0,1,53.8,78a1.27,1.27,0,0,0-1.27-1.28,1.28,1.28,0,0,1-1.28-1.28A1.27,1.27,0,0,0,50,74.2H47.42a1.28,1.28,0,0,0,0,2.55A1.28,1.28,0,0,1,48.7,78,1.27,1.27,0,0,0,50,79.3a1.28,1.28,0,0,1,1.28,1.28v2.55a1.27,1.27,0,0,0,1.28,1.27,1.27,1.27,0,0,1,1.27,1.27,1.28,1.28,0,1,0,2.55,0Z"/><path d="M90.78,84.4a1.27,1.27,0,0,1-1.28-1.27,1.28,1.28,0,0,0-1.28-1.28H85.67a1.27,1.27,0,0,1-1.27-1.27V78a1.27,1.27,0,0,0-1.27-1.28,1.28,1.28,0,1,1,0-2.55h2.54A1.28,1.28,0,0,0,87,72.92V67.83a1.28,1.28,0,0,0-1.28-1.28H83.13a1.27,1.27,0,0,1-1.28-1.27A1.27,1.27,0,0,0,80.58,64H78a1.28,1.28,0,0,1-1.28-1.28,1.28,1.28,0,0,0-2.55,0A1.28,1.28,0,0,1,72.92,64H70.38a1.28,1.28,0,1,0,0,2.55,1.28,1.28,0,0,1,0,2.55,1.28,1.28,0,0,0-1.28,1.28,1.27,1.27,0,0,1-1.27,1.27,1.27,1.27,0,0,0-1.28,1.27,1.27,1.27,0,0,1-1.27,1.28H62.72a1.27,1.27,0,0,1-1.27-1.28V70.38a1.27,1.27,0,0,1,1.27-1.28h2.56a1.28,1.28,0,0,0,0-2.55H60.17a1.27,1.27,0,0,0-1.27,1.28v2.55a1.28,1.28,0,0,1-2.55,0,1.27,1.27,0,0,0-1.27-1.28,1.27,1.27,0,0,1-1.28-1.27,1.28,1.28,0,1,0-2.55,0v5.09a1.28,1.28,0,0,0,1.28,1.28,1.27,1.27,0,0,1,1.27,1.27,1.28,1.28,0,1,0,2.55,0,1.28,1.28,0,0,1,2.55,0v5.11a1.27,1.27,0,0,0,1.27,1.27h2.55a1.28,1.28,0,1,0,0-2.55,1.28,1.28,0,0,1,0-2.55h2.56A1.27,1.27,0,0,1,66.55,78a1.27,1.27,0,0,0,1.28,1.27,1.28,1.28,0,0,1,0,2.55,1.28,1.28,0,1,0,0,2.55,1.28,1.28,0,0,1,0,2.55,1.28,1.28,0,1,0,0,2.55h2.55a1.27,1.27,0,0,0,1.27-1.28,1.28,1.28,0,1,1,1.27,1.28,1.28,1.28,0,0,0,0,2.55h2.55a1.27,1.27,0,0,0,1.28-1.27V88.22A1.27,1.27,0,0,1,78,87a1.28,1.28,0,0,0,0-2.55H75.47a1.28,1.28,0,0,1,0-2.55H78a1.27,1.27,0,0,1,1.27,1.28,1.27,1.27,0,0,0,1.28,1.27h5.09A1.27,1.27,0,0,1,87,85.67,1.27,1.27,0,0,0,88.22,87h2.56a1.28,1.28,0,0,0,0-2.55Zm-8.93-14a1.28,1.28,0,1,1,1.28,1.27A1.28,1.28,0,0,1,81.85,70.38Zm-5.1,8.92H72.92A1.27,1.27,0,0,1,71.65,78V72.92a1.27,1.27,0,0,1,1.27-1.27H78a1.27,1.27,0,0,1,1.27,1.27V78A1.27,1.27,0,0,1,78,79.3Z"/><path d="M57.63,87a1.27,1.27,0,0,0-1.28,1.27v2.56a1.28,1.28,0,0,0,2.55,0V88.22A1.27,1.27,0,0,0,57.63,87Z"/><path d="M85.67,87A1.28,1.28,0,1,0,87,88.22,1.27,1.27,0,0,0,85.67,87Z"/><path d="M32.13,89.5a1.28,1.28,0,1,0,1.27,1.28A1.28,1.28,0,0,0,32.13,89.5Z"/><path d="M52.53,89.5a1.28,1.28,0,0,1-1.28-1.28V85.67A1.27,1.27,0,0,0,50,84.4a1.27,1.27,0,0,1-1.27-1.27,1.28,1.28,0,0,0-1.28-1.28,1.27,1.27,0,0,1-1.27-1.27V78a1.28,1.28,0,1,0-2.55,0v2.55a1.27,1.27,0,0,1-1.27,1.27,1.28,1.28,0,0,0-1.28,1.28v5.09a1.28,1.28,0,1,1-2.55,0A1.27,1.27,0,0,0,37.22,87H34.67a1.28,1.28,0,0,0,0,2.55A1.28,1.28,0,0,1,36,90.78a1.27,1.27,0,0,0,1.27,1.27h5.11a1.27,1.27,0,0,0,1.27-1.27,1.28,1.28,0,0,1,1.28-1.28h2.54a1.28,1.28,0,0,1,1.28,1.28A1.27,1.27,0,0,0,50,92.05h2.56a1.28,1.28,0,0,0,0-2.55ZM43.6,85.67A1.28,1.28,0,1,1,44.88,87,1.27,1.27,0,0,1,43.6,85.67Z"/><path d="M65.28,89.5a1.28,1.28,0,1,1,0-2.55,1.28,1.28,0,0,0,0-2.55H60.17a1.28,1.28,0,0,0,0,2.55,1.27,1.27,0,0,1,1.28,1.27v2.56a1.27,1.27,0,0,0,1.27,1.27h2.56a1.28,1.28,0,0,0,0-2.55Z"/><path d="M83.13,89.5a1.28,1.28,0,0,1-1.28-1.28,1.28,1.28,0,0,0-2.55,0v2.56a1.27,1.27,0,0,0,1.28,1.27h2.55a1.28,1.28,0,0,0,0-2.55Z"/><path d="M8.44,25.75H25.21a.54.54,0,0,0,.54-.54V8.44a.54.54,0,0,0-.54-.54H8.44a.54.54,0,0,0-.54.54V25.21A.54.54,0,0,0,8.44,25.75Zm2-5.1V10.76a.31.31,0,0,1,.31-.31H22.89a.31.31,0,0,1,.31.31V22.89a.31.31,0,0,1-.31.31H10.76a.31.31,0,0,1-.31-.31Z"/><path d="M13.54,20.65h6.57a.54.54,0,0,0,.54-.54V13.54a.54.54,0,0,0-.54-.54H13.54a.54.54,0,0,0-.54.54v6.57A.54.54,0,0,0,13.54,20.65Z"/><path d="M91.51,7.9H74.74a.54.54,0,0,0-.54.54V25.21a.54.54,0,0,0,.54.54H91.51a.54.54,0,0,0,.54-.54V8.44A.54.54,0,0,0,91.51,7.9Zm-2,5.1v9.89a.31.31,0,0,1-.31.31H77.06a.31.31,0,0,1-.31-.31V10.76a.31.31,0,0,1,.31-.31H89.19a.31.31,0,0,1,.31.31Z"/><path d="M86.41,13H79.84a.54.54,0,0,0-.54.54v6.57a.54.54,0,0,0,.54.54h6.57a.54.54,0,0,0,.54-.54V13.54A.54.54,0,0,0,86.41,13Z"/><path d="M25.21,74.2H8.44a.54.54,0,0,0-.54.54V91.51a.54.54,0,0,0,.54.54H25.21a.54.54,0,0,0,.54-.54V74.74A.54.54,0,0,0,25.21,74.2Zm-2,5.1v9.89a.31.31,0,0,1-.31.31H10.76a.31.31,0,0,1-.31-.31V77.06a.31.31,0,0,1,.31-.31H22.89a.31.31,0,0,1,.31.31Z"/><path d="M20.11,79.3H13.54a.54.54,0,0,0-.54.54v6.57a.54.54,0,0,0,.54.54h6.57a.54.54,0,0,0,.54-.54V79.84A.54.54,0,0,0,20.11,79.3Z"/><path class="cls-2" d="M57.08,53.9c.06.45-.07.64-.22.64s-.36-.18-.58-.54a1,1,0,0,1-.19-1,.32.32,0,0,1,.43-.12C56.89,53.06,57,53.62,57.08,53.9Zm-2.11,1c.46.39.6.85.36,1.16a.76.76,0,0,1-.61.27,1.06,1.06,0,0,1-.7-.26,1,1,0,0,1-.27-1.27.6.6,0,0,1,.48-.21A1.24,1.24,0,0,1,55,54.88Zm-.74,3.71a9.46,9.46,0,0,1,6.43,2.75c.24.21.55,0,.34-.3a10,10,0,0,0-6.57-3.95,7.08,7.08,0,0,1-4.88-3.65c-.19-.32-.27-.26-.28.15a8.72,8.72,0,0,0,.13,1.84h-.31a6.75,6.75,0,1,1,6.73-6.78h0a6.83,6.83,0,0,1-.06.79,10.2,10.2,0,0,0-2.14,0c-.25,0-.22.15,0,.18a4.69,4.69,0,0,1,4.11,4.3.07.07,0,0,0,.08,0l0,0a10.2,10.2,0,1,0-8.76,5C50.56,58.89,52,58.59,54.23,58.59Z"/></g></g></svg>