<svg xmlns="http://www.w3.org/2000/svg" xmlns:xlink="http://www.w3.org/1999/xlink" viewBox="0 0 100 100"><defs><style>.cls-1{fill:#fff;}.cls-2{fill:url(#linear-gradient);}</style><linearGradient id="linear-gradient" x1="1.98" y1="-0.91" x2="1.28" y2="0.02" gradientTransform="translate(12 59.98) scale(22.22 25.76)" gradientUnits="userSpaceOnUse"><stop offset="0" stop-color="#f59c07"/><stop offset="1" stop-color="#f57507"/></linearGradient></defs><g id="Layer_2" data-name="Layer 2"><g id="Ebene_1" data-name="Ebene 1"><rect class="cls-1" width="100" height="100"/><path d="M40.8,9.75A1.15,1.15,0,1,0,39.65,8.6,1.14,1.14,0,0,0,40.8,9.75Z"/><path d="M45.4,9.75A1.15,1.15,0,1,0,44.25,8.6,1.14,1.14,0,0,0,45.4,9.75Z"/><path d="M56.9,9.75h2.3a1.15,1.15,0,0,0,0-2.3H56.9a1.15,1.15,0,1,0,0,2.3Z"/><path d="M27,12.05a1.14,1.14,0,0,0,1.15-1.15A1.14,1.14,0,0,1,29.3,9.75a1.15,1.15,0,0,0,0-2.3H27A1.14,1.14,0,0,0,25.85,8.6v2.3A1.14,1.14,0,0,0,27,12.05Z"/><path d="M29.3,12.05a1.15,1.15,0,0,0,0,2.3,1.14,1.14,0,0,1,1.15,1.15,1.15,1.15,0,1,0,2.3,0,1.14,1.14,0,0,1,1.15-1.15h2.3a1.14,1.14,0,0,0,1.15-1.15V8.6A1.14,1.14,0,0,0,36.2,7.45H33.9a1.15,1.15,0,1,0,0,2.3,1.15,1.15,0,1,1-1.15,1.15,1.15,1.15,0,1,0-2.3,0A1.14,1.14,0,0,1,29.3,12.05Z"/><path d="M42,12.05V13.2a1.14,1.14,0,0,0,1.15,1.15h2.3a1.15,1.15,0,0,0,0-2.3,1.14,1.14,0,0,1-1.15-1.15,1.15,1.15,0,1,0-2.3,0Z"/><path d="M47.7,12.05a1.15,1.15,0,1,0-1.15-1.15A1.14,1.14,0,0,0,47.7,12.05Z"/><path d="M66.1,12.05h2.3a1.14,1.14,0,0,1,1.15,1.15v4.6a1.15,1.15,0,1,0,2.3,0V10.9A1.14,1.14,0,0,0,70.7,9.75,1.14,1.14,0,0,1,69.55,8.6a1.15,1.15,0,1,0-2.3,0A1.14,1.14,0,0,1,66.1,9.75a1.15,1.15,0,0,0,0,2.3Z"/><path d="M47.7,14.35a1.14,1.14,0,0,0-1.15,1.15v4.6a1.15,1.15,0,1,0,2.3,0A1.14,1.14,0,0,1,50,19h2.3a1.15,1.15,0,1,0,0-2.3,1.14,1.14,0,0,1-1.15-1.15V13.2a1.15,1.15,0,0,0-2.3,0A1.14,1.14,0,0,1,47.7,14.35Z"/><path d="M40.8,16.65a1.15,1.15,0,1,0-1.15-1.15A1.14,1.14,0,0,0,40.8,16.65Z"/><path d="M54.6,16.65a1.14,1.14,0,0,1,1.15,1.15,1.15,1.15,0,1,0,2.3,0,1.15,1.15,0,1,1,2.3,0A1.14,1.14,0,0,0,61.5,19h4.6a1.15,1.15,0,1,0,0-2.3H63.8a1.14,1.14,0,0,1-1.15-1.15,1.14,1.14,0,0,0-1.15-1.15H54.6a1.15,1.15,0,1,0,0,2.3Z"/><path d="M42,17.8a1.15,1.15,0,1,0,1.15-1.15A1.14,1.14,0,0,0,42,17.8Z"/><path d="M71.85,21.25V27a1.14,1.14,0,0,1-1.15,1.15,1.15,1.15,0,0,0,0,2.3,1.14,1.14,0,0,1,1.15,1.15A1.14,1.14,0,0,0,73,32.75a1.15,1.15,0,1,1,0,2.3,1.15,1.15,0,0,0,0,2.3,1.14,1.14,0,0,1,1.15,1.15,1.15,1.15,0,0,0,2.3,0,1.14,1.14,0,0,1,1.15-1.15,1.14,1.14,0,0,0,1.15-1.15V33.9a1.14,1.14,0,0,1,1.15-1.15,1.15,1.15,0,1,0,0-2.3H77.6a1.14,1.14,0,0,1-1.15-1.15,1.14,1.14,0,0,0-1.15-1.15A1.14,1.14,0,0,1,74.15,27V20.1a1.15,1.15,0,1,0-2.3,0Z"/><path d="M27,23.55a1.14,1.14,0,0,0,1.15-1.15V20.1A1.14,1.14,0,0,1,29.3,19a1.15,1.15,0,0,0,0-2.3,1.14,1.14,0,0,1-1.15-1.15,1.15,1.15,0,1,0-2.3,0v6.9A1.14,1.14,0,0,0,27,23.55Z"/><path d="M48.85,22.4A1.15,1.15,0,1,0,50,21.25,1.14,1.14,0,0,0,48.85,22.4Z"/><path d="M54.6,21.25a1.15,1.15,0,1,0,1.15,1.15A1.14,1.14,0,0,0,54.6,21.25Z"/><path d="M63.8,21.25A1.15,1.15,0,1,0,65,22.4,1.14,1.14,0,0,0,63.8,21.25Z"/><path d="M31.6,25.85a1.14,1.14,0,0,0,1.15-1.15V22.4a1.15,1.15,0,0,1,2.3,0,1.15,1.15,0,1,0,2.3,0V17.8a1.15,1.15,0,1,0-2.3,0A1.14,1.14,0,0,1,33.9,19H31.6a1.14,1.14,0,0,0-1.15,1.15v4.6A1.14,1.14,0,0,0,31.6,25.85Z"/><path d="M38.5,25.85a1.15,1.15,0,0,1,0,2.3,1.15,1.15,0,0,0,0,2.3h2.3A1.14,1.14,0,0,0,42,29.3V27a1.14,1.14,0,0,1,1.15-1.15h2.3a1.15,1.15,0,0,1,0,2.3,1.15,1.15,0,0,0,0,2.3h2.3a1.14,1.14,0,0,0,1.15-1.15A1.14,1.14,0,0,1,50,28.15h2.3A1.14,1.14,0,0,0,53.45,27V24.7a1.15,1.15,0,0,0-2.3,0,1.15,1.15,0,0,1-2.3,0,1.14,1.14,0,0,0-1.15-1.15,1.14,1.14,0,0,1-1.15-1.15,1.15,1.15,0,0,0-2.3,0,1.15,1.15,0,0,1-2.3,0V20.1a1.15,1.15,0,0,0-2.3,0v2.3a1.14,1.14,0,0,1-1.15,1.15,1.15,1.15,0,1,0,0,2.3Z"/><path d="M60.35,23.55V22.4a1.15,1.15,0,0,0-2.3,0v2.3a1.15,1.15,0,1,0,2.3,0Z"/><path d="M68.4,25.85a1.14,1.14,0,0,0,1.15-1.15V20.1a1.15,1.15,0,0,0-2.3,0v4.6A1.14,1.14,0,0,0,68.4,25.85Z"/><circle cx="15.5" cy="27" r="1.15"/><path d="M23.55,27a1.15,1.15,0,1,0-1.15,1.15A1.14,1.14,0,0,0,23.55,27Z"/><path d="M56.9,28.15A1.15,1.15,0,1,0,55.75,27,1.14,1.14,0,0,0,56.9,28.15Z"/><path d="M84.5,25.85H79.9a1.15,1.15,0,0,0,0,2.3,1.14,1.14,0,0,1,1.15,1.15,1.14,1.14,0,0,0,1.15,1.15h2.3a1.14,1.14,0,0,0,1.15-1.15V27A1.14,1.14,0,0,0,84.5,25.85Z"/><path d="M91.4,25.85H89.1a1.15,1.15,0,1,0,0,2.3h2.3a1.15,1.15,0,0,0,0-2.3Z"/><path d="M13.2,30.45a1.15,1.15,0,1,0-1.15-1.15A1.14,1.14,0,0,0,13.2,30.45Z"/><path d="M24.7,30.45a1.15,1.15,0,1,0-1.15-1.15A1.14,1.14,0,0,0,24.7,30.45Z"/><path d="M54.6,30.45a1.15,1.15,0,1,0-1.15-1.15A1.14,1.14,0,0,0,54.6,30.45Z"/><path d="M66.1,30.45A1.15,1.15,0,1,0,65,29.3,1.14,1.14,0,0,0,66.1,30.45Z"/><path d="M8.6,30.45A1.15,1.15,0,1,0,9.75,31.6,1.14,1.14,0,0,0,8.6,30.45Z"/><path d="M19,30.45H17.8a1.14,1.14,0,0,0-1.15,1.15v2.3a1.15,1.15,0,1,0,2.3,0,1.14,1.14,0,0,1,1.15-1.15h2.3a1.15,1.15,0,0,0,0-2.3H19Z"/><path d="M35.05,32.75H36.2a1.15,1.15,0,0,0,0-2.3,1.14,1.14,0,0,1-1.15-1.15,1.15,1.15,0,1,0-2.3,0,1.14,1.14,0,0,1-1.15,1.15,1.15,1.15,0,0,0,0,2.3h3.45Z"/><path d="M43.1,32.75A1.15,1.15,0,1,0,42,31.6,1.14,1.14,0,0,0,43.1,32.75Z"/><path d="M48.85,31.6A1.15,1.15,0,1,0,50,30.45,1.14,1.14,0,0,0,48.85,31.6Z"/><path d="M56.9,32.75h2.3a1.15,1.15,0,0,0,0-2.3H56.9a1.15,1.15,0,0,0,0,2.3Z"/><path d="M67.25,32.75V33.9a1.15,1.15,0,1,0,2.3,0V31.6a1.15,1.15,0,0,0-2.3,0Z"/><path d="M91.4,30.45a1.14,1.14,0,0,0-1.15,1.15v2.3a1.14,1.14,0,0,1-1.15,1.15,1.15,1.15,0,1,0,0,2.3,1.14,1.14,0,0,1,1.15,1.15v4.6a1.15,1.15,0,0,1-2.3,0A1.14,1.14,0,0,0,86.8,42H84.5a1.15,1.15,0,0,0,0,2.3,1.14,1.14,0,0,1,1.15,1.15,1.14,1.14,0,0,0,1.15,1.15h4.6a1.14,1.14,0,0,0,1.15-1.15V31.6A1.14,1.14,0,0,0,91.4,30.45Z"/><path d="M10.9,35.05a1.15,1.15,0,0,0,0,2.3h2.3a1.14,1.14,0,0,1,1.15,1.15,1.15,1.15,0,1,0,2.3,0V36.2a1.14,1.14,0,0,0-1.15-1.15,1.14,1.14,0,0,1-1.15-1.15,1.15,1.15,0,0,0-2.3,0A1.14,1.14,0,0,1,10.9,35.05Z"/><path d="M82.2,32.75a1.15,1.15,0,1,0,1.15,1.15A1.14,1.14,0,0,0,82.2,32.75Z"/><path d="M88,32.75V31.6a1.15,1.15,0,0,0-2.3,0v2.3a1.15,1.15,0,0,0,2.3,0Z"/><path d="M22.4,35.05a1.15,1.15,0,1,0,1.15,1.15A1.14,1.14,0,0,0,22.4,35.05Z"/><path d="M31.6,35.05a1.14,1.14,0,0,1-1.15-1.15,1.14,1.14,0,0,0-1.15-1.15,1.14,1.14,0,0,1-1.15-1.15,1.15,1.15,0,1,0-2.3,0v2.3A1.14,1.14,0,0,0,27,35.05a1.14,1.14,0,0,1,1.15,1.15,1.14,1.14,0,0,0,1.15,1.15h2.3a1.15,1.15,0,0,0,0-2.3Z"/><path d="M20.1,37.35a1.15,1.15,0,1,0,1.15,1.15A1.14,1.14,0,0,0,20.1,37.35Z"/><path d="M68.4,37.35a1.14,1.14,0,0,0-1.15,1.15v2.3A1.14,1.14,0,0,0,68.4,42H73a1.15,1.15,0,1,0,0-2.3H70.7a1.14,1.14,0,0,1-1.15-1.15A1.14,1.14,0,0,0,68.4,37.35Z"/><path d="M84.5,39.65h2.3a1.15,1.15,0,1,0,0-2.3,1.14,1.14,0,0,1-1.15-1.15,1.15,1.15,0,0,0-2.3,0v2.3A1.14,1.14,0,0,0,84.5,39.65Z"/><path d="M8.6,42h4.6a1.15,1.15,0,0,0,0-2.3H8.6a1.15,1.15,0,0,0,0,2.3Z"/><path d="M22.4,42a1.15,1.15,0,1,0-1.15-1.15A1.14,1.14,0,0,0,22.4,42Z"/><path d="M27,42a1.15,1.15,0,1,0-1.15-1.15A1.14,1.14,0,0,0,27,42Z"/><path d="M82.2,39.65H77.6a1.14,1.14,0,0,0-1.15,1.15A1.14,1.14,0,0,1,75.3,42a1.14,1.14,0,0,0-1.15,1.15A1.14,1.14,0,0,1,73,44.25a1.15,1.15,0,0,0,0,2.3,1.15,1.15,0,0,1,0,2.3,1.15,1.15,0,0,0,0,2.3h2.3a1.14,1.14,0,0,1,1.15,1.15v2.3a1.15,1.15,0,0,0,2.3,0,1.14,1.14,0,0,1,1.15-1.15,1.15,1.15,0,0,0,0-2.3A1.14,1.14,0,0,1,78.75,50V47.7a1.14,1.14,0,0,0-1.15-1.15,1.15,1.15,0,1,1,0-2.3,1.14,1.14,0,0,0,1.15-1.15A1.14,1.14,0,0,1,79.9,42h2.3a1.15,1.15,0,0,0,0-2.3Z"/><path d="M15.5,42a1.15,1.15,0,1,0,1.15,1.15A1.14,1.14,0,0,0,15.5,42Z"/><path d="M32.75,44.25V43.1A1.14,1.14,0,0,0,31.6,42H29.3a1.14,1.14,0,0,0-1.15,1.15,1.15,1.15,0,0,1-2.3,0,1.15,1.15,0,0,0-2.3,0,1.14,1.14,0,0,1-1.15,1.15,1.15,1.15,0,0,0,0,2.3,1.15,1.15,0,0,1,0,2.3,1.15,1.15,0,0,0,0,2.3,1.14,1.14,0,0,1,1.15,1.15,1.14,1.14,0,0,0,1.15,1.15H27a1.15,1.15,0,1,0,0-2.3A1.14,1.14,0,0,1,25.85,50V47.7a1.15,1.15,0,1,1,2.3,0,1.15,1.15,0,1,0,2.3,0,1.14,1.14,0,0,1,1.15-1.15,1.14,1.14,0,0,0,1.15-1.15Z"/><path d="M68.4,44.25a1.15,1.15,0,1,0,1.15,1.15A1.14,1.14,0,0,0,68.4,44.25Z"/><path d="M82.2,44.25H79.9a1.15,1.15,0,0,0,0,2.3,1.14,1.14,0,0,1,1.15,1.15,1.15,1.15,0,1,0,2.3,0V45.4A1.14,1.14,0,0,0,82.2,44.25Z"/><path d="M70.7,48.85a1.15,1.15,0,1,0-1.15-1.15A1.14,1.14,0,0,0,70.7,48.85Z"/><path d="M31.6,48.85A1.15,1.15,0,1,0,32.75,50,1.14,1.14,0,0,0,31.6,48.85Z"/><circle cx="84.5" cy="50" r="1.15"/><path d="M91.4,48.85H89.1A1.14,1.14,0,0,0,88,50a1.14,1.14,0,0,1-1.15,1.15,1.15,1.15,0,1,0,0,2.3A1.14,1.14,0,0,1,88,54.6v2.3a1.14,1.14,0,0,0,1.15,1.15A1.15,1.15,0,1,1,88,59.2a1.15,1.15,0,0,0-2.3,0v6.9a1.14,1.14,0,0,0,1.15,1.15h4.6a1.14,1.14,0,0,0,1.15-1.15V56.9a1.14,1.14,0,0,0-1.15-1.15,1.15,1.15,0,0,1,0-2.3,1.14,1.14,0,0,0,1.15-1.15V50A1.14,1.14,0,0,0,91.4,48.85Z"/><path d="M20.1,53.45a1.15,1.15,0,0,0,0-2.3A1.14,1.14,0,0,1,19,50a1.14,1.14,0,0,0-1.15-1.15,1.14,1.14,0,0,1-1.15-1.15,1.15,1.15,0,1,0-2.3,0,1.15,1.15,0,0,1-2.3,0,1.14,1.14,0,0,0-1.15-1.15A1.14,1.14,0,0,1,9.75,45.4a1.15,1.15,0,0,0-2.3,0v2.3A1.14,1.14,0,0,0,8.6,48.85,1.14,1.14,0,0,1,9.75,50a1.14,1.14,0,0,0,1.15,1.15h4.6a1.14,1.14,0,0,1,1.15,1.15,1.14,1.14,0,0,0,1.15,1.15h2.3Z"/><path d="M22.4,53.45a1.15,1.15,0,1,0,1.15,1.15A1.14,1.14,0,0,0,22.4,53.45Z"/><path d="M31.6,53.45H29.3a1.14,1.14,0,0,0-1.15,1.15A1.14,1.14,0,0,1,27,55.75a1.14,1.14,0,0,0-1.15,1.15v2.3A1.14,1.14,0,0,0,27,60.35h2.3a1.14,1.14,0,0,0,1.15-1.15V56.9a1.14,1.14,0,0,1,1.15-1.15,1.15,1.15,0,0,0,0-2.3Z"/><path d="M84.5,53.45a1.15,1.15,0,1,0,1.15,1.15A1.14,1.14,0,0,0,84.5,53.45Z"/><path d="M20.1,58.05A1.15,1.15,0,1,0,19,56.9,1.14,1.14,0,0,0,20.1,58.05Z"/><path d="M17.8,60.35a1.15,1.15,0,1,0-1.15-1.15A1.14,1.14,0,0,0,17.8,60.35Z"/><path d="M22.4,60.35a1.15,1.15,0,1,0-1.15-1.15A1.14,1.14,0,0,0,22.4,60.35Z"/><path d="M69.55,58.05V54.6a1.15,1.15,0,1,0-2.3,0v4.6a1.15,1.15,0,1,0,2.3,0Z"/><path d="M82.2,60.35a1.15,1.15,0,1,0,1.15,1.15A1.14,1.14,0,0,0,82.2,60.35Z"/><path d="M10.9,62.65h2.3a1.14,1.14,0,0,0,1.15-1.15V59.2a1.14,1.14,0,0,1,1.15-1.15,1.15,1.15,0,1,0,0-2.3H13.2a1.14,1.14,0,0,1-1.15-1.15,1.14,1.14,0,0,0-1.15-1.15H8.6a1.15,1.15,0,0,0,0,2.3A1.14,1.14,0,0,1,9.75,56.9a1.14,1.14,0,0,0,1.15,1.15A1.15,1.15,0,1,1,9.75,59.2a1.15,1.15,0,1,0-2.3,0v4.6a1.15,1.15,0,0,0,2.3,0A1.14,1.14,0,0,1,10.9,62.65Z"/><path d="M73,65a1.14,1.14,0,0,0,1.15-1.15V61.5a1.15,1.15,0,0,1,2.3,0,1.15,1.15,0,0,0,2.3,0V59.2a1.14,1.14,0,0,0-1.15-1.15,1.14,1.14,0,0,1-1.15-1.15,1.15,1.15,0,0,0-2.3,0A1.14,1.14,0,0,1,73,58.05a1.14,1.14,0,0,0-1.15,1.15v4.6A1.14,1.14,0,0,0,73,65Z"/><path d="M68.4,67.25a1.14,1.14,0,0,0,1.15-1.15V63.8a1.15,1.15,0,1,0-2.3,0v2.3A1.14,1.14,0,0,0,68.4,67.25Z"/><path d="M8.6,67.25A1.15,1.15,0,1,0,9.75,68.4,1.14,1.14,0,0,0,8.6,67.25Z"/><path d="M43.1,69.55A1.15,1.15,0,1,0,42,68.4,1.14,1.14,0,0,0,43.1,69.55Z"/><path d="M36.2,71.85h4.6a1.15,1.15,0,0,0,0-2.3H38.5a1.14,1.14,0,0,1-1.15-1.15,1.15,1.15,0,1,0-2.3,0v2.3A1.14,1.14,0,0,0,36.2,71.85Z"/><path d="M91.4,69.55H89.1A1.14,1.14,0,0,0,88,70.7a1.15,1.15,0,0,1-2.3,0V68.4a1.14,1.14,0,0,0-1.15-1.15,1.14,1.14,0,0,1-1.15-1.15A1.14,1.14,0,0,0,82.2,65a1.14,1.14,0,0,1-1.15-1.15,1.15,1.15,0,1,0-2.3,0v2.3a1.14,1.14,0,0,0,1.15,1.15,1.14,1.14,0,0,1,1.15,1.15,1.14,1.14,0,0,0,1.15,1.15,1.15,1.15,0,0,1,0,2.3H79.9a1.14,1.14,0,0,1-1.15-1.15V68.4a1.15,1.15,0,1,0-2.3,0v2.3a1.15,1.15,0,0,1-2.3,0V68.4A1.14,1.14,0,0,0,73,67.25H70.7a1.15,1.15,0,0,0,0,2.3,1.14,1.14,0,0,1,1.15,1.15v4.6a1.14,1.14,0,0,1-1.15,1.15,1.14,1.14,0,0,0-1.15,1.15v2.3a1.14,1.14,0,0,0,1.15,1.15,1.14,1.14,0,0,1,1.15,1.15v2.3A1.14,1.14,0,0,0,73,85.65h2.3a1.14,1.14,0,0,0,1.15-1.15,1.14,1.14,0,0,1,1.15-1.15h4.6a1.14,1.14,0,0,0,1.15-1.15,1.14,1.14,0,0,1,1.15-1.15,1.15,1.15,0,1,0,0-2.3,1.14,1.14,0,0,1-1.15-1.15V75.3a1.14,1.14,0,0,1,1.15-1.15h2.3A1.14,1.14,0,0,1,88,75.3v2.3a1.14,1.14,0,0,0,1.15,1.15,1.14,1.14,0,0,1,1.15,1.15v2.3a1.15,1.15,0,1,0,2.3,0V70.7A1.14,1.14,0,0,0,91.4,69.55Zm-10.35,9.2V79.9a1.14,1.14,0,0,1-1.15,1.15H75.3a1.14,1.14,0,0,1-1.15-1.15V75.3a1.14,1.14,0,0,1,1.15-1.15h4.6a1.14,1.14,0,0,1,1.15,1.15v3.45Z"/><path d="M27,71.85h4.6a1.14,1.14,0,0,0,1.15-1.15V66.1a1.15,1.15,0,0,0-2.3,0v2.3a1.15,1.15,0,0,1-2.3,0V66.1a1.15,1.15,0,0,0-2.3,0,1.14,1.14,0,0,1-1.15,1.15H22.4a1.15,1.15,0,0,0,0,2.3,1.15,1.15,0,0,1,0,2.3H17.8a1.15,1.15,0,1,1,0-2.3A1.14,1.14,0,0,0,19,68.4V66.1A1.14,1.14,0,0,1,20.1,65h2.3a1.15,1.15,0,1,0,0-2.3,1.14,1.14,0,0,1-1.15-1.15,1.15,1.15,0,1,0-2.3,0,1.14,1.14,0,0,1-1.15,1.15,1.14,1.14,0,0,0-1.15,1.15A1.14,1.14,0,0,1,15.5,65a1.14,1.14,0,0,0-1.15,1.15v2.3a1.14,1.14,0,0,1-1.15,1.15H10.9A1.14,1.14,0,0,0,9.75,70.7,1.14,1.14,0,0,1,8.6,71.85a1.15,1.15,0,1,0,0,2.3H24.7A1.14,1.14,0,0,0,25.85,73,1.14,1.14,0,0,1,27,71.85Z"/><path d="M31.6,74.15H27a1.15,1.15,0,1,0,0,2.3h4.6a1.15,1.15,0,1,0,0-2.3Z"/><path d="M47.7,76.45a1.15,1.15,0,1,0,1.15,1.15A1.14,1.14,0,0,0,47.7,76.45Z"/><path d="M77.6,76.45a1.15,1.15,0,1,0,1.15,1.15A1.14,1.14,0,0,0,77.6,76.45Z"/><path d="M86.8,83.35a1.15,1.15,0,1,0-1.15-1.15A1.14,1.14,0,0,0,86.8,83.35Z"/><path d="M45.4,85.65a1.15,1.15,0,1,0-1.15-1.15A1.14,1.14,0,0,0,45.4,85.65Z"/><path d="M52.3,83.35a1.14,1.14,0,0,1-1.15-1.15A1.14,1.14,0,0,0,50,81.05H47.7a1.15,1.15,0,0,0,0,2.3,1.15,1.15,0,0,1,0,2.3,1.15,1.15,0,1,0,0,2.3H50a1.14,1.14,0,0,0,1.15-1.15,1.14,1.14,0,0,1,1.15-1.15,1.15,1.15,0,1,0,0-2.3Z"/><path d="M68.4,85.65a1.14,1.14,0,0,0,1.15-1.15V82.2a1.14,1.14,0,0,0-1.15-1.15,1.14,1.14,0,0,1-1.15-1.15V75.3a1.14,1.14,0,0,0-1.15-1.15H61.5a1.15,1.15,0,1,1,0-2.3,1.14,1.14,0,0,0,1.15-1.15,1.14,1.14,0,0,1,1.15-1.15h2.3a1.15,1.15,0,1,0,0-2.3H61.5a1.14,1.14,0,0,0-1.15,1.15,1.14,1.14,0,0,1-1.15,1.15H56.9a1.14,1.14,0,0,1-1.15-1.15,1.14,1.14,0,0,0-1.15-1.15H52.3a1.15,1.15,0,0,0,0,2.3,1.14,1.14,0,0,1,1.15,1.15,1.14,1.14,0,0,0,1.15,1.15h2.3a1.15,1.15,0,0,1,0,2.3,1.14,1.14,0,0,0-1.15,1.15,1.15,1.15,0,0,1-2.3,0,1.14,1.14,0,0,0-1.15-1.15A1.14,1.14,0,0,1,51.15,73a1.15,1.15,0,1,0-2.3,0v2.3A1.14,1.14,0,0,0,50,76.45a1.14,1.14,0,0,1,1.15,1.15,1.14,1.14,0,0,0,1.15,1.15,1.14,1.14,0,0,1,1.15,1.15v2.3a1.14,1.14,0,0,0,1.15,1.15h2.3a1.14,1.14,0,0,0,1.15-1.15,1.14,1.14,0,0,1,1.15-1.15,1.14,1.14,0,0,0,1.15-1.15,1.14,1.14,0,0,1,1.15-1.15h2.3A1.14,1.14,0,0,1,65,79.9v2.3a1.15,1.15,0,1,1-2.3,0,1.15,1.15,0,1,0-2.3,0,1.14,1.14,0,0,1-1.15,1.15,1.15,1.15,0,1,0,0,2.3h9.2Z"/><circle cx="84.5" cy="84.5" r="1.15"/><path d="M77.6,85.65a1.15,1.15,0,1,0,1.15,1.15A1.14,1.14,0,0,0,77.6,85.65Z"/><path d="M82.2,85.65a1.15,1.15,0,1,0,1.15,1.15A1.14,1.14,0,0,0,82.2,85.65Z"/><path d="M91.4,85.65a1.14,1.14,0,0,0-1.15,1.15,1.15,1.15,0,0,1-2.3,0,1.15,1.15,0,0,0-2.3,0v2.3a1.14,1.14,0,0,0,1.15,1.15A1.14,1.14,0,0,1,88,91.4a1.14,1.14,0,0,0,1.15,1.15h2.3a1.14,1.14,0,0,0,1.15-1.15V86.8A1.14,1.14,0,0,0,91.4,85.65Z"/><path d="M29.3,88a1.14,1.14,0,0,0-1.15,1.15v2.3a1.15,1.15,0,0,0,2.3,0V89.1A1.14,1.14,0,0,0,29.3,88Z"/><path d="M43.1,88a1.15,1.15,0,1,0,1.15,1.15A1.14,1.14,0,0,0,43.1,88Z"/><path d="M61.5,88a1.15,1.15,0,1,0,1.15,1.15A1.14,1.14,0,0,0,61.5,88Z"/><path d="M75.3,88H73a1.14,1.14,0,0,1-1.15-1.15,1.15,1.15,0,0,0-2.3,0A1.14,1.14,0,0,1,68.4,88a1.15,1.15,0,1,0,0,2.3,1.14,1.14,0,0,1,1.15,1.15,1.15,1.15,0,1,0,2.3,0A1.14,1.14,0,0,1,73,90.25h2.3a1.15,1.15,0,1,0,0-2.3Z"/><path d="M40.8,90.25a1.14,1.14,0,0,1-1.15-1.15V84.5a1.14,1.14,0,0,1,1.15-1.15h2.3a1.14,1.14,0,0,0,1.15-1.15V79.9a1.15,1.15,0,1,0-2.3,0,1.14,1.14,0,0,1-1.15,1.15H38.5a1.14,1.14,0,0,0-1.15,1.15,1.14,1.14,0,0,1-1.15,1.15,1.15,1.15,0,0,0,0,2.3,1.15,1.15,0,1,1-1.15,1.15,1.14,1.14,0,0,0-1.15-1.15,1.14,1.14,0,0,1-1.15-1.15,1.14,1.14,0,0,0-1.15-1.15,1.15,1.15,0,1,1,0-2.3h2.3a1.14,1.14,0,0,0,1.15-1.15,1.14,1.14,0,0,1,1.15-1.15h4.6a1.15,1.15,0,0,0,0-2.3H33.9a1.14,1.14,0,0,0-1.15,1.15,1.14,1.14,0,0,1-1.15,1.15H29.3a1.14,1.14,0,0,0-1.15,1.15v2.3A1.14,1.14,0,0,1,27,83.35a1.15,1.15,0,1,0,0,2.3h2.3a1.14,1.14,0,0,1,1.15,1.15A1.14,1.14,0,0,0,31.6,88a1.14,1.14,0,0,1,1.15,1.15v2.3a1.15,1.15,0,1,0,2.3,0,1.15,1.15,0,1,1,2.3,0,1.14,1.14,0,0,0,1.15,1.15h2.3a1.15,1.15,0,0,0,0-2.3Z"/><path d="M47.7,90.25H45.4a1.15,1.15,0,0,0,0,2.3h2.3a1.15,1.15,0,0,0,0-2.3Z"/><path d="M59.2,90.25a1.14,1.14,0,0,1-1.15-1.15V86.8a1.14,1.14,0,0,0-1.15-1.15H54.6a1.14,1.14,0,0,0-1.15,1.15v4.6a1.14,1.14,0,0,0,1.15,1.15h4.6a1.15,1.15,0,0,0,0-2.3Z"/><path d="M82.2,90.25a1.14,1.14,0,0,1-1.15-1.15,1.15,1.15,0,0,0-2.3,0v2.3a1.14,1.14,0,0,0,1.15,1.15h2.3a1.15,1.15,0,0,0,0-2.3Z"/><path d="M7.94,23.55H23.06a.49.49,0,0,0,.49-.49V7.94a.49.49,0,0,0-.49-.49H7.94a.49.49,0,0,0-.49.49V23.06A.49.49,0,0,0,7.94,23.55ZM9.75,19V10A.28.28,0,0,1,10,9.75H21a.28.28,0,0,1,.28.28V21a.28.28,0,0,1-.28.28H10A.28.28,0,0,1,9.75,21Z"/><path d="M12.54,19h5.92a.49.49,0,0,0,.49-.49V12.54a.49.49,0,0,0-.49-.49H12.54a.49.49,0,0,0-.49.49v5.92A.49.49,0,0,0,12.54,19Z"/><path d="M92.06,7.45H76.94a.49.49,0,0,0-.49.49V23.06a.49.49,0,0,0,.49.49H92.06a.49.49,0,0,0,.49-.49V7.94A.49.49,0,0,0,92.06,7.45Zm-1.81,4.6V21a.28.28,0,0,1-.28.28H79a.28.28,0,0,1-.28-.28V10A.28.28,0,0,1,79,9.75H90a.28.28,0,0,1,.28.28Z"/><path d="M87.46,12.05H81.54a.49.49,0,0,0-.49.49v5.92a.49.49,0,0,0,.49.49h5.92a.49.49,0,0,0,.49-.49V12.54A.49.49,0,0,0,87.46,12.05Z"/><path d="M23.06,76.45H7.94a.49.49,0,0,0-.49.49V92.06a.49.49,0,0,0,.49.49H23.06a.49.49,0,0,0,.49-.49V76.94A.49.49,0,0,0,23.06,76.45Zm-1.81,4.6V90a.28.28,0,0,1-.28.28H10A.28.28,0,0,1,9.75,90V79a.28.28,0,0,1,.28-.28H21a.28.28,0,0,1,.28.28Z"/><path d="M18.46,81.05H12.54a.49.49,0,0,0-.49.49v5.92a.49.49,0,0,0,.49.49h5.92a.49.49,0,0,0,.49-.49V81.54A.49.49,0,0,0,18.46,81.05Z"/><path id="DA_Logo" data-name="DA Logo" class="cls-2" d="M50.11,52H48.47a.39.39,0,0,1-.25-.1.29.29,0,0,1-.08-.23l.14-1.48a.31.31,0,0,1,.32-.27h1.64a.31.31,0,0,1,.34.33l-.15,1.47A.32.32,0,0,1,50.11,52Zm.26-2.9H48.71a.32.32,0,0,1-.32-.32l.45-5a.33.33,0,0,1,.33-.29h1.66a.33.33,0,0,1,.33.32l-.47,5a.32.32,0,0,1-.32.28Zm9.8-5.79a1,1,0,0,1,.24.74l-.64,7.41a1,1,0,0,1-.33.64l-5.32,5.15a1,1,0,0,1-.71.29H47.75l-5,4.55.38-4.58H40.6a1.07,1.07,0,0,1-.75-.32,1,1,0,0,1-.26-.77l1.55-17.57a1,1,0,0,1,1-.91H55.08a1,1,0,0,1,.77.36Zm-4,6.73.42-4.58a1,1,0,0,0-.26-.73l-2.44-2.8a1,1,0,0,0-.77-.35H45.49a1,1,0,0,0-1,.91l-.92,10.29a1,1,0,0,0,1,1.09h7.61a1,1,0,0,0,.7-.28l3.09-2.91A1,1,0,0,0,56.22,50Z"/></g></g></svg>