<svg width="51" height="8" viewBox="0 0 51 8" fill="none" xmlns="http://www.w3.org/2000/svg">
<path d="M0 0.442078H4.09126C5.07736 0.442078 5.9116 0.595937 6.59398 0.903656C7.22224 1.16779 7.75571 1.61609 8.12408 2.18948C8.46892 2.75592 8.64564 3.40872 8.63362 4.07176C8.6412 4.73785 8.4576 5.39214 8.1046 5.95704C7.71083 6.5538 7.14774 7.0193 6.48757 7.29382C5.76424 7.62352 4.86755 7.78787 3.79753 7.78687H0V0.442078ZM3.75557 5.91808C4.41996 5.91808 4.9305 5.75223 5.28717 5.42053C5.46802 5.24515 5.60931 5.03315 5.70158 4.79873C5.79385 4.5643 5.83497 4.31287 5.82218 4.06127C5.83331 3.82772 5.7968 3.59435 5.71487 3.37536C5.63294 3.15636 5.50731 2.95633 5.34562 2.78744C5.02591 2.46973 4.54485 2.31037 3.90244 2.30937H2.6226V5.91808H3.75557Z" fill="#2F3136"/>
<path d="M14.7582 7.77489C14.2184 7.63964 13.7021 7.42392 13.2266 7.13497V5.39356C13.6417 5.69553 14.1092 5.91807 14.6053 6.04996C15.148 6.21556 15.7119 6.30187 16.2793 6.30623C16.4751 6.31668 16.6708 6.28288 16.8518 6.20732C16.9806 6.14138 17.0451 6.05746 17.0451 5.97054C17.0465 5.92197 17.0379 5.87364 17.0198 5.82853C17.0018 5.78342 16.9747 5.74249 16.9402 5.70828C16.8205 5.61621 16.68 5.55497 16.531 5.52994L15.2722 5.2467C14.5509 5.07885 14.0388 4.84656 13.7361 4.54983C13.5841 4.39656 13.4657 4.21336 13.3883 4.01187C13.3109 3.81038 13.2762 3.595 13.2865 3.3794C13.2815 2.98867 13.4238 2.61037 13.6851 2.31987C13.995 1.99208 14.3858 1.75172 14.8181 1.62301C15.3745 1.44814 15.9555 1.36463 16.5385 1.37573C17.0828 1.37062 17.6256 1.43406 18.1541 1.56456C18.5809 1.66569 18.9908 1.82824 19.371 2.04712V3.69561C19.0145 3.48879 18.6312 3.33196 18.232 3.22954C17.7995 3.11356 17.3535 3.05511 16.9057 3.0557C16.2483 3.0557 15.9196 3.1676 15.9196 3.39139C15.9185 3.44123 15.9321 3.49028 15.9588 3.5324C15.9855 3.57452 16.024 3.60784 16.0695 3.62818C16.2491 3.70454 16.4373 3.75889 16.63 3.79003L17.679 3.97886C18.3604 4.09875 18.8684 4.30856 19.2031 4.60828C19.5378 4.90801 19.7056 5.34661 19.7066 5.92408C19.712 6.22774 19.6377 6.5275 19.4913 6.79357C19.3448 7.05964 19.1313 7.28274 18.8719 7.44069C18.3194 7.81136 17.5306 7.99619 16.5056 7.99519C15.9161 7.9961 15.3289 7.92207 14.7582 7.77489Z" fill="#2F3136"/>
<path d="M22.1882 7.55458C21.6273 7.29688 21.1547 6.87995 20.8289 6.35567C20.5251 5.84154 20.3695 5.25334 20.3793 4.65622C20.3703 4.05946 20.5343 3.47285 20.8514 2.96727C21.1895 2.45122 21.6707 2.04499 22.2362 1.79833C22.9237 1.49876 23.6685 1.35349 24.4182 1.37272C25.4672 1.37272 26.3379 1.59302 27.0303 2.03362V3.95636C26.7669 3.77929 26.4791 3.64147 26.1761 3.54724C25.8368 3.44013 25.4828 3.38703 25.127 3.38988C24.4766 3.38988 23.9676 3.50877 23.5999 3.74655C23.4346 3.8388 23.2967 3.97317 23.2003 4.13601C23.1038 4.29884 23.0521 4.48433 23.0506 4.67359C23.0491 4.86286 23.0977 5.04915 23.1916 5.21352C23.2854 5.37789 23.4212 5.51446 23.5849 5.60935C23.9416 5.85013 24.4591 5.97052 25.1375 5.97052C25.4877 5.97136 25.836 5.92087 26.1716 5.82066C26.4776 5.73291 26.7716 5.60757 27.0468 5.4475V7.3058C26.2359 7.77858 25.3101 8.01818 24.3717 7.99817C23.6196 8.01869 22.8727 7.86696 22.1882 7.55458Z" fill="#2F3136"/>
<path d="M29.6406 7.55457C29.0734 7.2956 28.5924 6.87955 28.2544 6.35567C27.9358 5.84275 27.7705 5.24947 27.7778 4.64573C27.7676 4.04913 27.9334 3.46275 28.2544 2.95977C28.5942 2.44921 29.0732 2.04668 29.6346 1.79983C31.0137 1.24031 32.5566 1.24031 33.9357 1.79983C34.4949 2.04479 34.9719 2.44535 35.3099 2.95377C35.6287 3.45861 35.7928 4.04574 35.782 4.64273C35.7894 5.24587 35.6257 5.83877 35.3099 6.35267C34.9756 6.87691 34.4968 7.29327 33.9312 7.55157C33.2533 7.84227 32.5234 7.99217 31.7859 7.99217C31.0483 7.99217 30.3184 7.84227 29.6406 7.55157V7.55457ZM32.8282 5.69327C32.9578 5.55947 33.0587 5.40058 33.1247 5.22637C33.1906 5.05215 33.2203 4.86629 33.2118 4.6802C33.2209 4.49584 33.1914 4.31162 33.1254 4.13926C33.0593 3.96691 32.9581 3.8102 32.8282 3.67911C32.6872 3.54984 32.5217 3.45019 32.3415 3.38609C32.1613 3.32199 31.9701 3.29474 31.7791 3.30595C31.5883 3.29592 31.3974 3.32372 31.2173 3.38776C31.0373 3.4518 30.8717 3.55082 30.7301 3.67911C30.6006 3.81048 30.4998 3.96728 30.4341 4.13959C30.3683 4.3119 30.339 4.49598 30.3479 4.6802C30.3395 4.86616 30.3691 5.05188 30.4348 5.22605C30.5005 5.40022 30.601 5.55919 30.7301 5.69327C30.8703 5.82415 31.0355 5.92545 31.2157 5.9911C31.396 6.05676 31.5876 6.08544 31.7791 6.07542C31.9708 6.08657 32.1627 6.05843 32.3431 5.99271C32.5235 5.92699 32.6886 5.8251 32.8282 5.69327Z" fill="#2F3136"/>
<path d="M42.0889 1.76084V4.02977C41.7757 3.84288 41.4147 3.75172 41.0503 3.76751C40.4913 3.76751 40.0597 3.93835 39.76 4.27704C39.4602 4.61573 39.3104 5.14175 39.3104 5.8551V7.78534H36.7402V1.64844H39.2579V3.59666C39.3978 2.88331 39.6236 2.35729 39.9353 2.0186C40.0864 1.85206 40.2719 1.72026 40.4789 1.63229C40.6858 1.54433 40.9094 1.50229 41.1342 1.50907C41.47 1.49991 41.8013 1.58729 42.0889 1.76084Z" fill="#2F3136"/>
<path d="M50.6279 0.2323V7.7854H48.0578V6.40666C47.864 6.8975 47.5157 7.31199 47.0657 7.58758C46.5689 7.87064 46.0038 8.01166 45.4322 7.99521C44.8943 8.00773 44.3649 7.86011 43.9111 7.5711C43.4716 7.28562 43.1215 6.88204 42.901 6.40666C42.6604 5.88192 42.5405 5.30989 42.5503 4.73269C42.5334 4.13424 42.6609 3.54052 42.922 3.00177C43.162 2.50831 43.5366 2.09271 44.0025 1.80287C44.4815 1.51269 45.0326 1.3636 45.5925 1.37276C46.8154 1.37276 47.6372 1.90427 48.0578 2.9673V0.2323H50.6279ZM47.6801 5.65735C47.8111 5.52842 47.9138 5.37362 47.9817 5.20281C48.0495 5.032 48.0811 4.84892 48.0743 4.66525C48.0798 4.48708 48.0476 4.30976 47.9797 4.14496C47.9117 3.98015 47.8096 3.83161 47.6801 3.70912C47.3861 3.46973 47.0185 3.33902 46.6393 3.33902C46.2602 3.33902 45.8926 3.46973 45.5985 3.70912C45.4694 3.83443 45.3681 3.98553 45.3012 4.15259C45.2343 4.31965 45.2034 4.49893 45.2104 4.67874C45.2038 4.86024 45.2353 5.0411 45.303 5.20966C45.3706 5.37822 45.4728 5.53073 45.603 5.65735C45.7407 5.78534 45.9026 5.88454 46.0791 5.94913C46.2557 6.01373 46.4433 6.04241 46.6311 6.0335C46.8222 6.04406 47.0135 6.01621 47.1937 5.95161C47.3739 5.887 47.5393 5.78694 47.6801 5.65735Z" fill="#2F3136"/>
<path d="M10.8009 2.3019C11.5085 2.3019 12.0822 1.7866 12.0822 1.15095C12.0822 0.515297 11.5085 0 10.8009 0C10.0932 0 9.51953 0.515297 9.51953 1.15095C9.51953 1.7866 10.0932 2.3019 10.8009 2.3019Z" fill="#2F3136"/>
<path d="M9.51953 3.09467C9.92544 3.26526 10.3613 3.35313 10.8016 3.35313C11.2419 3.35313 11.6778 3.26526 12.0837 3.09467V7.81835H9.51953V3.09467Z" fill="#2F3136"/>
</svg>
