<svg width="30" height="30" viewBox="0 0 30 30" fill="none" xmlns="http://www.w3.org/2000/svg">
<g id="Asset 1 1" clip-path="url(#clip0_120_418)">
<g id="Layer 1">
<g id="Group">
<path id="Vector" d="M30 28.38L28.38 30L15 16.62L1.62 30L0 28.38L13.38 15L0 1.62L1.62 0L15 13.38L28.38 0L30 1.62L16.62 15L30 28.38Z" fill="#F05224"/>
<path id="Vector_2" d="M17.0284 25.104C18.1504 26.226 18.1504 28.038 17.0284 29.16C15.9064 30.282 14.0944 30.282 12.9724 29.16C11.8504 28.038 11.8504 26.226 12.9724 25.104C14.0944 23.982 15.9064 23.982 17.0284 25.104Z" fill="#F05224"/>
<path id="Vector_3" d="M12.9724 4.89597C11.8504 3.77397 11.8504 1.96197 12.9724 0.839974C14.0944 -0.282026 15.9064 -0.282026 17.0284 0.839974C18.1504 1.96197 18.1504 3.77397 17.0284 4.89597C15.9064 6.01797 14.0944 6.01797 12.9724 4.89597Z" fill="#F05224"/>
<path id="Vector_4" d="M25.1032 17.028C23.9812 15.906 23.9812 14.094 25.1032 12.972C26.2252 11.85 28.0372 11.85 29.1592 12.972C30.2812 14.094 30.2812 15.906 29.1592 17.028C28.0372 18.15 26.2252 18.15 25.1032 17.028Z" fill="#F05224"/>
<path id="Vector_5" d="M0.839547 17.028C-0.282453 15.906 -0.282453 14.094 0.839547 12.972C1.96155 11.85 3.77355 11.85 4.89555 12.972C6.01755 14.094 6.01755 15.906 4.89555 17.028C3.77355 18.15 1.96155 18.15 0.839547 17.028Z" fill="#F05224"/>
</g>
</g>
</g>
<defs>
<clipPath id="clip0_120_418">
<rect width="30" height="30" fill="white"/>
</clipPath>
</defs>
</svg>
