<?xml version="1.0" encoding="utf-8"?>
<!-- Generator: Adobe Illustrator 26.2.1, SVG Export Plug-In . SVG Version: 6.00 Build 0)  -->
<svg version="1.1" id="Layer_1" xmlns="http://www.w3.org/2000/svg" xmlns:xlink="http://www.w3.org/1999/xlink" x="0px" y="0px"
	 viewBox="0 0 50 50" style="enable-background:new 0 0 50 50;" xml:space="preserve">
<g>
	<polygon points="12.6,41.8 6.4,44.5 5.3,42 3.5,42.8 6.6,50 8.4,49.2 7.4,46.7 13.6,44.1 	"/>
	<path d="M11.3,36.2L8,36.4c-0.4,0-0.7,0-0.9-0.1c-0.2-0.1-0.4-0.3-0.5-0.5s-0.2-0.4-0.2-0.7s0.1-0.6,0.3-0.8c0.2-0.2,0.6-0.3,1-0.4
		l3.5-0.2L11,31.4l-3.9,0.2c-0.7,0-1.3,0.2-1.7,0.5c-0.4,0.3-0.7,0.6-0.9,1.1c-0.2,0.4-0.3,0.9-0.2,1.4c0,0.6,0.2,1.1,0.5,1.5
		c0.1,0.2,0.3,0.3,0.4,0.5l-3.8,0.2l0.1,2.4l9.9-0.6L11.3,36.2z"/>
	<path d="M6.3,28.4c0.4,0.5,1,0.8,1.6,1s1.3,0.2,1.9,0s1.1-0.5,1.6-1s0.8-1.1,1-1.9c0.2-0.6,0.3-1.2,0.2-1.7s-0.2-1-0.4-1.4
		l-1.6,0.8c0.1,0.3,0.2,0.5,0.2,0.8s0,0.5-0.1,0.9c-0.1,0.3-0.3,0.6-0.4,0.8C10,27,9.8,27.2,9.5,27.2c-0.1,0-0.2,0-0.4,0l1.4-4.7
		c-0.1,0-0.2-0.1-0.3-0.1s-0.2-0.1-0.3-0.1c-0.7-0.2-1.4-0.2-2-0.1c-0.6,0.2-1.1,0.5-1.5,0.9c-0.4,0.5-0.7,1-0.9,1.6
		c-0.2,0.7-0.2,1.3-0.1,2C5.6,27.4,5.8,28,6.3,28.4z M7.2,25.3c0.1-0.3,0.2-0.5,0.4-0.7c0.2-0.2,0.4-0.3,0.6-0.3s0.3,0,0.5,0L7.9,27
		c-0.1-0.1-0.3-0.2-0.4-0.3c-0.2-0.2-0.3-0.4-0.4-0.6S7.1,25.6,7.2,25.3z"/>
	<path d="M18.9,12.2c-0.3-0.3-0.7-0.5-1-0.6s-0.7-0.1-1,0s-0.7,0.2-1,0.4s-0.6,0.4-1,0.6c-0.3,0.2-0.6,0.4-0.8,0.5
		c-0.3,0.2-0.5,0.3-0.7,0.3s-0.4,0-0.5-0.1s-0.2-0.2-0.2-0.4c0-0.1,0-0.3,0.1-0.5s0.3-0.4,0.5-0.7c0.3-0.3,0.6-0.5,1-0.7
		s0.8-0.4,1.2-0.5l-0.8-1.8c-0.5,0.1-1,0.3-1.5,0.7c-0.5,0.3-0.9,0.7-1.3,1.1c-0.6,0.6-1,1.2-1.2,1.8s-0.3,1.1-0.2,1.6
		s0.3,0.9,0.7,1.3c0.3,0.3,0.7,0.5,1,0.6s0.7,0.1,1,0s0.7-0.2,1-0.4s0.7-0.4,1-0.6c0.3-0.2,0.6-0.4,0.8-0.5c0.3-0.2,0.5-0.3,0.7-0.3
		s0.4,0,0.5,0.1s0.2,0.2,0.2,0.4c0,0.1,0,0.3-0.1,0.5s-0.3,0.4-0.5,0.7c-0.4,0.4-0.8,0.7-1.3,0.9c-0.5,0.2-0.9,0.4-1.4,0.5l0.7,1.9
		c0.5-0.1,1-0.3,1.6-0.7c0.6-0.3,1.1-0.8,1.7-1.3c0.6-0.6,1-1.2,1.2-1.8s0.3-1.1,0.2-1.6C19.5,13,19.3,12.6,18.9,12.2z"/>
	<path d="M25.4,6c-0.5-0.3-1.1-0.5-1.8-0.5c-0.7,0-1.3,0.1-2,0.5c-0.7,0.3-1.2,0.7-1.6,1.3c-0.4,0.5-0.6,1.1-0.7,1.7
		c-0.1,0.6,0,1.2,0.3,1.9c0.3,0.6,0.7,1.1,1.2,1.4c0.5,0.3,1.1,0.5,1.8,0.5c0.6,0,1.3-0.1,2-0.5c0.7-0.3,1.2-0.7,1.6-1.3
		c0.4-0.5,0.6-1.1,0.7-1.7c0.1-0.7,0-1.3-0.3-1.9C26.3,6.8,25.9,6.3,25.4,6z M24.5,10c-0.1,0.2-0.3,0.4-0.6,0.5
		c-0.2,0.1-0.5,0.2-0.7,0.1c-0.2,0-0.5-0.1-0.7-0.3s-0.4-0.4-0.6-0.7c-0.1-0.3-0.2-0.6-0.2-0.9c0-0.3,0.1-0.5,0.2-0.7
		s0.3-0.4,0.6-0.5c0.2-0.1,0.5-0.2,0.7-0.1c0.2,0,0.5,0.1,0.7,0.3c0.2,0.2,0.4,0.4,0.5,0.7s0.2,0.6,0.2,0.9
		C24.7,9.6,24.6,9.8,24.5,10z"/>
	<rect x="28.4" y="1" transform="matrix(0.9823 -0.1875 0.1875 0.9823 -0.5336 5.6536)" width="2.4" height="9.3"/>
	<rect x="33.3" y="3" transform="matrix(0.9999 -1.679862e-02 1.679862e-02 0.9999 -0.1026 0.5808)" width="2.4" height="6.8"/>
	<path d="M35.5,0.3C35.2,0.1,34.9,0,34.4,0c-0.4,0-0.8,0.1-1,0.4C33.1,0.6,33,0.9,33,1.3s0.1,0.7,0.4,0.9s0.6,0.4,1.1,0.3
		c0.4,0,0.8-0.1,1.1-0.4S36,1.5,36,1.2C35.9,0.8,35.8,0.6,35.5,0.3z"/>
	<path d="M44.6,4.7c-0.4-0.3-0.8-0.5-1.3-0.7c-0.6-0.1-1.1-0.1-1.6,0c-0.3,0.1-0.5,0.2-0.7,0.3l0.2-0.7L39,3l-1.7,6.6l2.3,0.6
		L40.4,7c0.1-0.4,0.2-0.6,0.4-0.8C41,6,41.2,5.9,41.4,5.8s0.5-0.1,0.7,0c0.3,0.1,0.6,0.3,0.7,0.5C43,6.6,43,7,42.9,7.4L42,10.8
		l2.3,0.6l1-3.8c0.2-0.7,0.2-1.3,0.1-1.8C45.2,5.4,45,5,44.6,4.7z"/>
	<path d="M48.5,11.2c-0.1-0.4-0.3-0.6-0.7-0.8c-0.3-0.2-0.7-0.2-1.1-0.2c-0.4,0.1-0.7,0.3-0.9,0.7s-0.2,0.7-0.1,1.1s0.3,0.6,0.7,0.8
		c0.3,0.2,0.7,0.2,1.1,0.1c0.4-0.1,0.7-0.3,0.9-0.7C48.6,12,48.6,11.6,48.5,11.2z"/>
</g>
</svg>
